<svg width="194" height="143" viewBox="0 0 194 143" fill="none" xmlns="http://www.w3.org/2000/svg">
<path d="M55.7233 115.504C55.5299 115.878 55.0993 116.347 55.1742 116.614C56.6344 121.264 57.7951 126.114 60.5158 130.128C63.636 134.737 68.0978 137.065 73.3397 137.962C80.2726 139.153 87.243 138.577 94.1947 138.832C101.146 139.086 108.26 139.501 115.299 139.741C121.938 139.989 128.583 139.492 135.125 138.256C139.312 137.46 143.131 135.694 147.087 134.242C147.542 134.078 147.965 133.826 148.336 133.5C152.797 129.613 156.785 125.318 158.769 119.337C158.833 119.029 158.866 118.715 158.869 118.4C158.32 118.661 157.933 118.875 157.521 119.029C155.599 119.758 153.677 120.514 151.736 121.183C150.164 121.719 148.579 122.234 146.969 122.602C144.964 123.089 142.935 123.451 140.891 123.685C135.387 124.234 129.877 124.742 124.36 125.097C121.203 125.304 118.033 125.177 114.863 125.197C110.045 125.197 105.228 125.151 100.41 125.271C95.0429 125.305 89.6825 124.857 84.385 123.933C78.6065 123.037 72.7967 122.254 67.0869 120.989C63.8045 120.267 60.6719 118.721 57.508 117.444C56.884 117.196 56.4472 116.474 55.9292 115.972C56.5158 116.199 57.1149 116.387 57.6828 116.641C61.3146 118.32 64.9714 119.879 68.9652 120.274C69.6579 120.34 69.6579 120.334 70.2882 119.196H67.4613C67.5362 118.052 68.4223 118.032 68.9839 117.905C74.3818 116.668 79.736 115.229 85.3023 114.895C90.5878 114.607 95.8671 114.059 101.146 113.671C102.644 113.557 104.154 113.61 105.658 113.57C106.357 113.57 107.05 113.49 107.948 113.436C107.411 111.913 107.348 110.245 107.767 108.68C108.061 107.496 107.462 106.064 107.268 104.739C107.168 104.07 106.519 103.294 107.786 102.686C108.41 104.619 109.602 106.305 109.402 108.526C109.293 109.453 109.274 110.391 109.346 111.322C109.596 113.644 110.594 114.038 112.373 112.747C113.276 113.057 114.206 113.265 115.15 113.369C117.522 113.408 119.895 113.278 122.251 112.981C127.661 112.176 133.136 111.994 138.582 112.44C140.222 112.678 141.837 113.081 143.406 113.644C143.624 113.704 143.768 114.099 144.186 114.667C142.607 114.554 141.378 114.58 140.186 114.366C133.321 113.149 126.457 114.232 119.624 114.888C117.752 115.069 115.83 115.042 113.933 115.116L111.374 115.236C111.717 117.959 113.49 119.143 115.493 118.166C116.049 117.844 116.589 117.489 117.109 117.102C119.455 115.591 121.714 115.637 123.861 117.557C121.221 116.641 119.044 117.999 116.76 119.083C115.749 119.523 114.659 119.71 113.571 119.631C112.245 119.538 110.922 119.846 109.752 120.521C108.098 121.451 106.345 121.826 104.76 120.287L104.99 119.993C107.418 120.621 109.221 119.417 110.881 117.765C109.633 115.403 109.396 115.223 107.243 115.316C102.207 115.537 97.1589 115.671 92.1229 115.985C87.9544 116.26 83.7921 116.721 79.6423 117.189C78.0199 117.377 76.4224 117.858 74.4504 118.226C78.0012 119.645 81.2523 120.508 84.7032 119.993C86.1822 119.778 87.6549 119.464 89.1401 119.263C90.7065 118.993 92.3123 119.292 93.7017 120.113C95.0559 120.929 94.7127 122.441 95.2244 123.578C96.4724 123.09 96.4724 123.09 96.6534 122.515C96.9716 121.384 97.24 120.233 97.5894 119.109C98.6503 115.724 100.086 115.323 102.488 117.725C102.687 117.985 102.854 118.27 102.987 118.574V118.534C100.366 118.039 100.073 118.226 99.318 120.936C99.1495 121.558 99.0185 122.194 98.8437 122.943C101.34 122.789 103.736 122.836 106.058 122.461C110.912 121.678 115.68 122.461 120.479 122.943C122.285 123.1 124.098 123.134 125.908 123.043C128.123 122.97 130.326 122.742 132.535 122.588C136.816 122.287 141.115 122.133 145.371 121.638C147.243 121.424 148.997 120.528 150.8 119.932C152.454 119.384 154.127 118.869 155.761 118.246C156.715 117.953 157.595 117.436 158.339 116.732C159.083 116.029 159.671 115.156 160.061 114.179C160.685 112.56 160.548 111.162 159.437 109.971C158.739 109.164 157.907 108.501 156.985 108.017C153.162 106.407 149.224 105.132 145.209 104.204C138.214 102.384 131.087 102.585 123.992 102.197C121.783 102.07 119.568 101.996 117.359 101.936C115.83 101.936 114.532 102.257 114.17 104.191C114.12 104.465 113.764 104.679 113.546 104.92L113.278 104.619L113.833 102.344C103.455 102.023 93.1651 102.859 82.8686 101.227C83.2186 100.992 83.5993 100.814 83.9981 100.699C87.4456 100.313 90.9177 100.248 94.3757 100.505C99.2618 100.826 104.179 100.658 109.084 100.578C110.07 100.578 111.05 100.03 112.029 99.7352L111.986 99.6884C112.629 99.9227 113.295 100.082 113.97 100.163C117.221 100.21 120.473 100.016 123.711 100.21C130.108 100.598 136.51 100.993 142.869 101.762C147.824 102.407 152.639 103.952 157.109 106.332C161.64 108.693 162.239 112.687 161.259 117.189C160.011 122.963 156.816 127.345 152.997 131.439C148.005 136.791 141.877 139.267 135.144 140.631C129.076 141.878 122.895 142.374 116.722 142.11C108.897 141.762 101.078 141.22 93.2587 140.772C91.4365 140.671 89.6143 140.738 87.7984 140.645C83.1369 140.417 78.438 140.37 73.8326 139.808C70.4105 139.469 67.1791 137.967 64.6095 135.52C62.7374 133.7 60.7155 131.981 59.2865 129.814C55.9106 124.764 53.8513 118.84 53.3208 112.654C53.1503 111.557 53.3314 110.431 53.8346 109.459C54.3378 108.487 55.1333 107.727 56.0915 107.302L65.9948 101.95C63.6422 100.612 61.3021 99.1264 58.8434 97.9356C54.7498 95.9286 50.6687 93.8146 46.4253 92.2357C40.5531 90.0615 34.5562 88.3087 28.5531 86.402C26.9738 85.8572 25.3595 85.4368 23.7231 85.1443C22.2129 84.9101 20.5343 84.5623 19.3985 86.3552C19.4651 86.9494 19.672 87.5156 19.9996 88.0003C20.3272 88.4849 20.7646 88.872 21.2706 89.1249C22.943 90.0548 24.603 91.0583 26.3502 91.8009C31.1116 93.848 35.954 95.6945 40.7029 97.7817C45.0711 99.7018 49.5204 101.628 52.6219 105.81C53.0337 106.358 53.4019 106.94 53.7888 107.509L53.3707 108.017C52.7354 107.633 52.1246 107.204 51.5423 106.733C46.912 102.445 41.3831 99.9761 35.7606 97.6546C31.3425 95.8282 26.9368 93.955 22.6061 91.9012C21.2492 91.2084 20.0469 90.2114 19.0803 88.9777C18.7265 88.5517 18.4896 88.029 18.3958 87.4676C18.3019 86.9061 18.3549 86.3278 18.5487 85.7966C18.7425 85.2654 19.0696 84.8021 19.4938 84.4579C19.9181 84.1137 20.4229 83.9021 20.9524 83.8464C23.0676 83.5526 25.2142 83.6499 27.2988 84.1341C36.1038 86.5291 44.8589 89.1984 53.1585 93.2125C58.0447 95.574 62.7561 98.3638 67.5112 101.093C68.4154 101.587 69.4457 101.749 70.4442 101.555C73.4333 101.24 76.4224 100.946 79.4115 100.705C80.1258 100.749 80.8343 100.868 81.5269 101.06C80.2238 102.128 78.6097 102.666 76.9715 102.578C72.9652 102.706 69.1524 103.803 65.3646 105.027C62.1064 106.075 59.0441 107.725 56.3161 109.904C53.9011 111.784 53.7763 113.062 55.7233 115.504ZM93.3398 123.806C93.4145 123.576 93.477 123.341 93.527 123.103C93.8827 121.096 93.5832 120.675 91.6549 120.715C91.2618 120.715 90.8686 120.795 90.4693 120.822C85.5831 121.177 80.697 121.866 75.9294 119.812C75.0433 119.431 73.895 119.665 72.8779 119.752C72.5347 119.785 72.2538 120.24 71.9044 120.501C79.2243 121.123 86.0636 124 93.3398 123.806Z" fill="white"/>
<path d="M74.912 67.6022C76.1671 68.0435 77.3912 68.5801 78.5751 69.2078C80.5283 70.4321 82.3193 70.8135 84.1913 69.0941C84.4501 68.9284 84.7425 68.8321 85.0434 68.8135C85.3443 68.7949 85.645 68.8544 85.9199 68.9871L83.6796 70.78C87.0681 72.4726 90.3505 72.3856 93.6641 71.7434C94.4379 71.5895 95.1992 71.1613 95.9605 71.1613C96.8529 71.1613 96.2039 70.3184 96.4723 70.2849C97.021 70.2978 97.5687 70.3402 98.1134 70.4121C98.7395 70.4289 99.3658 70.3886 99.9855 70.2916C101.552 70.024 101.826 69.6762 101.814 67.9702C101.699 66.37 101.668 64.7641 101.72 63.1601C101.982 60.3971 102.463 57.6609 102.881 54.724C101.049 54.3483 99.1744 54.2716 97.3209 54.4965C96.934 54.4965 96.5284 54.8042 96.1727 54.7373C95.0245 54.5233 93.7078 55.4063 92.7156 53.8007C92.3849 53.2521 90.9246 53.2789 90.0135 53.386C87.4051 53.7004 84.8903 53.1853 82.3442 52.7169C81.4357 52.6732 80.5255 52.736 79.6297 52.9043C80.7342 53.8543 82.2506 53.0314 83.0494 54.6637C81.3333 54.6637 79.7795 55.1989 78.2381 53.9947C78.2007 53.5398 78.1632 52.9779 78.1195 52.4226C76.1663 51.5596 76.1663 51.5596 75.1866 53.1652C73.7201 49.1043 75.3177 44.1671 78.5564 42.7622C79.2178 40.7886 77.3083 38.6077 79.1118 36.5338C87.2241 36.226 95.4863 36.3532 103.574 37.8718C103.942 40.0193 103.942 40.0193 102.819 41.9661C100.722 41.9661 98.5378 42.6016 96.2414 41.1967C98.4941 39.9725 100.953 41.558 102.881 40.1464V39.551C95.064 39.0515 87.2429 38.5341 79.4175 37.9989C79.2303 37.9989 79.0306 38.2464 78.5813 38.5542C81.9636 39.9457 85.2584 39.3302 88.3661 40.1732C85.5143 40.9425 82.6063 40.6615 79.6297 41.1031C79.9711 41.3473 80.343 41.5387 80.7342 41.6717C82.8122 42.033 84.8965 42.3809 86.9745 42.6552C91.2054 43.2037 95.4426 43.7122 99.6798 44.2072C100.304 44.2642 100.932 44.2463 101.552 44.1537C103.736 43.8861 104.672 44.5752 104.741 46.8766C104.803 48.9906 104.622 51.1047 104.51 53.2187C104.354 56.169 104.067 59.1193 104.029 62.0763C103.992 64.7188 104.029 67.3346 102.638 69.9504C103.742 70.0776 104.578 70.1311 105.402 70.2783C106.101 70.3987 107.043 70.3786 107.418 70.8469C109.096 72.9342 110.831 71.9039 112.591 71.1814C112.879 71.0417 113.158 70.883 113.427 70.7064H113.383C112.959 72.5127 111.568 72.9409 110.132 73.1416C109.043 73.234 108.022 73.7447 107.255 74.5799C106.456 75.3428 105.49 75.8767 104.447 76.132C98.6439 77.7176 92.8279 79.2696 86.9745 80.6745C85.0351 81.0824 83.066 81.3062 81.0899 81.3435C77.82 81.5041 75.0992 80.1059 72.7779 77.7109C69.9884 74.8342 67.2115 71.9441 64.4096 69.0874C63.8968 68.6269 63.3614 68.1959 62.8059 67.7963C59.8979 72.9743 55.7169 76.1922 50.4938 77.0552C43.8666 78.1457 37.7698 76.3862 33.1146 70.7332C32.3031 69.7848 31.6849 68.6657 31.2992 67.4471C30.9134 66.2284 30.7688 64.937 30.8743 63.6551C31.2425 59.2932 31.6543 54.9581 32.9835 50.7033C34.3166 46.4603 36.9493 42.8257 40.4536 40.3904C43.9579 37.955 48.1277 36.8623 52.2847 37.2898C54.5721 37.4291 56.8142 38.0306 58.8932 39.0626C59.2551 39.2633 59.4798 39.7316 59.7606 40.0929C59.3737 40.0929 58.8994 40.1865 58.6186 39.9858C55.9041 38.0591 52.8588 38.4538 49.8822 38.5676C46.032 38.7147 42.6747 40.4274 39.7293 42.9361C37.2031 45.122 35.3467 48.07 34.4001 51.399C33.152 55.5134 32.8649 59.708 32.7526 63.9094C32.659 67.3413 34.1192 70.2716 36.6528 72.506C39.5717 75.0104 43.1528 76.4641 46.8869 76.6605C48.8509 76.7824 50.8166 76.454 52.6529 75.6972C54.4626 74.9747 56.0539 73.5898 57.7013 72.4324C59.6233 71.0944 60.7466 69.1276 61.408 66.5787L55.7169 63.7087C55.2801 64.585 54.9369 65.234 54.6248 65.8963C53.3768 68.5723 51.3425 69.1677 48.8276 67.6022C52.0663 67.3815 53.1209 66.5385 54.1319 63.2671C51.9977 62.5981 49.9259 61.6883 47.6856 61.8354C46.8557 64.1836 48.1849 65.8495 48.8713 67.6424C46.5374 67.2209 46.1068 65.147 45.6263 63.2136C45.0023 60.6179 45.5015 57.9887 45.9384 55.4532C46.3084 52.9737 47.2947 50.6469 48.7936 48.7174C50.2925 46.7879 52.2487 45.327 54.4564 44.4882C57.071 43.4044 60.472 43.4914 61.8698 47.1642C62.0882 47.7596 62.7185 48.1744 63.1616 48.6695L63.5297 48.4153L62.9993 44.515C63.4985 45.6255 64.1912 46.6959 64.4471 47.86C64.5018 48.2707 64.65 48.6607 64.8785 48.9955C65.1071 49.3304 65.4089 49.5998 65.7575 49.78C67.7232 50.8571 69.6515 52.0078 71.6484 53.0046C72.7416 53.4791 73.8632 53.8746 75.0056 54.1888C77.5018 55.0116 79.9979 55.7475 82.4441 56.6707C83.4645 56.9976 84.3572 57.6735 84.986 58.5951C85.6147 59.5168 85.9449 60.6336 85.9262 61.7752C86.0756 62.9722 86.3178 64.1537 86.65 65.3076C84.7779 64.9195 85.1773 63.2537 84.8216 62.4242C83.1555 62.7051 81.5704 63.0932 79.9667 63.2136C78.3629 63.334 76.6843 63.247 74.7623 63.247C74.8247 64.7122 74.8933 66.184 74.9557 67.6558C73.5454 66.0769 74.0259 64.0365 73.6141 61.8488L83.9854 60.5911C82.3879 57.9686 80.1289 57.7077 78.0447 57.0387C75.7706 56.3762 73.5312 55.5834 71.3363 54.6637C68.2162 53.2655 65.2957 51.3187 62.1132 50.168C59.3051 49.1445 56.266 48.83 53.3206 48.3149C52.7944 48.2303 52.2582 48.3721 51.8292 48.7096C48.7527 51.5997 47.1552 55.1789 47.461 59.7415C50.007 60.4974 52.4532 61.1932 54.8682 61.9425C59.174 63.2805 63.1678 65.2273 66.4065 68.6793C68.8153 71.2416 71.2927 73.7303 73.664 76.3327C74.9579 77.723 76.6737 78.5703 78.5002 78.7211C80.1566 78.935 81.8284 78.9776 83.4924 78.8482C86.2513 78.6303 88.997 78.2506 91.7171 77.7109C96.3599 76.7274 100.965 75.5433 105.583 74.4194C105.807 74.3949 106.022 74.3185 106.216 74.1955C106.409 74.0725 106.575 73.9059 106.702 73.7073C106.829 73.5087 106.914 73.2828 106.951 73.0453C106.989 72.8078 106.978 72.5644 106.919 72.3321C104.965 71.2684 103.836 71.1413 101.433 71.4156C97.427 71.8772 93.6204 73.4226 89.5081 73.4226C83.8918 73.4493 78.9308 71.9976 74.912 67.6022ZM99.6361 46.5019L99.7422 47.1709C98.8727 47.3865 97.9874 47.5208 97.0963 47.5723C94.9683 47.5054 92.8342 47.3315 90.7125 47.1442C87.2553 46.8297 83.792 46.6156 80.4721 45.3178C77.1523 44.0199 77.0899 44.5016 75.9479 48.1477C75.821 48.7048 75.7457 49.274 75.7233 49.8469C77.6328 51.4325 79.611 52.242 81.9636 51.5596C82.4139 51.5216 82.867 51.5623 83.3052 51.68C85.0088 51.8472 86.7249 52.2486 88.416 52.1282C89.9324 52.0212 91.3739 51.8673 92.8404 52.4694C93.5224 52.8163 94.2774 52.9649 95.0299 52.9004C95.7823 52.8358 96.5057 52.5603 97.1275 52.1015C97.7378 51.705 98.4358 51.4902 99.1493 51.4793C100.647 51.4057 102.157 51.4793 103.674 51.4793C103.879 50.6297 104.16 49.6663 104.354 48.6829C104.734 46.7294 103.73 45.4583 101.858 45.3044C97.92 44.9833 93.9824 44.6755 90.0572 44.2741C88.416 44.1069 86.7936 43.6988 85.1648 43.4111C83.4181 43.0681 81.6193 43.1945 79.9292 43.7791C86.3068 46.2544 93.0026 46.1607 99.6361 46.5019ZM61.3144 47.6258C59.355 45.3579 58.0071 45.1639 55.5297 46.4685L61.3144 47.6258ZM102.881 53.105C100.728 51.981 99.9418 52.155 97.7952 54.0081L102.881 53.105Z" fill="white"/>
<path d="M126.807 33.0424C131.321 33.0268 135.797 32.1384 140.017 30.4199C142.357 29.5168 144.454 27.9045 146.645 26.5732C147.411 26.0209 148.214 25.529 149.047 25.1014C148.71 27.1084 147 27.7774 145.54 29.1689C148.18 29.8379 149.958 28.8277 151.537 27.0281C151.98 28.8411 151.705 29.6037 150.451 29.858C149.438 30.0299 148.407 30.0546 147.387 29.9315C144.937 29.684 142.48 30.312 140.398 31.7178C139.406 32.3868 139.293 32.9956 139.612 33.9857L137.453 32.6477L135.156 33.4839C135.064 34.0865 135.064 34.7011 135.156 35.3036C136.167 38.0599 137.166 40.8229 139.212 42.9704C139.874 43.7041 140.703 44.2391 141.617 44.522C142.531 44.805 143.499 44.8259 144.423 44.5827C145.191 44.4154 145.964 44.2749 146.732 44.1278L144.86 45.6196C147.318 46.9576 149.091 47.0112 152.66 45.7869C154.6 45.134 156.377 44.0217 157.862 42.5324C159.346 41.0432 160.498 39.2151 161.234 37.1835C162.813 33.0692 163.662 28.6069 164.579 24.2383C165.095 21.6558 164.948 18.9716 164.155 16.4712C163.135 13.2571 161.362 10.3776 159.007 8.10871L159.212 7.85449C164.498 11.8685 167.369 17.2205 166.745 24.2517C166.152 30.8481 164.174 37.0163 159.961 42.0405C156.267 46.4358 151.499 48.0013 146.058 47.3523C145.677 47.3055 145.29 47.2988 144.548 47.2453C146.507 51.0586 149.035 53.5339 152.841 54.2966C153.456 54.4367 154.087 54.4795 154.713 54.4237C158.301 53.9487 161.578 55.1863 164.854 56.4307C167.475 57.4543 170.195 58.4377 172.854 56.7986C174.451 55.7951 175.805 54.3434 177.222 53.1526C177.222 51.1054 177.122 49.1386 177.266 47.2319C177.448 46.1762 177.741 45.1461 178.139 44.1612L178.083 44.1545C178.139 47.145 178.189 50.1755 178.239 53.079C180.879 53.4737 182.67 52.3632 184.305 50.7977H184.267C183.643 53.0723 182.152 54.4571 180.055 54.4237C178.884 54.3863 177.718 54.6049 176.628 55.0661C175.538 55.5273 174.547 56.2215 173.715 57.1064C172.619 58.2931 171.198 59.0743 169.66 59.3365C168.121 59.5988 166.545 59.3285 165.16 58.5648C163.13 57.6234 161.046 56.8256 158.919 56.1765C157.346 55.6305 155.679 55.4682 154.039 55.7015C151.381 56.1029 148.885 55.0325 146.819 53.2128C145.554 52.0771 144.452 50.747 143.549 49.2657C142.482 47.5798 141.527 45.9207 139.737 44.9239C136.042 42.85 134.825 38.9764 133.858 34.9825C133.783 34.6614 133.758 34.3135 133.696 33.9857C133.664 33.9187 133.621 33.8577 133.571 33.8051L126.807 33.0424Z" fill="white"/>
<path d="M144.386 3.92052C143.375 3.8001 142.283 3.92052 141.372 3.51912C140.607 3.15622 139.751 3.07828 138.94 3.29775C138.129 3.51721 137.41 4.02143 136.897 4.73001C134.85 7.72044 131.905 9.31935 129.259 11.42C125.24 14.5442 121.496 18.0699 117.646 21.455C116.36 22.5723 115.106 23.7296 113.902 24.9138C113.178 25.5828 112.56 26.3789 112.891 27.5898C113.883 28.2922 114.882 27.9711 115.83 27.5898C116.868 27.1805 117.867 26.6652 118.813 26.0511C122.47 23.5557 126.095 21.0068 129.715 18.4512C132.548 16.4442 135.331 14.4372 138.183 12.4302C138.351 12.3098 138.62 12.3499 139.237 12.2496C138.024 13.8813 136.572 15.2912 134.938 16.4241C129.659 19.8628 124.417 23.3349 119.219 26.8605C117.827 27.8038 116.529 28.9077 115.212 29.9714C114.856 30.2469 114.589 30.6351 114.449 31.0815C114.31 31.5278 114.304 32.0099 114.432 32.4601L112.797 31.4432L113.977 29.2154L112.86 28.4193C111.393 27.3489 111.1 26.1113 112.148 24.6194C112.801 23.7751 113.54 23.0121 114.351 22.3448C117.621 19.428 120.872 16.4977 124.198 13.6478C125.983 12.1358 127.868 10.751 129.783 9.43308C131.836 8.00811 133.858 6.61659 135.294 4.38213C136.136 3.07758 137.265 1.93359 138.9 1.75296C139.294 1.71282 139.743 1.53888 140.061 1.68606C141.521 2.3952 142.938 3.17124 144.386 3.92052Z" fill="white"/>
<path d="M32.99 30.7741C33.1835 30.2322 33.352 29.6703 33.5766 29.1418C34.3504 27.3489 33.8637 26.1179 32.0228 25.9573C30.219 25.9121 28.4144 25.9836 26.6187 26.1714C25.3754 26.3148 24.1239 26.3595 22.8745 26.3052C20.6717 26.0577 19.9041 24.8 20.2848 22.4518C20.3825 21.8247 20.6135 21.2301 20.9597 20.7139C21.306 20.1977 21.7583 19.7737 22.2817 19.4747C23.6574 18.5533 25.2071 17.9715 26.8185 17.7713C28.4299 17.5711 30.0626 17.7577 31.5984 18.3174C33.0055 18.8501 34.3703 19.5034 35.6796 20.2709C37.9632 21.6534 40.6359 22.1048 43.2054 21.542C44.5907 21.2275 45.9761 20.9399 47.3677 20.6455V20.5853C47.6173 21.5687 47.0681 21.9701 46.3255 22.2377C42.2007 23.7028 38.1507 23.9102 34.1819 21.5687C32.8511 20.7267 31.3782 20.1751 29.8478 19.9455C28.3174 19.7159 26.7598 19.8128 25.2645 20.2307C24.4362 20.3939 23.649 20.7413 22.9536 21.2506C22.2582 21.7599 21.67 22.4198 21.2271 23.1877C21.4941 23.645 21.8754 24.0128 22.3277 24.2493C22.78 24.4859 23.2851 24.5816 23.7856 24.5257C25.2021 24.4855 26.6062 24.3049 28.0165 24.2046C29.1874 24.0427 30.3689 23.9867 31.5485 24.0373C34.5813 24.3785 35.7794 27.0679 34.2506 29.9446C33.97 30.3441 33.6475 30.7077 33.2896 31.0284L32.99 30.7741Z" fill="white"/>
<path d="M165.728 6.69043C173.216 7.54675 179.044 11.3735 184.18 16.9262C182.932 17.3477 182.183 16.4244 181.416 15.8758C179.45 14.4709 177.622 12.8319 175.606 11.5206C173.897 10.5312 172.141 9.63795 170.345 8.84462L170.058 9.29954C170.34 9.56022 170.634 9.80582 170.938 10.0354C171.25 10.3031 171.592 10.5278 171.955 10.7044C173.877 11.5496 175.435 13.1339 176.324 15.1466C178.358 19.4283 181.94 21.0874 185.94 22.1912C186.902 22.4285 187.827 22.8139 188.686 23.3352C186.876 24.3254 185.166 23.4155 183.5 23.0676C182.133 22.78 180.86 21.9905 179.562 21.3751C178.469 20.8856 177.483 20.1567 176.667 19.2351C175.851 18.3135 175.224 17.2194 174.826 16.023C174.529 15.0134 173.997 14.1013 173.281 13.3723C172.565 12.6432 171.688 12.1212 170.732 11.8551C169.579 11.4753 168.525 10.8099 167.655 9.91275C166.786 9.01556 166.126 7.91174 165.728 6.69043Z" fill="white"/>
<path d="M191.381 37.5178C190.828 39.6973 189.497 41.5554 187.674 42.6892L187.562 42.6022C187.357 42.0702 187.088 41.5687 186.763 41.1103C185.166 39.3576 183.512 37.6583 181.877 35.939L179.456 33.3834C179.357 34.0145 179.391 34.6615 179.556 35.2766C179.743 37.0763 180.28 38.9361 179.025 40.5818H179.057C178.738 38.4343 179.057 36.1397 177.752 34.2196C176.872 32.9218 176.011 31.6038 175.113 30.3193C174.021 28.7606 172.829 27.2821 171.818 25.6363C171.137 24.4556 170.52 23.2337 169.971 21.9769L170.401 21.6424L175.587 28.0983L175.98 27.7905C174.963 25.2015 173.684 22.6994 173.247 19.2607C175.624 23.5557 177.453 27.5229 179.874 31.0218C182.295 34.5207 185.316 37.5446 188.242 40.9699L191.431 37.6248L191.381 37.5178Z" fill="white"/>
<path d="M0.783521 64.3584C1.41054 64.7497 2.0055 65.1973 2.562 65.6964C7.82881 71.2357 14.1814 74.7881 21.1955 76.862C26.038 78.2936 31.0115 78.4876 35.8789 76.5676C36.3155 76.441 36.7629 76.3625 37.2144 76.3335L37.3704 76.8419C35.7354 77.5109 34.1504 78.414 32.4593 78.7285C27.2548 79.6985 22.144 79.5447 17.1081 77.3236C13.1786 75.5503 9.43793 73.3298 5.95048 70.7005C3.8475 69.1217 2.10646 66.9742 0.234375 65.0943L0.783521 64.3584Z" fill="white"/>
<path d="M191.425 37.5574C191.537 36.8148 191.599 36.0588 191.78 35.3296C192.841 31.0748 192.847 26.9738 190.339 23.2006C188.437 20.5651 187.459 17.2979 187.574 13.9684C187.546 13.7151 187.546 13.4591 187.574 13.2058C188.785 9.41921 187.287 6.30166 185.446 3.2644C185.409 3.20419 185.446 3.09715 185.446 2.71582C185.945 2.85696 186.419 3.08283 186.85 3.38482C188.623 5.12422 189.602 7.15798 189.284 9.90089C188.947 12.8378 188.785 15.8416 190.058 18.638C190.644 19.9225 191.375 21.1334 192.049 22.3778C194.669 27.228 194.189 32.0849 192.049 36.9419C191.936 37.2028 191.587 37.3433 191.343 37.544L191.425 37.5574Z" fill="white"/>
<path d="M114.376 32.4133C115.719 33.0412 117.174 33.3444 118.639 33.3017C120.103 33.2589 121.541 32.8711 122.85 32.1658C126.289 30.4866 129.59 28.4796 132.916 26.5529C133.941 25.9229 134.929 25.2258 135.874 24.4656C138.994 22.0907 142.114 19.6956 145.384 17.4277C144.991 18.8326 143.93 19.6756 142.944 20.4851C140.766 22.2847 138.576 24.0776 136.229 25.6364C133.297 27.6032 130.214 29.3092 127.219 31.169C126.715 31.5476 126.243 31.973 125.808 32.4401C124.323 32.9084 122.857 33.4436 121.359 33.8316C119.2 34.3936 117.034 34.5006 115 33.3232C114.719 33.1559 114.582 32.7211 114.376 32.4133Z" fill="white"/>
<path d="M47.3668 20.6452C47.1484 13.8147 44.2467 8.34227 39.71 3.44519C40.1093 3.34484 40.6398 3.01703 40.7958 3.15752C42.1499 4.442 43.7662 5.58599 44.6897 7.17152C46.6707 10.4562 48.0009 14.1423 48.5977 18.001C49.1946 21.8597 49.0453 25.8088 48.1593 29.6031C48.0969 29.8908 47.8473 30.1316 47.3793 30.8809C47.7038 27.0676 48.3278 23.8029 47.3356 20.585L47.3668 20.6452Z" fill="white"/>
<path d="M151.312 10.7642C149.783 9.39278 148.304 8.00795 146.32 7.29881C144.965 6.80375 144.535 5.32525 144.316 3.87352L146.257 5.72665C147.73 5.53933 148.129 4.46224 148.067 2.91016C148.073 1.93666 148.138 0.964599 148.26 0C150.625 1.18413 149.639 3.20452 150.001 4.71646C151.986 5.13124 154.001 5.38546 155.93 6.05446C157.084 6.40904 158.101 7.25867 159.181 7.88753L158.975 8.14175C158.382 7.92767 157.777 7.73366 157.196 7.47275C154.044 6.27125 150.631 6.09667 147.387 6.971C148.797 7.59986 150.039 8.11499 151.243 8.7104C151.561 8.87096 151.774 9.27905 152.029 9.56672C151.249 9.60686 151.118 10.0685 151.312 10.7642Z" fill="white"/>
<path d="M123.849 117.564C124.304 117.719 124.795 117.701 125.238 117.512C125.682 117.323 126.051 116.975 126.282 116.527C126.621 115.898 127.142 115.405 127.766 115.121C128.389 114.837 129.082 114.779 129.739 114.955C131.367 115.213 132.966 115.645 134.513 116.246C136.198 116.989 136.623 118.735 136.791 120.856C134.245 116.273 130.819 115.256 126.807 117.818C126.366 118.166 125.822 118.328 125.277 118.275C124.732 118.222 124.224 117.958 123.849 117.531V117.564Z" fill="white"/>
<path d="M33.2576 31.0348C32.9768 32.3059 33.4573 33.0418 34.6554 33.0819C35.8535 33.122 37.1515 33.0016 38.3996 32.9147C40.8957 32.7407 42.0065 33.2491 43.3918 35.3699C42.8177 35.2561 42.4183 35.1558 42.0189 35.0956C40.384 34.8614 38.7553 34.6139 37.1141 34.4266C36.2529 34.3262 35.3606 34.4266 34.5119 34.2727C32.6398 33.8981 32.2466 32.9347 32.958 30.7939L33.2576 31.0348Z" fill="white"/>
<path d="M113.483 70.7064C112.972 68.5053 112.772 68.2177 110.987 68.0304C109.508 67.8631 108.011 67.8765 106.519 67.8163C105.895 67.8163 105.315 67.8163 104.51 67.8163C105.134 67.1473 106.207 66.893 108.372 66.8195C109.758 66.7726 111.143 66.8195 112.685 66.8195C112.722 66.6388 112.816 66.1504 112.934 65.4814C113.462 66.2112 113.789 67.0838 113.881 68.0018C113.972 68.9197 113.824 69.8469 113.452 70.6796L113.483 70.7064Z" fill="white"/>
<path d="M115.349 76.193C114.8 76.193 114.163 76.387 113.708 76.1529C112.173 75.3768 111.031 75.8987 109.964 77.1229C109.648 77.3948 109.299 77.6198 108.928 77.7919C109.664 74.8483 110.382 74.4469 112.591 75.223C113.494 75.4645 114.414 75.6212 115.343 75.6913L115.349 76.193Z" fill="white"/>
<path d="M120.99 40.9494C120.154 42.7356 119.08 43.4849 117.396 43.1504C117.839 40.9627 118.8 40.3339 120.99 40.9494Z" fill="white"/>
<path d="M187.675 42.6889C186.857 45.0438 186.071 47.4121 185.21 49.7469C185.06 50.155 184.586 50.4159 184.255 50.7638H184.292C184.916 48.7969 185.54 46.81 186.27 44.8699C186.64 44.0672 187.072 43.2996 187.562 42.5752L187.675 42.6889Z" fill="white"/>
<path d="M109.715 94.7637C109.24 96.2288 108.286 96.3961 107.25 96.6704C106.42 96.8844 105.69 97.5535 104.885 98.0418C105.147 96.0616 106.769 94.9309 109.715 94.7637Z" fill="white"/>
<path d="M117.053 41.7656L113.746 43.4315C113.122 42.254 113.309 41.4244 114.195 40.8892C115.081 40.354 115.98 40.4343 117.053 41.7656Z" fill="white"/>
<path d="M106.119 88.5624C105.002 86.087 105.302 85.398 107.836 84.3008C107.174 85.9532 106.644 87.2578 106.119 88.5624Z" fill="white"/>
<path d="M92.1976 65.5625L93.9449 66.3988C92.1601 67.6899 90.2381 67.6632 88.3848 67.9174L92.1976 65.5625Z" fill="white"/>
<path d="M109.645 82.8695C109.321 82.729 108.853 82.6889 108.684 82.4347C108.172 81.6452 107.773 80.7755 107.268 79.8255C108.31 79.3037 108.934 79.7854 109.252 80.7287C109.438 81.4421 109.563 82.1721 109.626 82.9096L109.645 82.8695Z" fill="white"/>
<path d="M114.501 51.4328C114.429 50.8121 114.526 50.1823 114.781 49.6196C115.036 49.0568 115.437 48.5852 115.936 48.2617C117.066 49.5195 117.078 49.8004 116.073 50.4092L114.47 51.3927L114.501 51.4328Z" fill="white"/>
<path d="M107.48 90.8037L109.833 91.7403L108.279 94.0215C107.998 92.8976 107.786 92.028 107.48 90.8037Z" fill="white"/>
<path d="M115.586 67.5693C116.073 70.3858 116.061 70.4259 114.544 71.1551C113.92 69.777 114.688 68.9073 115.586 67.5693Z" fill="white"/>
<path d="M115.449 53.5205C116.46 54.7448 116.435 54.7046 115.374 55.4205C115.043 55.6479 114.894 56.1764 114.463 56.8989C114.089 55.3335 114.245 54.3568 115.449 53.5205Z" fill="white"/>
<path d="M109.626 82.909C110.006 82.6509 110.362 82.3528 110.687 82.0192C110.961 81.6781 111.099 81.2097 111.679 80.8418C111.679 81.5108 111.91 82.327 111.629 82.7953C111.142 83.5981 110.325 83.5178 109.626 82.8689V82.909Z" fill="white"/>
<path d="M93.5336 60.21C94.1576 61.4275 94.5757 62.217 95.0313 63.0867C93.1093 62.324 93.1093 62.324 93.5336 60.21Z" fill="white"/>
<path d="M114.469 51.3926L112.304 53.3327C112.266 51.4327 112.815 50.9845 114.494 51.4327L114.469 51.3926Z" fill="white"/>
<path d="M98.2818 60.1162C99.3426 60.5042 99.3364 61.3338 99.1804 62.3106C97.4893 61.6349 97.4893 61.6349 98.2818 60.1162Z" fill="white"/>
<path d="M116.559 37.926C116.441 36.1665 116.441 36.1665 118.101 36.2L117.077 38.207L116.559 37.926Z" fill="white"/>
<path d="M113.365 61.9561C115.437 62.9127 115.437 62.9127 114.551 65.0401C114.447 64.4387 114.309 63.8444 114.139 63.2606C113.918 62.8018 113.659 62.3652 113.365 61.9561Z" fill="white"/>
<path d="M98.4189 65.2272L99.6171 62.8857C100.079 64.3642 100.079 64.3642 98.4189 65.2272Z" fill="white"/>
<path d="M116.06 58.6046C116.029 57.9691 115.867 57.5008 116.023 57.2666C116.322 56.9741 116.672 56.7469 117.052 56.5977C117.087 57.0071 117.064 57.4198 116.984 57.8219C116.928 58.1029 116.541 58.2367 116.06 58.6046Z" fill="white"/>
<path d="M113.652 60.3039L111.668 59.1131C113.184 58.7117 113.34 58.7987 113.652 60.3039Z" fill="white"/>
<path d="M116.666 46.4152C116.735 45.7462 116.81 45.0036 116.903 44.0938C118.831 45.211 117.384 45.7796 117.271 46.4821L116.666 46.4152Z" fill="white"/>
<path d="M62.138 42.7756L59.7168 40.0996C60.9461 40.5345 61.9134 41.2704 62.138 42.7756Z" fill="white"/>
<path d="M115.318 47.2379L114.02 45.3112C115.224 45.271 115.224 45.271 115.318 47.2379Z" fill="white"/>
<path d="M95.4111 66.7061C95.7106 68.2247 95.7106 68.2247 94.1318 68.5593L95.4111 66.7061Z" fill="white"/>
<path d="M96.2035 56.5908C96.5717 57.0591 96.8962 57.2598 96.9586 57.5876C97.021 57.9154 96.6341 58.3302 96.5467 58.3035C96.2057 58.2477 95.8988 58.0507 95.6918 57.7549C95.6045 57.5341 95.9414 57.1528 96.2035 56.5908Z" fill="white"/>
<path d="M178.082 44.1872C178.401 42.9897 178.706 41.7922 179.031 40.5947H179C179.043 41.8926 179.106 43.1971 178.045 44.1605L178.082 44.1872Z" fill="white"/>
<path d="M113.558 104.907L112.397 106.653C112.304 106.253 112.342 105.832 112.505 105.459C112.667 105.087 112.945 104.785 113.29 104.605L113.558 104.907Z" fill="white"/>
<path d="M88.2222 57.5808C87.8478 57.6477 87.4796 57.7213 87.0989 57.7748C87.0989 57.7748 87.0552 57.5273 87.0303 57.3868L88.1473 57.166L88.2222 57.5808Z" fill="white"/>
<path d="M100.136 60.1699L100.978 59.1396L101.434 59.5678L100.541 60.5579L100.136 60.1699Z" fill="white"/>
<path d="M100.392 64.8936C100.716 65.8168 100.866 66.2316 101.016 66.7066C99.9484 66.5861 99.9484 66.5861 100.392 64.8936Z" fill="white"/>
<path d="M104.754 120.26C104.173 119.678 103.587 119.103 103 118.527V118.567L105.009 119.966L104.754 120.26Z" fill="white"/>
<path d="M112.042 99.7219C112.279 99.2335 112.51 98.7451 112.915 97.8955C113.321 99.4342 112.672 99.568 111.998 99.6751L112.042 99.7219Z" fill="white"/>
<path d="M109.733 84.8359C110.057 85.0902 110.357 85.224 110.357 85.3444C110.305 85.6237 110.213 85.8925 110.082 86.1405C109.914 86.0334 109.633 85.9465 109.602 85.806C109.603 85.4777 109.647 85.1512 109.733 84.8359Z" fill="white"/>
<path d="M151.924 11.9346C155.824 17.1193 157.827 22.8259 156.13 29.5494C155.867 30.593 155.842 31.7638 155.374 32.6803C154.976 33.5647 154.369 34.3223 153.614 34.8785C152.859 35.4346 151.982 35.7699 151.069 35.8514C148.404 36.0387 145.721 35.9584 143.05 35.8514C142.513 35.8514 141.995 35.2693 141.465 34.9549C143.886 35.1088 146.307 35.3095 148.729 35.3964C150.844 35.47 152.541 34.3796 153.952 32.8208C154.459 32.2815 154.783 31.5744 154.869 30.8138C155.123 26.5231 154.896 22.2154 154.195 17.9823C153.965 17.1755 153.664 16.3938 153.296 15.6475C152.835 14.4299 152.379 13.1789 151.924 11.9346Z" fill="white"/>
<path d="M141.521 35.0023L139.562 33.9453L141.521 35.0023Z" fill="white"/>
<path d="M50.7811 42.0468C45.7389 44.3883 42.2943 47.8136 40.3661 52.8043C38.4378 57.7951 39.5486 62.719 41.6141 67.703C38.4316 65.9837 35.9666 56.9254 38.2319 51.5332C40.6905 45.6594 46.3193 41.0098 50.7811 42.0468Z" fill="white"/>
<path d="M153.34 10.3496C155.04 11.3358 156.508 12.7234 157.633 14.4074C158.759 16.0915 159.512 18.0279 159.836 20.0702C160.878 26.2049 160.342 32.0252 156.354 36.9692C154.247 39.613 151.71 41.8253 148.866 43.4986C148.157 43.8097 147.418 44.0341 146.663 44.1676C148.179 43.0102 149.727 41.9064 151.2 40.6955C154.713 37.8054 157.54 34.3333 158.432 29.5299C159.637 23.0205 159.15 16.9058 154.414 11.9218C154.017 11.4298 153.658 10.904 153.34 10.3496Z" fill="white"/>
</svg>
