<svg width="36" height="36" viewBox="0 0 36 36" fill="none" xmlns="http://www.w3.org/2000/svg">
<circle cx="18" cy="18" r="18" fill="white"/>
<path d="M14.898 28.5489C15.3853 29.2189 16.3234 29.367 16.9934 28.8798C17.6633 28.3925 17.8115 27.4544 17.3242 26.7844L14.898 28.5489ZM9 17.8889L7.8287 16.9518L7.11373 17.8455L7.7869 18.7711L9 17.8889ZM17.2824 9.93704C17.7999 9.29015 17.695 8.34621 17.0482 7.8287C16.4013 7.31118 15.4573 7.41606 14.9398 8.06296L17.2824 9.93704ZM17.3242 26.7844L10.2131 17.0066L7.7869 18.7711L14.898 28.5489L17.3242 26.7844ZM10.1713 18.8259L17.2824 9.93704L14.9398 8.06296L7.8287 16.9518L10.1713 18.8259Z" fill="#444444"/>
<path d="M9 18H28" stroke="#444444" stroke-width="3"/>
</svg>
