<svg width="186" height="127" viewBox="0 0 186 127" fill="none" xmlns="http://www.w3.org/2000/svg">
<g clip-path="url(#clip0)">
<path d="M107.73 91.6387L108.443 92.8241L106.766 94.3122C108.351 95.1529 109.693 96.1702 111.202 96.5737C114.859 97.5658 117.475 95.9936 119.069 92.0086L116.746 92.925L116.377 92.286C117.433 91.6302 118.473 90.9661 119.53 90.3187C120.761 89.6753 121.87 88.8218 122.809 87.7965L114.985 91.5882L113.416 89.9068L121.14 84.4925L120.956 84.131L112.158 89.2426C111.253 87.4434 110.305 85.493 109.316 83.5677C105.684 76.556 102.061 69.5276 98.4133 62.5496C93.0377 52.3263 87.5111 42.1704 82.2277 31.9135C80.2887 28.1769 78.6346 24.2985 77.2798 20.3115C76.8269 18.9747 76.2734 18.8907 75.3509 18.8234C68.5329 18.319 61.7232 17.6464 54.8967 17.411C47.6845 17.1588 40.4555 17.0747 33.2517 17.411C28.5134 17.638 23.8087 18.7477 19.0872 19.4624C18.8226 19.516 18.5499 19.5146 18.2859 19.4582C18.0219 19.4017 17.7723 19.2916 17.5525 19.1345C18.1027 18.6615 18.7258 18.2811 19.3975 18.0079C24.0435 17.0327 28.6727 15.7968 33.3774 15.3092C42.963 14.2919 52.5402 15.1326 62.109 16.3685C67.0401 17.0074 72.1725 16.3685 77.0198 17.3269C80.0053 17.8902 81.8 16.4273 83.9721 15.5194C94.8629 10.8711 106.112 7.11757 117.61 4.29568C125.325 2.44608 133.233 1.39517 141.091 0.0920494C143.087 -0.244241 144.555 0.411525 145.544 2.54697C150.803 13.9304 155.918 25.3979 161.696 36.5207C165.781 44.3815 170.921 51.6537 175.391 59.3464C176.624 61.4398 177.312 63.8443 178.285 66.0722C178.461 66.4673 178.838 66.7784 179.048 67.1651C180.171 69.2249 181.262 71.3015 182.36 73.3613L177.069 66.2319C176.23 67.6359 175.182 68.8298 177.697 69.3174C178.018 69.4647 178.297 69.6905 178.508 69.974C178.719 70.2576 178.856 70.5897 178.905 70.94C178.762 72.0842 178.503 73.211 178.134 74.3029L177.63 74.1011L177.907 70.5869L177.471 70.9484L174.435 67.5771L163.03 72.1506L163.072 72.344L169.403 70.9316C168.992 71.4276 168.883 71.7051 168.707 71.7723C163.508 73.3445 158.333 74.9923 153.1 76.4299C145.46 78.5317 137.753 80.4234 130.114 82.5588C127.915 83.318 125.766 84.2166 123.681 85.2491C123.925 85.3654 124.191 85.4292 124.461 85.4364C124.731 85.4437 125 85.3942 125.249 85.2912C132.738 83.1305 140.186 80.8101 147.725 78.8764C154.149 77.195 160.824 76.5729 166.955 73.7816C168.959 72.8737 171.072 72.2011 173.135 71.4192C173.202 71.5789 173.27 71.7387 173.345 71.8984L166.519 75.6649C168.766 75.2529 170.318 74.9755 171.861 74.6812C173.404 74.387 174.888 74.0759 176.398 73.7732L176.549 74.614L126.717 87.7041L126.876 88.2842C145.947 86.0394 164.741 82.6177 182.629 75.3454L182.26 73.3108C182.612 73.8657 182.964 74.429 183.4 75.1352L185.673 74.9839L186 75.4883C185.052 76.3587 184.022 77.1331 182.922 77.8003C174.804 81.7685 166.15 84.1898 157.369 85.989C148.002 87.9142 138.525 89.3519 129.124 91.1426C126.82 91.6297 124.573 92.3508 122.415 93.2949C121.413 93.8064 120.55 94.5535 119.899 95.4724C116.427 99.8525 111.202 100.18 107.621 95.9011C106.296 94.3206 105.206 94.2953 103.428 94.6905C85.4229 98.6755 69.1031 106.41 53.773 116.549C48.5147 120.013 43.0133 123.107 37.5958 126.319C36.8962 126.641 36.1617 126.881 35.4069 127.033C33.2013 122.418 30.9538 118.105 29.0417 113.649C21.8071 96.896 14.6424 80.1235 7.54761 63.3314C5.3504 58.0685 3.08609 52.8139 1.03145 47.4837C-0.70452 42.9859 -0.570339 42.9522 3.91634 41.1026C5.11558 40.6066 6.23096 39.9256 7.44697 39.5053C8.89781 39.0092 10.4073 38.715 12.0259 38.303C11.1286 36.8738 10.1054 35.2092 9.04037 33.5697C7.05282 30.5263 7.88306 28.7944 11.4472 28.3657C13.0742 28.1723 14.676 27.7183 16.7138 27.2895L13.9631 22.489C15.414 21.3204 16.3113 22.1191 16.9738 23.3297C20.8064 30.5011 25.0163 37.5127 28.3205 44.9279C32.5807 54.5038 35.9269 64.4832 40.0026 74.1516C42.5185 80.0871 45.6466 85.7536 48.4644 91.5546C49.2276 93.1351 50.5945 93.236 51.928 92.9418C55.9869 92.0422 60.0795 91.1931 64.0462 89.9656C70.4114 87.9899 76.6257 85.3921 83.0412 83.6854C89.8006 81.8946 96.6857 82.5672 103.428 84.8288C102.204 84.896 100.988 84.9969 99.7719 85.0221C98.5559 85.0474 97.1889 85.0221 95.8974 85.0221C86.8245 84.8066 77.8009 86.422 69.3631 89.7722C64.8597 91.521 60.1382 92.6223 55.4502 93.9759C55.0823 94.0763 54.7063 94.1438 54.3265 94.1776C49.0934 94.7746 48.6489 94.5139 46.0575 89.974C39.3253 77.9744 33.4621 65.5051 28.5134 52.6626C25.3853 44.6589 21.3347 37.0251 17.7286 29.2064C17.1919 28.0546 16.6551 27.6594 15.2882 28.1471C13.223 28.7778 11.1264 29.2997 9.00683 29.7108C16.6405 41.1536 23.1721 53.2978 28.5134 65.9797C31.935 74.1095 35.2224 82.273 38.6189 90.428C40.9671 96.1057 43.3096 101.781 45.6466 107.453C44.7241 106.536 43.4326 105.771 42.9295 104.687C38.1325 94.0263 33.1678 83.4164 28.8488 72.5542C24.5299 61.692 19.0033 51.536 13.5187 41.2624C12.7891 39.9004 12.0511 39.5809 10.6338 40.2787C8.11788 41.565 5.60199 42.7084 3.16157 43.8518C9.36744 56.7149 15.741 69.578 21.796 82.5252C27.8509 95.4724 33.7884 108.714 39.8517 122.039C40.6903 121.594 41.2438 121.308 41.7973 120.963C51.3577 114.935 60.7001 108.487 70.5456 102.972C80.5337 97.3724 91.5114 94.0263 102.749 91.8909C104.42 91.7092 106.103 91.6642 107.781 91.7564L107.73 91.6387ZM177.102 65.5762C163.894 45.012 150.576 25.0112 143.557 1.94165C120.276 3.53902 99.1094 11.1896 77.8584 20.1938C89.9347 42.5571 101.743 64.4328 113.601 86.4093C118.104 83.1725 123.555 81.0035 129.283 79.4902C138.793 76.968 148.337 74.614 157.797 71.9236C164.162 70.0656 170.401 67.762 177.102 65.5762Z" fill="white"/>
<path d="M113.735 112.834C111.471 113.792 109.274 114.944 106.942 115.667C96.7278 118.803 86.4882 121.813 76.2569 124.865C75.977 124.986 75.6721 125.038 75.3679 125.016C74.4873 124.78 73.6319 124.469 72.7598 124.175C73.1875 123.376 73.4055 122.183 74.0596 121.863C76.8508 120.407 79.7567 119.184 82.7479 118.206C90.6561 115.869 98.6064 113.674 106.607 111.69C108.762 111.161 111.161 111.615 113.442 111.615C113.542 112.035 113.635 112.43 113.735 112.834ZM109.492 113.296C109.131 112.893 108.88 112.329 108.586 112.304C104.829 112.001 76.2652 121.611 74.6383 123.872L109.492 113.296Z" fill="white"/>
<path d="M45.6802 107.454C46.8432 107.105 47.9674 106.637 49.0348 106.058C51.8006 104.306 54.4506 102.377 56.9682 100.282C62.5283 95.3891 69.1451 92.7156 76.1812 91.3116C83.3935 89.9076 90.765 89.378 98.0779 88.5288C99.0537 88.5107 100.029 88.5924 100.988 88.7726C100.988 89.0501 100.988 89.3191 100.988 89.6134L90.8825 91.1267C81.255 92.5727 71.6359 94.1533 62.8051 98.5335C60.2892 99.7693 58.1088 101.611 55.7438 103.124C52.8002 104.99 49.8734 106.831 46.8543 108.614C46.4937 108.832 45.8815 108.614 45.3867 108.614C45.4874 108.227 45.5964 107.84 45.697 107.454H45.6802Z" fill="white"/>
<path d="M49.6638 70.882C51.3411 70.5289 53.0687 70.2431 54.7459 69.7975C61.3963 68.0488 67.946 65.7536 74.697 64.6355C80.0307 63.7443 85.5992 64.2151 91.0587 64.2151C92.4843 64.2151 93.7842 64.812 93.281 67.3174C93.1217 64.9465 91.7631 65.0474 90.4884 65.081C81.1041 65.3417 71.7785 65.9218 62.7045 68.7718C58.5114 70.1002 54.0918 70.6382 49.7728 71.5294L49.6638 70.882Z" fill="white"/>
<path d="M36.1451 44.3655C36.5225 44.3655 36.9837 44.5757 37.2605 44.3655C40.7911 41.9022 45.152 43.9788 48.8587 42.1965C49.949 41.6752 51.6011 41.9274 52.8674 42.2805C55.2323 42.9195 57.3037 42.2385 59.4506 41.5071C60.6299 41.1338 61.8437 40.8803 63.0735 40.7504C64.9353 40.515 66.8138 40.3973 68.684 40.2544C69.5733 40.1358 70.4713 40.0965 71.3676 40.1367C73.2042 40.3048 74.9486 40.8933 76.7684 39.565C77.3638 39.1362 78.9572 40.0778 80.1229 40.4057C74.9653 40.9606 69.9839 42.2721 65.1785 41.8013C59.9958 41.2969 55.4588 44.7523 50.2928 43.2726C49.1271 42.9363 47.6595 43.7182 46.3261 43.9704C45.5881 44.1049 44.8501 44.2058 44.1121 44.3235C42.1497 44.6262 40.1873 44.9793 38.2417 45.2063C37.4966 45.2192 36.752 45.1573 36.0193 45.0213L36.1451 44.3655Z" fill="white"/>
<path d="M32.7654 36.6392C36.3128 36.4879 39.986 36.8578 43.3741 36.0423C47.9698 34.9241 52.599 35.5547 57.1528 34.7728C59.5932 34.3525 61.933 33.5285 64.4657 34.3525C65.1785 34.5794 66.101 34.2179 66.9145 34.0666C70.2103 33.4613 73.5061 32.8223 76.8019 32.2002L76.9026 32.7803C72.9275 33.6967 68.8349 35.6892 64.994 35.3025C60.2557 34.798 55.9284 36.8074 51.2992 36.1936C49.5213 35.9582 47.6092 36.9335 45.7474 36.9671C41.7052 37.0512 37.6462 36.5804 33.6376 37.5724C33.3776 37.6397 33.0254 37.3622 32.7151 37.2445L32.7654 36.6392Z" fill="white"/>
<path d="M75.8793 75.6651L53.8737 79.1036L53.7898 78.5404C61.0104 76.5142 68.4155 75.808 75.829 75.085L75.8793 75.6651Z" fill="white"/>
<path d="M107.806 91.7404L105.927 90.3279C108.2 89.0669 109.852 89.6722 110.347 92.0094C110.783 94.1196 112.301 94.2878 113.945 94.1785C114.716 94.0276 115.468 93.7878 116.184 93.4638C114.448 96.0533 112.586 96.8268 110.733 95.5909C109.986 95.078 109.659 93.9683 109.056 93.1696C108.653 92.6147 108.158 92.1355 107.705 91.6227L107.806 91.7404Z" fill="white"/>
<path d="M73.8918 48.5518L83.729 46.4248L83.8716 47.1478L73.9589 49.0479L73.8918 48.5518Z" fill="white"/>
<path d="M58.092 50.9479L65.7152 49.9727L65.8075 50.7209L58.1927 51.6625L58.092 50.9479Z" fill="white"/>
<path d="M52.5068 52.9662L44.6152 53.748C47.2485 52.5038 49.8231 51.4108 52.5068 52.9662Z" fill="white"/>
<path d="M89.4568 26.0121C95.4278 17.8571 130.491 7.40686 139.364 10.7698C123.95 9.92904 110.079 15.5955 96.5013 22.355C94.2454 23.4815 92.023 24.6754 89.4568 26.0121Z" fill="white"/>
<path d="M127.623 33.4941C127.548 33.8977 127.623 34.4273 127.371 34.6627C126.948 34.983 126.471 35.225 125.963 35.3774C120.64 37.5745 115.306 39.794 109.961 42.0359C108.678 42.574 107.446 43.1961 106.154 43.7846L105.844 43.2213C107.32 42.4479 108.787 41.6492 110.288 40.9093C112.226 39.9509 114.155 38.9589 116.159 38.1265C118.557 37.1177 121.023 36.2853 123.447 35.3353C124.856 34.7804 126.239 34.1499 127.64 33.553L127.623 33.4941Z" fill="white"/>
<path d="M158.644 48.5687L140.63 53.2936C143.062 50.99 156.564 47.5094 158.644 48.5687Z" fill="white"/>
<path d="M119.924 47.5179C121.571 46.4945 123.283 45.579 125.048 44.7772C129.476 43.0957 133.98 41.5656 138.592 40.2793C135.238 41.7926 131.841 43.3564 128.428 44.8024C126.097 45.7776 123.698 46.61 121.316 47.4507C120.836 47.5307 120.346 47.5307 119.865 47.4507L119.924 47.5179Z" fill="white"/>
<path d="M164.648 65.1147L145.871 70.159L145.67 69.3183L164.497 64.543L164.648 65.1147Z" fill="white"/>
<path d="M121.442 42.8771L105.45 50.0149C105.332 49.7458 105.215 49.4684 105.106 49.1741L121.233 42.3643C121.3 42.5156 121.367 42.6837 121.442 42.8771Z" fill="white"/>
<path d="M128.218 60.4141C127.609 60.9363 126.918 61.3539 126.172 61.6499C122.499 62.2341 119.094 63.9364 116.419 66.5261C116.097 66.8041 115.724 67.0155 115.32 67.1483C115.194 67.1483 114.968 66.9465 114.943 66.9297C118.39 62.7261 123.203 61.3557 128.26 60.4561L128.218 60.4141Z" fill="white"/>
<path d="M127.615 33.5115C130.189 32.4018 132.747 31.2416 135.347 30.1991C137.181 29.4492 139.103 28.9351 141.066 28.6689C139.389 29.3079 137.712 29.8964 136.034 30.611C133.703 31.6115 131.414 32.7465 129.074 33.7301C128.688 33.8899 128.109 33.5872 127.631 33.5031L127.615 33.5115Z" fill="white"/>
<path d="M126.466 71.3941L136.303 66.417C136.462 66.7281 136.613 67.0475 136.764 67.3586L126.835 72.1423C126.709 71.9069 126.583 71.6547 126.466 71.3941Z" fill="white"/>
<path d="M135.665 35.31L144.37 32.0732C144.471 32.3339 144.572 32.6029 144.664 32.914L135.959 36.1676C135.858 35.8145 135.766 35.5454 135.665 35.31Z" fill="white"/>
<path d="M119.857 47.4502C119.271 48.1798 118.581 48.8198 117.811 49.3502C114.876 50.7711 111.865 52.0237 108.88 53.3437L108.628 52.8392L119.924 47.5175L119.857 47.4502Z" fill="white"/>
<path d="M96.6355 37.0344L106.154 32.6963C104.963 34.5963 98.1199 37.6398 96.6355 37.0344Z" fill="white"/>
<path d="M134.281 37.1512L125.358 40.5562L125.09 39.8415L134.114 36.7393L134.281 37.1512Z" fill="white"/>
<path d="M146.391 36.6643L139.54 40.229C141.62 38.6736 143.297 36.1515 146.391 36.6643Z" fill="white"/>
<path d="M128.26 60.4566C128.868 59.475 129.745 58.6893 130.786 58.1929C131.826 57.6966 132.987 57.5106 134.131 57.657L128.21 60.4146L128.26 60.4566Z" fill="white"/>
</g>
<defs>
<clipPath id="clip0">
<rect width="186" height="127" fill="white"/>
</clipPath>
</defs>
</svg>
