<svg width="32" height="32" viewBox="0 0 32 32" fill="none" xmlns="http://www.w3.org/2000/svg">
<path d="M0 16C0 7.16344 7.16344 0 16 0C24.8366 0 32 7.16344 32 16C32 24.8366 24.8366 32 16 32C7.16344 32 0 24.8366 0 16Z" fill="#024A75"/>
<path d="M11.3522 26.3085C11.3522 26.2388 11.3412 26.169 11.337 26.1008C11.2942 25.1222 11.2666 24.1421 11.1989 23.1667C11.0995 21.6125 10.9227 20.0646 11.0373 18.5008C11.1036 17.6254 11.2279 16.7658 11.5566 15.9633C11.6381 15.765 11.7099 15.4986 11.9585 15.5493C12.207 15.6001 12.1918 15.8665 12.207 16.0775C12.2623 16.8038 12.2954 17.5334 12.3382 18.2978C12.4266 17.5048 12.468 16.7119 12.6144 15.9617C12.8022 14.9609 13.0494 13.9729 13.3132 12.9943C13.4258 12.6491 13.5872 12.3276 13.791 12.0428C13.8374 11.9819 13.8959 11.9348 13.9616 11.9055C14.0272 11.8762 14.098 11.8657 14.168 11.8746C14.23 11.9128 14.2829 11.968 14.3219 12.0352C14.3609 12.1024 14.3849 12.1796 14.3918 12.26C14.3918 12.8167 14.3531 13.3702 14.3269 13.9301C14.313 14.0655 14.313 14.2023 14.3269 14.3377C14.4263 13.8286 14.5216 13.3179 14.6265 12.812C15.0291 10.7919 15.7907 8.88913 16.8637 7.223C16.9906 7.01735 17.1369 6.82851 17.3001 6.65999C17.5225 6.44271 17.7724 6.55531 17.7848 6.88837C17.7993 7.20146 17.7728 7.51528 17.7061 7.81933C17.4092 9.10713 17.0861 10.3886 16.7781 11.6732C16.6917 12.0239 16.6325 12.3827 16.6013 12.7453C16.6386 12.6708 16.6801 12.5979 16.7118 12.5201C17.1344 11.5146 17.5404 10.4996 17.9782 9.5068C18.5016 8.30463 19.083 7.12785 19.8729 6.13186C20.1276 5.82645 20.3959 5.53636 20.6766 5.26275C20.7696 5.15391 20.8823 5.06997 21.0067 5.01692C21.1448 4.97093 21.345 4.92969 21.4389 5.01692C21.4892 5.08031 21.5257 5.15647 21.5454 5.23918C21.5651 5.32189 21.5674 5.40877 21.5522 5.49271C21.464 5.90313 21.3385 6.3018 21.1779 6.68219C20.5827 8.03185 19.9585 9.36406 19.3523 10.709C19.0761 11.3085 18.8289 11.9191 18.572 12.5281C18.5037 12.6876 18.4571 12.8582 18.4339 13.034C18.4821 12.9898 18.5282 12.9427 18.572 12.8928C19.0498 12.2711 19.5139 11.6352 20.0069 11.0293C20.4074 10.5361 20.8355 10.0777 21.2649 9.61147C21.4238 9.44019 21.6171 9.27683 21.8546 9.45288C22.0093 9.56707 22.0507 9.85571 21.9292 10.1761C21.8258 10.4864 21.6864 10.7792 21.5149 11.0468C21.0684 11.6727 20.603 12.2807 20.1187 12.8706C19.5912 13.505 19.0346 14.1236 18.4947 14.7516C18.3754 14.89 18.2815 15.0545 18.2185 15.2353L18.4947 15.0767C19.2597 14.639 20.0234 14.1997 20.7926 13.7699C20.9268 13.6957 21.0712 13.649 21.2194 13.6319C21.2637 13.6191 21.3102 13.6192 21.3545 13.6322C21.3988 13.6451 21.4396 13.6705 21.4733 13.706C21.507 13.7415 21.5325 13.7861 21.5474 13.8357C21.5624 13.8854 21.5664 13.9385 21.5591 13.9903C21.5365 14.2129 21.4678 14.4261 21.3588 14.612C21.1055 15.0141 20.8178 15.386 20.4999 15.7222C19.518 16.6976 18.4753 17.5762 17.2725 18.1741C17.0279 18.3015 16.7928 18.4516 16.5696 18.6229C17.006 18.4818 17.4382 18.3311 17.8774 18.2074C18.0461 18.1662 18.2192 18.1533 18.3911 18.1694C18.8344 18.1963 19.094 18.5912 18.9352 19.067C18.8408 19.3706 18.6778 19.6399 18.4629 19.8473C18.0787 20.1717 17.6669 20.4507 17.2338 20.6799C16.5806 21.032 15.9039 21.3254 15.2411 21.6521C15.0711 21.7386 14.9173 21.8619 14.7881 22.0153C14.8806 22.0101 14.9728 21.9995 15.0643 21.9836C15.3723 21.9154 15.6788 21.8377 15.9854 21.7679C16.0627 21.7497 16.1413 21.7402 16.2202 21.7394C16.455 21.7394 16.6883 21.7647 16.8016 22.0455C16.9148 22.3262 16.7602 22.5308 16.6041 22.6798C16.2768 23.0113 15.955 23.3729 15.5766 23.6092C14.8061 24.085 14.0078 24.5148 13.2082 24.9319C12.7307 25.1636 12.2945 25.4942 11.9212 25.9073C11.7619 26.0725 11.593 26.2251 11.4157 26.3641L11.3522 26.3085Z" fill="#00BE88"/>
<path d="M11.297 27.4164C12.0618 22.124 16.5962 18.9222 16.9993 13.4616C17.0165 13.2242 16.7134 13.2259 16.6948 13.4616C16.2946 18.8546 11.7616 22.0599 11.0026 27.3176C10.9697 27.5499 11.2642 27.6505 11.297 27.4164Z" fill="#00BE88"/>
</svg>
