<svg width="206" height="155" viewBox="0 0 206 155" fill="none" xmlns="http://www.w3.org/2000/svg">
<g clip-path="url(#clip0)">
<path d="M169.475 131.681C169.428 134.234 169.239 136.713 168.075 139.111C167.05 141.072 165.647 142.812 163.947 144.231C158.438 149.175 151.745 151.473 144.695 153.112C136.123 155.128 127.47 155.128 118.736 154.839C110.945 154.557 103.309 153.133 95.6594 151.923C90.4677 151.097 85.3298 149.787 80.6431 147.113C78.3603 145.816 75.7543 145.097 73.4446 143.854C70.5378 142.263 67.7128 140.528 64.9803 138.654C61.9231 136.578 61.2363 132.379 62.7783 129.034C64.1251 126.064 66.6166 124.109 69.2832 122.376L71.438 120.992C70.0912 120.864 69.4178 120.723 68.6906 120.736C62.8857 120.939 57.094 120.057 51.6137 118.136C44.1594 115.449 37.1967 111.962 31.4999 106.359C29.5086 104.378 27.6843 102.237 26.0455 99.9564C25.6994 99.4477 25.2274 99.0369 24.6752 98.7638C24.123 98.4907 23.5095 98.3646 22.8941 98.3978C20.9433 98.3714 19.0022 98.1189 17.1098 97.6453C14.5644 96.9264 12.7396 95.099 11.2043 92.9424C9.49389 90.6224 7.75208 88.3068 5.97885 85.9956C5.2314 85.0147 4.36948 84.1279 3.55469 83.1941C5.41321 84.7796 7.39294 86.2442 9.07639 87.991C10.6521 89.6236 11.8709 91.5853 13.3052 93.3657C16.7798 97.6588 21.5541 98.8546 26.665 96.7652C27.197 96.5502 27.7694 96.4159 28.3283 96.2412L26.8334 98.1693C34.3887 109.678 53.1962 119.09 62.28 118.506V117.303C62.2329 113.897 62.0107 110.477 62.1858 107.085C62.3878 102.946 62.5427 98.727 65.317 95.2334C65.4382 95.0789 65.3978 94.7967 65.4449 94.4675C61.1622 94.7766 57.526 96.2815 55.0143 99.681C53.6675 101.488 52.1861 101.697 50.341 101.092C48.1593 100.42 45.9775 99.6877 43.8429 98.8479C38.833 96.8727 33.4123 97.5042 28.2812 96.3016C28.0654 96.0506 27.8214 95.8251 27.5539 95.6298C24.7122 93.9771 21.8571 92.3445 19.0761 90.7455C18.4987 90.8966 17.8982 90.9399 17.3051 90.8732C16.5956 90.5903 15.9363 90.1956 15.3523 89.7042C13.5005 88.4075 13.1369 87.1579 14.1469 85.129C14.5026 84.2653 15.0561 83.4968 15.763 82.885C19.5542 80.1977 23.352 77.4297 27.3115 74.9707C28.3038 74.2821 29.4882 73.9225 30.6969 73.943C31.9055 73.9635 33.077 74.3631 34.0453 75.085C35.2154 75.8179 36.4223 76.4906 37.6613 77.1005C36.8667 73.3516 36.557 70.1134 34.2203 67.5268C33.6014 66.7607 33.0237 65.9623 32.4898 65.135C36.8533 68.0239 38.5502 72.3237 38.8532 77.7454L40.9272 76.6839L41.3245 77.0467C41.4524 77.4633 41.4794 78.1553 41.7285 78.2493C43.513 78.9212 44.651 78.2963 45.0954 76.3279C45.3231 75.0266 45.9025 73.8121 46.7711 72.8152C47.6398 71.8183 48.7647 71.0769 50.0245 70.671C51.6743 70.0663 53.3039 69.4012 55.351 68.6084L47.2031 62.7366C46.6509 65.1485 45.1829 65.8203 43.2302 65.6255L43.1628 65.565C44.9069 65.135 45.9843 64.1071 46.2132 61.9236C43.311 59.9887 40.2808 57.9598 37.2371 55.951C35.9913 55.1246 35.9779 55.1381 35.924 53.3174C38.5771 55.0104 41.0753 56.5758 43.5399 58.1815C45.3244 59.3438 47.0078 60.674 48.8529 61.7221C51.626 63.2365 54.0995 65.2422 56.1523 67.641C56.8661 68.4942 57.499 68.9847 58.563 67.641C57.5597 66.8885 56.5428 66.1293 55.5732 65.3903C50.2333 61.4668 44.9203 57.4828 39.5266 53.613C38.5569 52.9411 37.2438 52.706 35.9913 52.2693C36.1597 51.0197 37.0957 51.0264 37.8566 51.3287C39.1985 51.8497 40.4862 52.5 41.7016 53.2703C43.6274 54.4998 45.4523 55.8771 47.1223 57.0528C48.5566 55.4941 49.9235 54.1572 51.1222 52.6858C52.3208 51.2145 53.2231 49.4812 52.5767 47.5127C51.9302 45.5442 52.5767 44.0326 53.9234 42.6486C54.1781 42.4237 54.4166 42.1812 54.6372 41.923C55.4654 40.7741 55.3106 40.1359 54.0783 39.4842C53.7012 39.2894 53.2568 39.2155 52.8864 39.0139C51.4925 38.2883 50.8663 37.1059 51.4992 35.6211C52.6777 32.786 52.1726 30.1524 51.0616 27.4583C49.9505 24.7642 48.9337 21.9223 47.8091 18.8453C48.3774 19.0274 48.8932 19.3435 49.3129 19.7669C49.7326 20.1903 50.0437 20.7084 50.2198 21.2774C51.4992 24.1461 52.7113 27.0619 53.7349 30.0113C54.3078 31.9129 54.1958 33.9545 53.4184 35.7824C52.9133 37.126 53.351 37.8987 54.4756 38.51C54.6237 38.5974 54.7584 38.7049 54.9065 38.7922C57.4923 40.3912 57.4923 40.4046 55.5799 42.7023C55.0906 43.2289 54.7144 43.8498 54.4747 44.5269C54.235 45.204 54.1367 45.9229 54.186 46.6393C54.3611 49.152 53.7551 51.6176 51.7955 53.3577C51.0377 53.9883 50.4139 54.7636 49.9606 55.6382C49.5073 56.5127 49.2337 57.4687 49.1559 58.4502C49.7148 58.9138 50.4084 59.5184 51.1356 60.0895C53.8291 62.1856 56.6169 64.1205 59.1556 66.4048C60.3347 67.4787 61.8062 68.18 63.3844 68.4203C65.8405 68.7903 68.1852 69.6939 70.2528 71.0674C71.061 71.5371 71.8951 71.961 72.7511 72.3371C73.9834 71.0338 75.2897 69.8043 76.4008 68.4136C77.1698 67.5012 77.751 66.4464 78.1112 65.3097C79.3884 60.9522 79.7889 56.3856 79.2896 51.8729C78.6633 46.5385 78.2324 41.2041 78.8249 35.8294C78.8162 35.2375 78.7645 34.6469 78.6701 34.0625C78.5758 32.0201 78.4972 29.9777 78.4344 27.9353C78.4033 27.5096 78.5085 27.085 78.7348 26.7228C78.9611 26.3606 79.2969 26.0794 79.6936 25.9198C85.0806 23.4272 89.6394 19.6918 94.5079 16.4065C95.3025 15.8758 96.0702 14.9889 97.2419 15.6339C96.1038 17.9518 86.1715 24.6903 80.1986 27.1761V32.0134C84.5886 30.6239 88.7281 28.5442 92.4609 25.8526C96.1038 23.1182 99.5448 20.1285 103.235 17.1187C103.392 17.6715 103.409 18.2547 103.283 18.8155C103.157 19.3763 102.893 19.8969 102.514 20.3301C100.07 23.8572 96.7234 26.3766 92.9928 28.2779C88.9526 30.3942 84.7305 32.309 80.1986 34.4656C80.3535 39.5917 80.4478 45.0336 80.6902 50.4621C80.872 54.7215 81.1077 58.9743 80.2054 63.18C79.6801 65.6188 78.8115 67.8829 76.7442 69.5423C75.6602 70.5562 74.654 71.6499 73.7342 72.8141C74.246 75.5015 75.0271 77.7992 77.559 78.9883C79.202 82.5222 82.9056 83.7718 85.5789 86.1636C90.9054 90.9202 96.4001 95.4887 101.875 100.084C104.407 102.207 107.053 104.202 109.645 106.258C110.064 106.204 110.445 105.989 110.706 105.659C110.968 105.329 111.09 104.91 111.046 104.491C111.289 100.165 111.686 95.8448 112.11 91.5316C112.447 88.1724 112.985 84.8132 113.295 81.4137C113.874 75.1118 114.992 68.9376 117.484 63.0993C119.403 58.598 120.48 53.875 121.47 49.1385C122.238 45.4703 124.103 42.3597 125.706 39.0609C127.14 36.1317 129.672 34.4588 132.022 32.5374C132.711 31.9552 133.523 31.5361 134.398 31.3116C135.273 31.087 136.187 31.0628 137.072 31.2407C138.944 31.5901 139.833 32.8935 139.294 34.7477C138.86 36.2167 138.341 37.6591 137.739 39.0677C135.752 43.6765 136.244 47.9023 139.759 51.5639C140.923 52.7622 141.823 54.1895 142.403 55.7547C142.983 57.3198 143.229 58.9884 143.126 60.6539C142.978 64.3893 144.688 67.1707 147.166 70.0596C148.158 69.1753 149.084 68.2187 149.934 67.1976C151.269 65.2406 152.942 63.5366 154.876 62.1655C155.956 61.3334 156.962 60.412 157.886 59.411C161.112 56.3596 164.979 54.0645 169.206 52.6926C172.007 51.752 174.68 50.4016 177.65 49.1318C176.633 45.8129 175.839 42.6083 174.68 39.5379C172.533 34.072 169.825 28.8419 166.6 23.9311C164.735 21.0019 162.371 18.3952 160.27 15.607C158.068 12.6711 157.651 9.08348 156.432 5.78475L157.011 5.48242C157.62 6.30891 158.145 7.1933 158.58 8.12275C160.209 12.7047 163.112 16.4468 166.162 20.1487C170.599 25.5603 173.844 31.8441 175.684 38.5907C176.505 41.54 177.434 44.4491 178.31 47.3783C178.4 47.7493 178.615 48.0782 178.919 48.3104C179.223 48.5426 179.597 48.6641 179.98 48.6548C181.075 48.7358 182.149 48.9969 183.158 49.4274C185.05 50.3075 185.852 51.8864 185.69 54.0026C185.192 60.5396 184.774 67.0834 184.263 73.6204C184.155 74.964 183.737 76.2405 183.508 77.5573C183.432 77.9658 183.432 78.385 183.508 78.7935C184.702 84.5493 185.017 90.4519 184.444 96.3016C184.168 99.4727 184.795 102.731 185.118 105.936C185.266 107.454 185.677 108.946 185.946 110.451C186.188 111.794 186.68 112.822 188.087 113.346C189.602 113.911 190.99 114.838 192.532 115.308C194.431 115.892 195.461 116.947 195.333 119.09C197.353 119.494 198.121 120.972 198.962 122.624C199.862 124.358 201.048 125.927 202.471 127.267C205.71 130.344 206.578 133.985 205.696 138.204C205.509 139.547 205.182 140.866 204.72 142.141C203.71 144.399 202.121 144.553 200.74 142.477C199.643 140.838 199.089 138.897 199.158 136.928C199.205 135.396 199.198 133.857 199.097 132.332C198.965 131.706 198.755 131.099 198.471 130.525H197.885C197.616 132.379 197.286 134.227 197.097 136.095C196.808 138.883 196.781 141.718 195.67 144.358C194.491 147.153 191.373 148.033 189.212 146.018C188.491 145.346 188.235 144.13 187.906 143.115C187.639 142.154 187.428 141.178 187.273 140.193H187.313C188.35 137.156 189.333 134.106 190.451 131.096C190.912 129.897 191.598 128.795 192.471 127.851C192.013 130.189 191.65 132.554 191.084 134.845C190.458 137.411 189.629 139.904 189.858 142.612C190.087 145.319 190.794 145.883 193.656 145.682C195.057 143.351 195.117 140.677 195.441 138.077C195.804 135.208 196.175 132.339 196.343 129.457C196.32 127.947 196.173 126.442 195.905 124.956L197.252 125.863C197.585 124.667 197.467 123.39 196.92 122.276C196.372 121.161 195.434 120.286 194.282 119.816C194.626 117.612 193.454 116.457 191.333 115.94C190.436 115.673 189.573 115.303 188.761 114.838C185.98 113.413 183.05 113.494 179.825 114.22C180.768 113.192 180.781 113.239 182.215 113.017C183.097 112.828 183.967 112.588 184.821 112.298C184.438 110.713 184.087 109.329 183.784 107.945C182.714 103.154 183.071 98.2836 182.976 93.4396C182.923 90.7993 183.057 88.1522 182.896 85.5253C182.708 83.6678 182.407 81.8235 181.993 80.0028C181.677 78.2762 181.32 76.563 180.875 74.4266C180.236 73.8622 179.111 74.1645 178.094 74.4937C175.502 75.3268 172.936 76.2405 170.384 77.1811C167.444 78.3598 164.833 80.2316 162.775 82.6364C162.399 82.9855 162.13 83.4348 162.001 83.9312C161.872 84.4276 161.888 84.9505 162.048 85.438C163.475 89.7915 164.741 94.1719 166.337 98.4986C168.041 103.161 169.367 107.904 169.529 112.856C169.596 114.764 169.239 115.106 167.26 115.597C165.536 116.027 164.849 116.564 164.849 118.284C164.849 122.47 165.287 126.602 166.99 130.505C167.475 131.607 168.243 131.781 169.28 131.439L169.475 131.681ZM87.323 90.1006C88.6024 91.3099 89.8078 92.5931 91.168 93.7016C92.8986 95.1058 94.7436 96.389 96.555 97.6991L96.9658 97.1616C93.9086 94.837 90.8515 92.5169 87.7943 90.2013C87.6799 90.114 87.4644 90.161 87.2961 90.1476C85.9599 88.7749 84.5288 87.4976 83.0134 86.3248C81.5185 85.3036 80.4074 83.5972 78.2997 83.4897C81.0463 86.0247 84.0657 88.2486 87.3028 90.1207L87.323 90.1006ZM103.255 132.615C103.989 132.756 104.763 133.105 105.444 132.977C105.792 132.907 106.122 132.764 106.412 132.558C106.702 132.352 106.946 132.087 107.127 131.781C107.767 130.176 108.144 128.463 108.629 126.77C105.652 124.472 103.578 124.902 101.801 128.254C102.285 129.712 103.888 130.814 103.275 132.648L99.464 131.392C97.5651 132.796 100.023 134.395 98.959 135.92L102.043 135.443V133.266L103.255 132.615ZM110.959 125.003C111.814 125.674 113.369 125.627 113.396 127.247C109.524 126.971 107.888 128.973 108.615 133.132C111.309 133.488 111.982 131.163 113.329 129.356C113.47 130.189 113.558 130.733 113.692 131.54L120.15 124.452L113.167 122.436C112.4 123.108 112.676 124.586 111.289 124.002C111.181 124.351 111.08 124.673 110.972 125.05C109.874 124.183 108.635 124.069 106.723 124.19C107.807 124.862 108.4 125.305 109.039 125.641C109.203 125.734 109.384 125.792 109.571 125.811C109.758 125.831 109.947 125.81 110.126 125.752C110.305 125.694 110.47 125.599 110.61 125.473C110.75 125.348 110.862 125.194 110.938 125.023L110.959 125.003ZM93.5113 142.9C90.6495 142.262 89.9896 140.804 90.6293 136.578L89.3229 135.168C92.0164 134.865 94.7571 132.185 95.6392 128.913C94.8514 129.054 94.1039 129.155 93.3767 129.336C92.7202 129.516 92.0767 129.741 91.4508 130.008C89.6327 130.76 88.9324 132.023 89.1882 134.005C89.2421 134.422 89.3095 134.832 89.3701 135.248C87.7809 134.744 87.6327 133.441 87.855 132.151C88.1378 130.512 88.892 128.987 90.636 128.489C92.6562 127.912 94.7638 127.562 97.0937 127.058C97.4977 125.715 97.9624 124.143 98.5886 122.053C98.9657 123.249 99.1677 123.887 99.5246 125.036C100.567 123.73 101.692 122.492 102.892 121.328C104.703 119.789 106.083 119.984 107.188 121.731C108.292 123.478 109.087 123.585 110.339 122.033C111.012 121.18 111.686 120.273 111.093 119.017C110.973 118.579 110.93 118.125 110.965 117.673L111.309 117.579C111.625 118.291 111.935 119.003 112.352 119.957C114.473 118.179 117.189 117.267 119.955 117.404C124.177 117.505 126.736 117.848 128.157 118.936C126.049 118.936 124.177 118.996 122.312 118.936C120.446 118.875 118.588 118.593 116.541 119.258C117.4 119.643 118.228 120.092 119.019 120.602C121.551 122.584 122.507 122.759 125.295 121.173C127.451 119.905 130.01 119.502 132.453 120.044C132.992 120.159 133.557 120.172 134.325 120.253C134.251 118.721 134.183 117.397 134.109 116.007C132.446 115.845 130.992 115.805 129.577 115.55C123.82 114.495 118.002 114.878 112.204 114.764C111.659 114.748 111.118 114.869 110.631 115.116C110.144 115.362 109.726 115.726 109.417 116.175C108.514 117.263 107.228 118.015 106.144 118.956C104.319 120.542 102.218 119.87 100.265 119.534C99.5919 119.413 98.9994 118.304 98.5347 117.518C98.3231 116.959 98.2048 116.369 98.1846 115.772C97.2022 115.762 96.2205 115.829 95.2486 115.973C89.8616 117.223 84.4746 118.499 79.0876 119.843C74.7048 120.999 70.6354 123.115 67.1755 126.037C65.4962 127.508 64.239 129.398 63.5325 131.513C62.5561 134.059 63.8894 137.062 66.2866 138.493C70.7923 141.278 75.5039 143.717 80.3805 145.789C83.6059 147.133 86.8516 148.584 90.232 149.263C96.5752 150.539 103.026 151.218 109.423 152.273C115.318 153.248 121.304 153.552 127.268 153.18C133.591 152.803 139.887 152.508 146.042 150.969C149.191 150.243 152.282 149.282 155.287 148.094C159.435 146.367 162.748 143.297 165.94 140.24C166.824 139.362 167.519 138.313 167.982 137.158C168.445 136.003 168.667 134.765 168.633 133.522C164.728 132.279 164.64 128.819 164.021 125.916C155.422 120.81 146.163 118.096 136.19 116.477C136.969 120.124 138.775 123.473 141.395 126.131C142.416 127.149 143.357 128.243 144.21 129.403C145.792 131.627 145.631 133.434 143.853 135.396C143.476 135.725 143.157 136.116 142.91 136.552C142.439 137.788 142.149 139.084 141.678 140.314C141.423 141.138 140.864 141.835 140.115 142.265C139.365 142.695 138.48 142.826 137.638 142.632C136.83 142.511 136.035 142.329 135.052 142.135C135.14 142.887 135.241 143.377 135.261 143.868C135.355 146.166 134.19 147.489 131.894 147.361C129.2 147.207 126.803 146.246 125.248 143.821C125.982 144.204 126.749 144.533 127.443 144.976C128.759 145.765 130.29 146.122 131.82 145.998C133.167 145.957 133.678 144.956 134.143 143.982C134.608 143.008 133.981 142.262 133.288 141.563C132.291 140.562 131.382 139.481 130.412 138.399C127.046 138.587 125.234 139.615 123.861 142.242L125.295 143.888C124.699 143.612 124.133 143.276 123.605 142.887C121.989 141.429 122.022 140.515 123.867 139.266C125.497 138.157 127.234 137.217 129.072 136.122C125.941 133.945 124.877 131.17 126.446 127.724C123.254 125.567 122.015 125.634 120.426 127.945C124.244 130.942 125.194 133.427 123.793 136.558C123.162 137.968 122.08 139.128 120.716 139.857C118.44 141.127 116.137 140.609 113.982 139.911C113.012 140.999 112.231 142.02 111.289 142.887C109.942 144.157 109.1 144.096 107.309 142.84C109.896 141.843 111.983 139.865 113.113 137.338L103.686 135.826C102.905 137.808 104.258 139.078 104.703 140.529C102.757 140.112 103.087 137.888 101.841 136.928C99.6256 137.156 99.7064 137.183 98.9657 139.205C98.5645 140.308 97.9819 141.337 97.2419 142.249C96.1779 143.539 95.2217 143.592 93.5181 142.847C94.8648 142.847 95.6796 142.121 96.3193 141.013C97.9085 138.238 97.8816 135.436 96.5213 132.138C95.5045 133.354 94.6426 134.341 93.8278 135.369C91.5787 138.204 91.5114 140.092 93.5113 142.9ZM121.207 98.559L121.51 99.2309C120.311 99.7848 119.146 100.411 118.022 101.105C116.5 102.174 114.602 103.121 113.773 104.653C112.427 107.105 111.396 109.873 111.834 112.997C112.228 113.078 112.63 113.119 113.033 113.118C119.133 112.5 125.106 113.514 131.093 114.461C132.083 114.539 133.078 114.539 134.069 114.461C134.217 113.407 134.345 112.533 134.466 111.667C135.052 111.982 135.429 112.392 135.416 112.782C135.321 114.656 136.392 115.221 138.022 115.55C141.044 116.072 144.029 116.79 146.957 117.7C152.466 119.581 158.162 120.992 163.543 123.941C163.388 122.651 163.24 121.57 163.139 120.488C162.822 116.907 163.92 115.301 167.3 114.314C167.448 114.273 167.549 114.092 167.974 113.689C167.367 110.404 166.997 106.829 166.001 103.443C164.708 99.0495 162.91 94.8102 161.287 90.4566C159.179 90.0737 159.105 90.1274 157.671 88.2194C155.274 85.0147 152.897 81.7966 150.674 78.4777C149.132 76.1733 147.052 74.131 146.688 71.1547C146.688 70.886 146.048 70.7113 145.739 70.4829C142.681 67.8963 140.682 64.7789 140.796 60.6001C140.884 57.167 140.163 54.0026 137.618 51.4698C137.391 51.2147 137.184 50.943 136.998 50.6569C134.507 47.17 133.739 43.3943 135.092 39.2759C135.705 37.4217 136.439 35.6077 137.045 33.74C137.193 33.2563 137.153 32.3963 136.85 32.1746C136.593 32.0631 136.314 32.0112 136.034 32.0228C135.754 32.0345 135.481 32.1093 135.234 32.2418C131.564 34.17 128.089 36.3736 126.527 40.4785C124.965 44.5835 123.483 48.7757 122.069 52.9546C120.844 56.5758 119.935 60.3448 118.581 63.8787C116.628 69.0317 115.888 74.4131 115.073 79.8013C114.258 85.1894 113.565 90.4096 112.783 95.7104C112.444 98.1993 112.367 100.717 112.554 103.222C115.396 101.078 117.612 98.4448 121.207 98.5657V98.559ZM54.7988 84.4504C54.516 82.3811 54.5429 82.0922 55.6607 81.6152C57.7751 80.7015 59.9636 79.808 62.3272 80.1708C65.8624 80.715 69.3707 81.4271 72.8925 82.0721C74.448 82.3543 76.0102 82.9388 77.9024 81.8437C77.3503 81.0173 77.0001 80.117 76.3469 79.6333C75.4819 79.0904 74.5366 78.6868 73.5457 78.4374C68.0131 76.5593 62.0333 76.4373 56.4284 78.0881C55.0816 78.4912 53.681 78.7599 52.3881 79.0891C51.5733 78.0881 52.0649 77.4767 52.745 77.0333C55.9974 74.9103 59.371 73.0023 63.4786 73.8689C65.9701 74.3997 68.4212 75.1118 70.8858 75.8374C71.9498 76.1532 72.906 76.5093 74.1046 75.7366C73.8589 75.2462 73.5437 74.7937 73.1686 74.393C69.8555 71.8937 66.2395 70.1201 62.0242 69.6901C58.5091 69.3407 55.2904 70.288 52.0514 71.4772C48.9337 72.626 46.3479 74.225 45.8092 77.8597C45.7338 78.0932 45.6345 78.3183 45.5129 78.5315C45.3571 79.0336 45.0107 79.4552 44.5478 79.7062C44.0849 79.9572 43.542 80.0178 43.0349 79.8752C40.0114 79.2974 36.9745 78.7263 34.7119 76.348C34.1168 75.7291 33.3447 75.3085 32.501 75.1438C31.6574 74.9791 30.7833 75.0782 29.9983 75.4276C28.7972 75.8638 27.6514 76.4388 26.5842 77.1408C23.9581 78.8809 21.4194 80.7553 18.8202 82.5155C17.4887 83.4385 16.4733 84.7471 15.9112 86.2644C18.47 88.2799 20.8134 90.4163 23.4598 92.0825C26.4092 93.9435 29.601 95.4417 33.2776 95.3476C36.3463 95.251 39.4073 95.7061 42.3144 96.6913C44.4086 97.4102 46.4624 98.2433 48.5364 99.0226C51.5531 100.145 52.5767 99.6944 54.6978 97.3027C56.0108 95.7484 57.6406 94.491 59.4788 93.6143C61.9568 92.5797 64.7042 92.1564 67.3573 91.5988C69.1216 91.2091 70.9262 90.9874 73.0204 90.638C72.5221 90.2551 72.4076 90.0871 72.2864 90.0871C67.5728 89.946 62.8995 89.9125 58.2532 90.8396C57.0748 91.068 55.8358 91.4644 54.5699 90.8396C55.8493 88.9584 56.0378 88.7031 57.526 88.4747C59.7094 88.1191 61.9098 87.8769 64.1184 87.7491C66.5021 87.6349 68.8993 87.7827 71.2831 87.7491C72.9055 87.7474 74.5257 87.6307 76.1314 87.3998C76.4309 87.2968 76.7054 87.1324 76.9374 86.9172C77.1693 86.702 77.3535 86.4407 77.4782 86.1501C77.5657 85.9486 76.9058 85.176 76.4614 85.008C75.0406 84.4571 73.5726 83.7517 72.0979 83.6643C68.2664 83.4695 64.4079 83.4897 60.5697 83.6106C58.6301 83.7847 56.7029 84.0763 54.7988 84.484V84.4504ZM63.95 118.714C67.6603 119.386 70.9599 118.99 74.2594 118.593C75.7473 118.488 77.2286 118.304 78.697 118.042C82.1784 117.243 85.6059 116.242 89.094 115.469C92.003 114.797 94.9591 114.408 97.8816 113.83C98.4493 113.74 98.977 113.483 99.3967 113.091C101.484 110.766 103.498 108.388 105.605 105.929L79.0741 85.8478L76.091 88.7905C75.7947 89.0794 75.3234 89.3414 75.2493 89.684C74.852 91.6256 73.1551 92.0422 71.7208 92.6737C70.4971 93.1426 69.247 93.5396 67.9768 93.8629C67.2779 94.7681 66.6348 95.7149 66.051 96.698C65.2706 97.995 64.6895 99.4013 64.3271 100.87C63.4975 105.396 63.1835 110 63.3911 114.596C63.445 115.926 63.7345 117.25 63.9702 118.741L63.95 118.714ZM158.782 86.7817C159.415 85.5858 159.792 84.7662 160.284 83.96C162.337 80.7284 164.997 78.1486 168.633 76.7646C170.701 75.9852 172.869 75.4679 174.923 74.6483C177.006 73.8876 179.235 73.6119 181.441 73.8421C181.906 73.8421 182.364 73.8824 182.835 73.9025C182.922 73.6019 182.981 73.2937 183.01 72.9821C182.857 66.8613 183.183 60.7379 183.986 54.6678C184.101 53.7381 184.06 52.7959 183.865 51.8796C183.495 50.153 182.404 49.5282 180.647 49.9716C179.584 50.2637 178.542 50.6273 177.529 51.06C174.835 52.1349 172.263 53.5995 169.482 54.2781C165.667 55.2164 162.199 57.218 159.482 60.0492C158.398 61.1376 157.354 62.2528 156.263 63.3278C153.967 65.5852 151.604 67.7686 149.382 70.0932C148.035 71.5108 148.102 71.6989 149.227 73.3718C151.085 76.1196 152.924 78.8741 154.836 81.5816C156.035 83.3083 157.354 84.9005 158.782 86.7817ZM99.794 116.692C99.8344 118.795 100.905 119.621 102.528 119.292C106.023 118.587 109.895 114.374 110.278 110.739C110.32 110.092 110.108 109.453 109.686 108.959C109.13 108.369 108.367 108.014 107.556 107.969C106.745 107.924 105.948 108.192 105.329 108.717C103.682 110.288 102.174 111.999 100.824 113.83C100.158 114.73 100.023 116.02 99.794 116.692ZM119.544 128.839C118.002 130.592 116.696 132.151 115.295 133.629C113.719 135.295 113.134 136.988 114.723 139.084C116.743 139.682 118.696 139.044 120.507 138.09C123.766 136.384 124.231 133.206 121.672 130.7C121.079 130.075 120.406 129.571 119.544 128.839ZM135.968 122.167C134.709 124.989 134.204 127.905 134.534 130.075C134.89 132.453 136.345 133.474 138.641 132.809C139.988 132.413 141.119 132.272 141.779 133.891C141.896 134.093 142.064 134.261 142.266 134.379C142.468 134.497 142.697 134.56 142.931 134.563C143.131 134.435 143.301 134.266 143.428 134.066C143.556 133.867 143.639 133.642 143.671 133.407C143.799 132.789 143.752 132.148 143.536 131.554C143.319 130.961 142.942 130.44 142.446 130.048C141.082 128.801 139.815 127.454 138.655 126.017C137.739 124.841 136.985 123.619 135.968 122.167ZM203.407 142.464C206.242 135.927 204.666 131.459 198.107 125.755C198.397 126.884 198.41 127.663 198.781 128.227C200.195 130.492 200.356 132.93 200.464 135.537C200.666 137.292 201.12 139.009 201.811 140.636C202.013 141.254 202.686 141.698 203.407 142.464ZM124.049 125.634L130.473 126.796C130.897 126.877 131.335 126.82 131.724 126.634C132.113 126.447 132.432 126.142 132.635 125.762C133.059 125.15 133.47 124.526 133.887 123.908C134.688 122.718 134.446 121.845 133.045 121.375C130.709 120.582 128.554 121.314 126.413 122.248C125.113 122.812 124.44 123.76 124.049 125.634ZM134.756 134.18C133.874 132.232 133.086 130.492 132.224 128.577H130.722C130.379 128.577 130.049 128.536 129.705 128.577C129.106 128.58 128.527 128.799 128.077 129.194C127.626 129.589 127.334 130.134 127.254 130.727C127.046 132.494 128.049 133.757 129.2 134.939C130.352 136.122 131.328 135.645 132.453 135.107C133.214 134.724 134.002 134.462 134.756 134.173V134.18ZM132.655 139.004C134.991 140.818 137.678 140.072 140.109 140.529C140.352 140.569 140.722 139.917 141.038 139.582C137.254 136.666 134.675 136.464 132.655 139.004ZM141.469 137.358C140.594 135.08 138.446 135.55 136.964 134.845C136.109 134.429 135.382 134.798 134.756 135.718L141.469 137.358ZM97.6997 129.826C98.4203 130.062 99.0465 130.283 99.666 130.498C100.286 130.713 100.791 130.794 101.349 130.942C100.555 129.538 100.885 127.267 98.4135 127.643L97.6997 129.826ZM101.976 124.573C103.37 123.726 105.612 124.022 106.171 121.522C104.043 121.724 102.885 122.947 102.003 124.573H101.976ZM117.74 122.423L118.022 121.684L114.837 120.689C114.777 120.871 114.716 121.059 114.649 121.24L117.74 122.423ZM107.235 133.656L104.009 133.972C106.043 135.188 106.043 135.188 107.262 133.656H107.235ZM112.534 133.024L109.383 134.939C111.565 134.892 111.565 134.892 112.561 133.024H112.534ZM161.246 87.0504C160.337 88.2933 160.337 88.2933 161.449 88.73L161.246 87.0504ZM99.9354 100.104L100.084 99.7818L99.2216 99.1099L99.0734 99.3115L99.9354 100.104Z" fill="white"/>
<path d="M31.9183 64.604C29.8038 63.9322 27.7635 64.2681 25.676 64.8459C23.1374 65.5177 20.4977 65.9209 17.9726 66.6666C14.2219 67.7751 10.4981 68.9912 6.84163 70.3684C5.53528 70.8589 4.41747 71.8935 3.29293 72.787C0.599413 74.9033 0.673484 78.491 2.10105 80.8961C2.40407 81.4 2.61281 81.9644 2.8687 82.5018C2.55894 82.3943 2.13472 82.3809 1.9529 82.1659C-0.545331 79.2367 -0.902221 74.1039 2.3906 71.3426C3.9461 70.0527 5.75749 69.0516 7.77763 67.7012C7.61049 66.8311 7.39922 65.9701 7.14465 65.1214C6.90647 64.4498 6.82274 63.7333 6.89967 63.0251C6.9766 62.3169 7.21222 61.6349 7.58908 61.0299C10.9252 55.1028 13.6053 48.8312 15.5821 42.3259C16.6595 38.6173 18.4776 35.0834 20.2553 31.6235C22.7468 26.7997 25.5885 22.1304 28.1473 17.3469C28.8726 15.9054 29.4893 14.412 29.9924 12.8792C31.9048 7.54475 35.4939 3.57418 40.0931 0.450132C40.4894 0.241547 40.9134 0.0899989 41.3523 0C44.5037 3.78245 46.5979 7.88739 47.278 12.597L46.7865 12.8321C46.5749 12.4748 46.3816 12.1071 46.2073 11.7303C45.1434 9.04295 44.1872 6.3556 43.0021 3.70855C42.4999 2.84768 41.8914 2.05317 41.1907 1.34368C38.9281 2.18348 37.7093 3.91682 36.3962 5.37471C34.5704 7.50466 33.0601 9.88479 31.9115 12.4425C29.6759 17.1991 27.1979 21.8482 24.5515 26.4167C20.9823 32.7154 18.0154 39.3354 15.6898 46.1889C14.0793 50.7481 12.1207 55.1773 9.83143 59.4376C8.3904 62.125 8.31633 64.5234 9.37354 67.4997C11.6092 66.9555 13.8111 66.4314 15.9996 65.894C19.885 64.9333 23.7434 63.8785 27.6423 63.0319C28.4305 62.8216 29.2646 62.8599 30.0302 63.1413C30.7958 63.4228 31.4553 63.9337 31.9183 64.604Z" fill="white"/>
<path d="M128.097 21.7937C127.046 25.341 126.117 28.9353 124.925 32.4356C122.75 38.8449 118.959 44.4413 115.545 50.2124C113.168 54.2435 110.67 58.1939 108.185 62.1577C107.623 63.0523 106.83 63.7788 105.889 64.2606C106.831 62.6683 107.781 61.0828 108.717 59.4905C112.811 52.537 117.107 45.6843 120.912 38.5628C122.817 35.0087 123.827 30.971 125.228 27.1415C125.901 25.2671 126.575 23.3792 127.248 21.498L128.097 21.7937Z" fill="white"/>
<path d="M128.756 29.823C130.338 19.8328 135.53 11.979 141.611 4.58203L142.116 4.7903C142.066 5.22565 141.945 5.65 141.759 6.04664C137.35 12.014 133.718 18.5156 130.951 25.3956C130.426 26.7393 129.941 28.083 129.409 29.4266C129.369 29.561 129.153 29.5946 128.756 29.823Z" fill="white"/>
<path d="M177.16 142.228C176.096 142.799 175.517 143.861 174.318 143.431C173.12 143.001 172.796 141.858 172.904 140.71C172.984 138.859 173.243 137.021 173.679 135.221C174.763 131.579 176.116 128.012 177.362 124.417C177.497 124.014 177.651 123.611 177.746 123.201C178.284 120.884 177.806 120.051 175.503 119.224C175.181 119.074 174.868 118.903 174.567 118.714C177.685 117.807 179.436 118.996 179.059 121.791C178.816 123.605 178.008 125.345 177.47 127.125C176.392 130.708 175.322 134.273 174.258 137.821C174.16 138.147 174.099 138.482 174.076 138.822C173.887 141.086 174.635 141.986 177.16 142.228Z" fill="white"/>
<path d="M185.852 143.956C185.509 145.132 184.701 145.971 183.509 145.844C182.867 145.818 182.25 145.59 181.745 145.193C181.241 144.796 180.875 144.25 180.701 143.633C180.433 142.411 180.307 141.162 180.324 139.911C180.354 138.904 180.444 137.899 180.593 136.902C180.593 136.277 180.593 135.645 180.593 135.014C182.048 131.601 183.495 128.181 184.97 124.775C185.058 124.573 185.34 124.452 185.866 124.016C185.657 124.983 185.569 125.615 185.388 126.206C184.229 129.921 182.943 133.596 181.926 137.358C181.589 138.757 181.557 140.212 181.832 141.625C182.256 143.963 183.408 144.52 185.872 143.989L185.852 143.956Z" fill="white"/>
<path d="M40.9277 76.6632C41.5365 75.8598 42.039 74.9814 42.4226 74.0498C42.8873 72.2425 42.9344 70.4554 41.7493 68.7355C40.5641 67.0156 41.0355 66.3303 43.1633 65.5645L43.2307 65.6249C43.0071 66.0207 42.8896 66.4673 42.8896 66.9216C42.8896 67.3759 43.0071 67.8225 43.2307 68.2182C44.8603 71.7588 44.3014 74.164 41.352 77.026L40.9277 76.6632Z" fill="white"/>
<path d="M169.254 131.498C169.476 129.483 169.685 127.467 169.927 125.452C170.012 124.511 170.318 123.604 170.822 122.804C171.325 122.004 172.011 121.334 172.823 120.85C172.676 121.221 172.505 121.582 172.311 121.931C170.897 124.095 170.843 126.587 170.533 129.019C170.405 130.007 170.594 131.115 169.469 131.707L169.254 131.498Z" fill="white"/>
<path d="M133.935 2.96289C134.318 5.97273 132.837 8.20324 132.399 10.6286C132.078 9.31654 132.049 7.95017 132.314 6.62572C132.58 5.30127 133.133 4.05096 133.935 2.96289Z" fill="white"/>
<path d="M92.8246 82.4551C93.4306 83.1269 94.077 83.483 94.104 83.8995C94.1294 84.0671 94.1123 84.2383 94.0543 84.3975C93.9964 84.5568 93.8994 84.699 93.7721 84.8113C93.6449 84.9235 93.4915 85.0022 93.326 85.0401C93.1605 85.078 92.9881 85.0739 92.8246 85.0282C92.6196 84.946 92.4381 84.8147 92.2961 84.646C92.154 84.4773 92.0557 84.2763 92.0098 84.0608C92.0232 83.6039 92.4407 83.1672 92.8246 82.4551Z" fill="white"/>
<path d="M180.566 135.039C180.566 135.671 180.566 136.302 180.566 136.927L178.492 140.212C178.739 138.342 179.452 136.563 180.566 135.039Z" fill="white"/>
<path d="M84.5159 36.7631C83.9435 36.7631 83.2836 36.9647 82.8392 36.7631C82.5833 36.6355 82.6709 35.8293 82.6035 35.3254L83.0681 35.0566L84.6573 36.1853L84.5159 36.7631Z" fill="white"/>
<path d="M84.0778 58.5033C83.5256 58.987 83.2024 59.464 82.9869 59.4237C82.569 59.2566 82.1889 59.0076 81.8691 58.6914C82.0712 58.4562 82.2799 58.0195 82.4886 58.0195C83.0371 58.1116 83.5713 58.2742 84.0778 58.5033Z" fill="white"/>
<path d="M185.853 143.989C186.324 142.746 186.802 141.504 187.274 140.254H187.233C187.53 141.792 186.479 142.814 185.812 143.983L185.853 143.989Z" fill="white"/>
<path d="M67.9043 133.905C68.8605 131.164 74.7997 126.011 79.7221 123.552C84.4829 121.173 89.6073 120.354 94.8529 120.26L94.9943 120.885C92.9742 121.368 90.9541 121.98 88.9339 122.295C83.1833 123.189 78.3282 125.903 73.8704 129.437C72.4025 130.599 71.0826 131.936 69.6551 133.146C69.1019 133.463 68.5146 133.718 67.9043 133.905Z" fill="white"/>
<path d="M140.002 122.658C146.17 120.992 158.607 127.173 161.611 133.515C159.341 131.681 157.442 129.833 155.234 128.456C152.914 127.056 150.462 125.886 147.914 124.963C145.45 124.015 142.823 123.458 140.002 122.658Z" fill="white"/>
<path d="M87.2756 105.196C86.7773 105.633 86.4609 106.13 86.1242 106.15C85.7875 106.17 85.4508 105.653 85.168 105.371C85.4845 105.075 85.7673 104.645 86.1444 104.531C86.3733 104.464 86.7504 104.867 87.2756 105.196Z" fill="white"/>
<path d="M68.1666 100.676L66.1465 100.978C66.6246 100.414 66.766 100.092 66.9815 100.024C67.3546 99.9737 67.7329 99.9737 68.106 100.024C68.1464 100.226 68.1599 100.454 68.1666 100.676Z" fill="white"/>
</g>
<defs>
<clipPath id="clip0">
<rect width="206" height="155" fill="white"/>
</clipPath>
</defs>
</svg>
