<svg width="127" height="147" viewBox="0 0 127 147" fill="none" xmlns="http://www.w3.org/2000/svg">
<g clip-path="url(#clip0)">
<path d="M23.8496 66.6257C23.5632 66.4343 23.3065 66.202 23.0879 65.9364C22.3053 64.613 22.3469 63.2552 23.1363 62.5521C23.9258 61.8491 25.5324 61.9869 26.7166 62.945C27.1183 63.2621 27.5061 63.6343 28.0463 64.0616C29.1196 63.2414 30.4354 62.6417 31.1002 61.6285C32.5891 59.3401 34.5628 57.5756 36.4187 55.625C39.1888 52.6818 42.6514 51.9098 46.4325 52.0408C47.2012 52.0408 48.0253 52.7301 48.697 53.2194C49.902 54.1362 51.3009 54.2533 52.3396 53.4607C52.7703 53.1045 53.2875 52.8674 53.8393 52.773C54.3912 52.6786 54.9582 52.7304 55.4836 52.9231C57.8313 53.6123 59.7841 53.1436 61.3146 51.1516C62.9351 49.0838 65.3104 48.7185 67.7065 48.7599C68.7563 48.7482 69.7748 49.1155 70.5735 49.7938C71.0716 50.333 71.6865 50.7523 72.3717 51.0198C73.0568 51.2873 73.7941 51.396 74.5277 51.3377C75.6507 51.4623 76.7591 51.6931 77.838 52.027C78.6274 49.1803 79.6108 46.1338 80.3033 43.0321C81.6329 37.132 83.9598 31.5834 86.065 25.952C88.204 20.0549 90.7183 14.2993 93.5926 8.72037C95.2408 5.61177 97.0552 2.57211 100.324 0.904081C102.36 -0.122927 104.479 -0.474453 106.376 1.31075C103.295 1.09708 100.968 2.53764 99.0496 4.75708C98.0082 5.93477 97.0502 7.18305 96.1826 8.49291C91.0026 16.4815 87.7409 25.3248 84.9224 34.3266C82.5332 41.9844 80.4487 49.7386 78.2742 57.4584C77.7756 59.2367 77.4709 61.0702 77.0208 63.1242C81.1759 60.698 84.9154 58.5199 88.6481 56.2867C92.5816 53.9294 97.1245 53.7915 101.612 52.9024V49.9868C99.202 49.7455 97.0483 49.6215 94.9292 49.2975C92.8101 48.9736 90.7118 48.3256 89.5899 46.0717C90.8566 46.2724 92.1118 46.5393 93.3503 46.8713C95.4904 47.3009 97.6517 47.6184 99.8253 47.8225C100.698 47.8914 101.903 47.8225 102.166 46.5749C102.602 44.7415 102.955 42.8873 103.371 40.9022C99.9845 39.9648 96.6397 39.6409 94.4375 36.2497C97.7962 36.939 100.455 38.6759 103.703 38.7517C104.562 35.65 105.386 32.6586 106.238 29.5569C103.511 28.89 101.069 27.3763 99.2643 25.2352C101.799 25.7797 103.689 27.9923 106.404 27.9371C106.594 27.6863 106.752 27.4131 106.875 27.1238C107.886 22.7056 109.112 18.3219 109.791 13.8554C110.282 10.6021 110.338 7.1902 108.405 4.20567C107.761 3.19245 107.02 2.23437 106.328 1.25561C108.364 1.57956 109.458 3.03392 110.345 4.66059C112.263 8.19653 112.422 12.0151 111.972 15.8887C111.328 21.458 109.839 26.8412 108.336 32.2244C106.833 37.6075 105.566 43.2526 104.223 48.7185C103.982 49.4154 103.982 50.1722 104.223 50.869C105.317 52.7163 106.446 54.5428 107.505 56.3832C108.835 58.7405 110.005 61.208 111.439 63.4826C112.259 64.7361 112.782 66.1585 112.969 67.6427C113.156 69.1269 113.002 70.6339 112.519 72.0502C111.446 75.2415 112.007 78.0331 113.315 80.8866C113.745 81.6465 114.049 82.4704 114.216 83.3266C114.188 84.1436 114.038 84.9519 113.772 85.7253C113.314 84.5041 112.787 83.3098 112.194 82.148C111.463 80.887 111.017 79.4832 110.886 78.0337C110.754 76.5842 110.94 75.1235 111.432 73.7527C112.651 70.0444 111.854 66.929 109.631 63.9238C108.787 62.7112 108.008 61.455 107.297 60.1604C106.072 58.0926 104.874 55.9765 103.766 54.0672C100.933 54.6738 98.4472 55.1287 96.0026 55.7353C90.8918 57.0035 86.5429 59.8709 82.2701 62.7175C78.7244 65.1093 75.428 67.8664 72.0001 70.4304C70.2778 71.7896 68.2776 72.7574 66.1399 73.2658C64.0021 73.7742 61.7784 73.811 59.6249 73.3736C54.7311 72.4546 49.8027 71.74 44.8397 71.23C42.6429 71.0336 40.5961 70.0372 39.0918 68.4316C37.4021 66.7084 35.7608 64.9439 34.0919 63.1931L37.2844 64.682C38.2816 61.6699 40.7469 60.6015 43.5863 60.312C44.2026 58.9748 44.5211 57.5963 45.3591 56.6796C46.197 55.7628 47.492 55.4182 48.8217 54.6945C48.2053 54.1844 47.7344 53.4745 47.1873 53.4124C44.2095 53.0747 41.2871 53.6606 39.0295 55.5698C38.1914 56.3834 37.262 57.098 36.2595 57.6997C34.6315 58.5259 33.3899 59.9495 32.7969 61.6699C33.2747 62.2213 33.711 62.7313 34.1819 63.2345L32.3675 63.331C30.7955 66.0122 29.4105 68.3213 28.0809 70.6648C27.0472 72.2706 26.1618 73.9662 25.4355 75.7309C24.785 77.8902 23.7039 79.8969 22.2568 81.631C19.9577 84.2571 18.8705 87.1452 20.671 90.7362C21.9584 93.5377 22.4518 96.6363 22.0976 99.6967C22.0214 100.613 22.0976 101.551 22.0976 102.757C23.0602 102.316 23.7665 102.013 24.459 101.682C29.1266 99.421 33.988 98.0149 39.2096 98.9247C45.2766 99.91 51.1127 101.986 56.4324 105.052C60.5875 107.499 65.1303 108.733 70.0195 107.072C70.7003 106.907 71.3967 106.815 72.097 106.796L72.3186 107.389C71.9533 107.784 71.5336 108.125 71.0721 108.402C66.9863 110.07 62.9905 109.526 59.0985 107.747C56.0792 106.369 53.2053 104.611 50.0959 103.522C46.4767 102.211 42.738 101.253 38.9326 100.662C33.9395 99.9724 29.2374 101.447 24.7153 103.612C22.9078 104.473 21.9452 105.266 22.1045 107.444C22.2638 109.622 21.0796 111.008 18.9951 111.752C15.7957 112.896 14.6115 114.75 14.9231 118.086C15.0132 119.044 15.0409 120.003 15.1378 120.961C15.5395 124.786 14.2098 127.757 10.9412 129.921C9.60978 130.759 8.42399 131.806 7.43013 133.023C5.1514 135.995 3.27264 139.25 1.84155 142.707C2.97035 143.775 4.23765 143.396 5.43569 143.327C10.9758 143.052 16.4744 142.907 21.966 142.39C27.0225 141.808 32.1377 141.973 37.1459 142.879C42.1248 143.941 47.1994 144.495 52.2911 144.534C59.5764 144.485 66.8755 144.485 74.1607 144.582C78.6343 144.637 83.0664 144.837 87.5262 144.003C91.7783 143.21 96.0926 143.644 100.352 144.444C104.354 145.202 108.295 145.471 112.194 143.582C114.37 142.633 116.781 142.352 119.119 142.776C121.383 143.107 123.641 143.093 125.961 141.687C125.621 140.887 125.317 140.115 124.977 139.357C123.828 136.821 122.207 134.388 121.591 131.734C120.123 125.53 119.139 119.244 117.907 113C117.515 110.68 116.953 108.392 116.224 106.155C114.839 102.309 113.191 98.5732 111.626 94.7685C111.205 93.9063 110.995 92.9573 111.013 91.999C111.031 91.0407 111.277 90.1002 111.73 89.2543C112.422 88.0343 113.115 86.8488 113.842 85.6495C113.558 86.5455 113.475 87.5794 112.955 88.31C112.433 89.0147 112.118 89.8499 112.044 90.7225C111.971 91.5951 112.143 92.4708 112.54 93.2521C113.696 96.0781 114.576 99.0419 115.954 101.751C117.865 105.507 118.288 109.581 119.063 113.592C119.756 117.266 120.621 120.933 121.141 124.621C121.833 129.845 124.022 134.45 126.328 139.095C127.886 142.231 126.896 144.154 123.468 144.74C122.089 145.018 120.676 145.081 119.278 144.926C115.788 144.374 112.211 144.899 109.029 146.429C107.729 147.023 106.271 147.18 104.874 146.877C100.123 146.14 95.2754 146.029 90.4625 145.705C89.766 145.638 89.063 145.692 88.3849 145.864C82.7548 147.463 77.0346 146.615 71.3422 146.553C66.6054 146.484 61.8617 146.229 57.1249 146.277C49.9211 146.35 42.7285 145.696 35.657 144.327C32.0393 143.612 28.3331 143.452 24.6668 143.851C18.2195 144.54 11.7168 144.664 5.23487 145.071C3.39278 145.181 1.8554 144.499 0.0410156 143.334C0.428823 142.156 0.733529 140.825 1.29446 139.585C1.8554 138.344 2.56869 137.296 3.1504 136.138C4.45312 133.347 6.5947 131.028 9.27914 129.501C10.5397 128.861 11.6138 127.909 12.3984 126.737C13.1831 125.565 13.6518 124.212 13.7597 122.808C13.9051 121.105 13.4896 119.361 13.3026 117.618C13.0908 116.323 13.3496 114.996 14.0324 113.874C14.7152 112.752 15.7775 111.909 17.0284 111.497C20.1447 110.394 21.3843 107.982 20.671 104.68C20.4148 103.522 20.0823 102.206 20.3801 101.123C21.3081 97.7461 20.7264 94.5479 19.7707 91.3359C19.5214 90.5019 19.2998 89.661 19.0782 88.8201C18.6761 87.5597 18.6122 86.2166 18.8928 84.924C19.1734 83.6315 19.7888 82.4345 20.6779 81.4518C22.6358 79.2264 23.9415 76.5082 24.4521 73.5942C24.7222 72.2156 25.6986 70.9474 26.4673 69.4172C26.0726 68.9347 24.3898 69.8997 24.5768 68.3144C24.8953 68.1834 25.484 68.0387 25.477 67.9284C25.4216 66.8738 25.2208 65.8606 25.1446 64.7716C25.1552 64.2892 25.2132 63.809 25.3178 63.3379C24.2513 63.2758 23.628 63.7308 23.6696 64.8474C23.6997 65.4428 23.7598 66.0363 23.8496 66.6257ZM53.6762 55.88L56.3562 54.9288L56.2038 54.3636C55.479 54.3318 54.7527 54.3733 54.0363 54.4877C53.1499 54.7014 53.503 55.3631 53.7108 55.9145L50.5945 56.3349L50.7399 56.9415L53.6762 55.88ZM72.471 57.6859L75.6496 61.3941C76.1829 58.9128 76.7369 56.6106 77.1593 54.2809C77.3324 53.3504 76.7022 52.861 75.7743 52.7645C74.63 52.613 73.4663 52.7134 72.3654 53.0588C71.2645 53.4042 70.2532 53.9861 69.4032 54.7634L71.8962 57.0931C70.3919 57.1198 68.9329 56.5807 67.8104 55.5836C67.3725 55.1832 66.842 54.8967 66.2661 54.7496C61.2176 53.9639 53.6415 55.8318 50.7468 61.9456C48.8563 65.9226 50.7468 70.8578 55.7399 71.5195C59.6502 72.0814 63.6404 71.5219 67.2425 69.9066C68.7064 69.3282 70.0165 68.4216 71.071 67.2572C72.1256 66.0929 72.8961 64.7021 73.3228 63.1931C73.953 61.0771 73.0388 59.4711 72.471 57.6859ZM45.8438 61.5113C44.7139 61.4566 43.5845 61.6292 42.5231 62.0188C41.4618 62.4085 40.4902 63.0071 39.6666 63.779C38.2123 65.1575 38.1639 66.0743 39.4866 67.6113C40.0543 68.3845 40.7876 69.0226 41.6334 69.4793C44.4034 70.6717 47.4297 70.6648 50.636 70.975C49.6319 69.3345 48.6208 68.3558 47.028 68.0732C45.643 67.825 45.179 66.798 45.2691 65.5504C45.3591 64.3029 45.6222 62.9864 45.8438 61.5113ZM62.4642 53.0196C65.5389 53.4262 68.3713 53.8949 70.4073 51.1447C67.6511 48.8702 65.2896 49.3733 62.4434 53.0196H62.4642ZM49.4241 57.0724C46.5364 57.2241 45.8231 57.9961 45.8438 60.7393C47.3189 59.7744 48.0183 58.4165 49.4241 57.0724ZM27.8523 67.6113L30.0753 64.0271C27.7692 64.613 27.1252 65.6676 27.8523 67.6113ZM48.5308 61.1116C47.1458 62.6279 46.5294 64.3304 46.9103 66.0605L48.5308 61.1116Z" fill="white"/>
<path d="M81.5152 76.5084C78.4958 78.4108 75.4834 80.3407 72.4433 82.2224C67.1317 85.4689 61.273 86.1581 55.2205 85.4689C48.5308 84.7038 42.4367 81.9398 36.2595 79.4929C36.022 79.3835 35.8116 79.2235 35.6431 79.0242C35.5462 78.9208 35.56 78.7209 35.4492 78.2247C36.3917 78.4613 37.3171 78.7607 38.2193 79.1207C45.6153 82.6636 53.3368 84.4556 61.6054 83.8146C66.0727 83.487 70.3732 81.9889 74.0707 79.4722C76.5984 77.7835 79.2368 76.2603 82.2216 74.4199C82.1246 75.2264 82.09 75.5227 82.0554 75.7985L81.5152 76.5084Z" fill="white"/>
<path d="M52.0851 108.533C52.8676 108.864 53.6571 109.174 54.4327 109.526C62.0187 113.008 70.3226 114.661 78.6706 114.351C80.6374 114.289 82.5903 113.579 84.5224 113.089C85.6235 112.814 86.6692 112.324 87.7633 112.048C88.7089 111.874 89.6639 111.754 90.6234 111.69C89.8617 113.399 88.4905 113.834 87.2717 114.344C83.3875 116.034 79.1103 116.625 74.9103 116.053C70.4796 115.481 66.0863 114.653 61.7525 113.572C58.2484 112.641 54.772 111.345 51.8496 109.057L52.0851 108.533Z" fill="white"/>
<path d="M92.1051 119.843C91.288 120.029 90.4569 120.16 89.6536 120.408C87.3337 121.132 84.9792 121.787 82.7285 122.676C79.9584 123.793 78.2826 126.067 77.4169 128.811C76.7305 130.786 75.6466 132.601 74.2314 134.145C72.3477 136.399 70.5056 138.681 68.4766 141.142C68.8123 138.242 70.0746 135.526 72.0776 133.394C73.7102 131.69 74.9342 129.64 75.6579 127.398C76.0826 125.874 76.8944 124.485 78.0152 123.365C79.136 122.244 80.5279 121.43 82.0568 121.001C84.8268 120.078 87.77 119.492 90.6508 118.83C91.0664 118.733 91.5788 119.023 92.0359 119.133C92.0636 119.374 92.1051 119.609 92.1051 119.843Z" fill="white"/>
<path d="M81.5156 76.5097L82.0904 75.8204L88.0253 73.8974C94.334 71.8296 100.269 72.7601 105.871 76.1513C106.093 76.3195 106.272 76.5379 106.392 76.7884C106.513 77.0389 106.571 77.3143 106.564 77.5919C104.777 77.0335 102.97 76.5235 101.204 75.9031C96.6166 74.3002 91.6208 74.2807 87.0211 75.848C85.688 76.2659 84.3305 76.6019 82.9561 76.8543C82.5059 76.9302 81.9935 76.6131 81.5156 76.5097Z" fill="white"/>
<path d="M88.4902 72.9934C89.4944 70.7602 91.5442 69.9331 93.4694 69.2094C98.871 67.1829 106.503 66.5074 109.072 67.6171C105.478 68.141 101.863 68.3616 98.4209 69.2576C94.9791 70.1537 91.7935 71.7183 88.4902 72.9934Z" fill="white"/>
<path d="M99.0293 81.334C101.245 82.3472 103.254 83.2639 105.262 84.1738C106.73 84.863 107.907 85.7591 108.323 87.4616C102 84.9595 100.83 84.1944 99.0293 81.334Z" fill="white"/>
</g>
<defs>
<clipPath id="clip0">
<rect width="127" height="147" fill="white"/>
</clipPath>
</defs>
</svg>
