<svg width="43" height="35" viewBox="0 0 43 35" fill="none" xmlns="http://www.w3.org/2000/svg">
<path d="M23.9986 15.9525C21.5586 16.6025 19.6386 16.7525 17.9186 15.5825C13.1253 12.3558 8.36865 9.0925 3.64865 5.7925C2.61569 5.03473 1.63666 4.20607 0.718649 3.3125C0.52279 3.16875 0.358812 2.98601 0.237041 2.77578C0.115269 2.56555 0.0383408 2.33239 0.0110993 2.09098C-0.0161423 1.84956 0.0068929 1.60512 0.0787546 1.37304C0.150616 1.14096 0.269748 0.926276 0.428649 0.742497C0.57175 0.5477 0.75222 0.383358 0.959525 0.259065C1.16683 0.134772 1.39682 0.0530171 1.63606 0.0185734C1.8753 -0.0158703 2.11901 -0.00231322 2.35296 0.0584533C2.58691 0.11922 2.80641 0.225978 2.99865 0.372497C3.27195 0.537466 3.5357 0.717754 3.78865 0.912497C8.99865 4.4425 14.2686 7.9525 19.4786 11.5125C20.0324 11.9176 20.7049 12.1275 21.3907 12.1094C22.0766 12.0913 22.737 11.8462 23.2687 11.4125C25.5287 9.9125 27.7686 8.4125 29.9686 6.7825C32.6287 4.8725 35.2386 2.8925 37.8886 1.0125C38.4149 0.517437 39.064 0.172169 39.7687 0.0124974C40.5324 -0.00176257 41.274 0.269215 41.8486 0.772497C42.162 1.09533 42.3373 1.52757 42.3373 1.9775C42.3373 2.42743 42.162 2.85966 41.8486 3.1825C41.4829 3.60613 41.0626 3.97939 40.5986 4.2925C36.2886 7.4625 31.9886 10.6625 27.5986 13.7725C26.4366 14.56 25.235 15.2876 23.9986 15.9525Z" fill="white"/>
<path d="M22.1545 34.4034C21.3508 34.6788 20.4952 34.7689 19.6518 34.6667C18.8084 34.5645 17.9991 34.2728 17.2845 33.8134C16.2845 33.1734 15.2845 32.4534 14.3545 31.7334C10.0945 28.4867 5.8478 25.2234 1.61446 21.9434C1.11446 21.5534 0.454462 21.1734 0.254462 20.6434C-0.0460932 19.9468 -0.0816581 19.1643 0.154462 18.4434C0.262696 18.2494 0.409436 18.0796 0.585672 17.9444C0.761908 17.8092 0.963921 17.7114 1.17931 17.6571C1.3947 17.6028 1.61891 17.593 1.83819 17.6285C2.05747 17.664 2.26719 17.7439 2.45446 17.8634C2.87918 18.0832 3.28113 18.3445 3.65446 18.6434C8.32113 22.0434 12.9578 25.4434 17.5645 28.8434C20.1245 30.7334 20.3245 30.8434 23.0245 28.9434C28.1545 25.3434 33.1545 21.6434 38.1545 17.9734C38.6645 17.6034 39.1545 17.1434 39.6745 16.8134C40.0741 16.5343 40.5619 16.4108 41.0462 16.466C41.5305 16.5213 41.9779 16.7515 42.3045 17.1134C42.6659 17.4958 42.8673 18.0021 42.8673 18.5284C42.8673 19.0546 42.6659 19.5609 42.3045 19.9434C41.9705 20.3731 41.5841 20.7594 41.1545 21.0934C35.8045 25.0034 30.4645 28.9134 25.0845 32.7834C24.1415 33.3822 23.1631 33.9232 22.1545 34.4034Z" fill="white"/>
</svg>
