<svg width="375" height="119" viewBox="0 0 375 119" fill="none" xmlns="http://www.w3.org/2000/svg">
<path d="M-0.259766 37.7625C-0.0169575 32.4207 0.277881 25.9863 0.607406 19.5519C0.610832 19.0665 0.671963 18.5833 0.789512 18.1123C0.870037 17.6628 1.11576 17.2597 1.47839 16.9821C1.84102 16.7045 2.29436 16.5725 2.74932 16.6121C6.3134 16.959 9.77341 16.1005 13.2768 15.8143C19.9106 15.294 26.5185 14.583 33.1524 14.0106C37.3061 13.6811 39.2226 15.5455 39.3006 19.9074C39.474 33.0537 33.2304 48.42 16.1992 54.074C12.4632 55.3689 8.58514 56.2103 4.64843 56.5801C1.91684 56.8055 0.711467 55.947 0.503346 53.1808C0.139133 48.42 0.0177293 43.6419 -0.259766 37.7625Z" fill="#FA8078"/>
<path d="M76.3601 56.4698C70.3241 56.3183 64.3574 55.1454 58.7131 53.0011C51.9405 50.3996 47.093 45.821 44.8384 38.7882C43.58 34.7803 43.6683 30.4707 45.0898 26.5177C45.7813 24.3992 46.9018 22.4459 48.3814 20.7795C49.861 19.1131 51.6681 17.7693 53.6899 16.8321C55.7117 15.8948 57.9049 15.3841 60.1328 15.3317C62.3607 15.2794 64.5755 15.6866 66.6391 16.5279C69.0031 17.5347 71.5437 18.0617 74.1132 18.078C76.6826 18.0944 79.2297 17.5999 81.6064 16.6233C83.4759 15.868 85.3868 15.2195 87.3298 14.6808C100.849 10.952 110.821 22.6501 109.746 33.802C109.422 38.14 107.46 42.1921 104.257 45.1359C98.6984 50.2609 87.3991 56.8254 76.3601 56.4698Z" fill="#00BE88"/>
<path d="M156.244 31.0441C156.114 33.5416 155.993 36.516 155.802 39.4904C155.753 41.2703 155.214 43.0022 154.246 44.4965C153.278 45.9909 151.917 47.19 150.313 47.9627C149.895 48.2045 149.457 48.4105 149.004 48.5784C142.534 50.7636 135.996 52.472 129.059 52.047C126.639 51.8996 124.22 51.6915 121.818 51.3793C119.741 51.1311 117.756 50.3811 116.034 49.1941C113.432 47.3556 113.606 44.9969 116.485 43.6528C117.239 43.2973 118.019 43.0111 118.783 42.6903C122.496 41.1269 125.864 38.846 128.694 35.9784C132.544 32.0828 136.027 27.8419 139.1 23.309C140.628 20.8236 142.573 18.6204 144.85 16.7965C146.236 15.751 147.766 14.9127 149.394 14.3077C149.925 14.0816 150.498 13.9679 151.076 13.9739C151.654 13.9798 152.224 14.1052 152.751 14.3422C153.278 14.5792 153.75 14.9227 154.138 15.351C154.526 15.7794 154.821 16.2833 155.004 16.8312C155.671 18.426 156.072 20.1191 156.192 21.8435C156.383 24.7398 156.244 27.6535 156.244 31.0441Z" fill="#FA8078"/>
<path d="M191.207 15.6258C193.664 15.9006 196.138 16.0272 198.558 16.4479C204.24 17.5124 206.852 20.5285 207.115 26.2311C207.368 32.1927 207.006 38.1645 206.034 44.0518C205.329 48.4343 203.607 50.215 199.096 50.4718C193.845 50.8176 188.565 50.7526 183.283 50.7087C178.001 50.6649 173.064 50.5095 167.963 50.3787C166.77 50.3845 165.578 50.305 164.397 50.1407C162.365 49.7956 161.601 48.8629 161.547 46.8514C161.389 41.1713 161.201 35.4665 161.131 29.7641C161.103 27.8906 161.23 26.018 161.511 24.1655C161.688 22.5414 162.317 20.9993 163.325 19.7135C164.333 18.4277 165.68 17.4493 167.215 16.889C170.16 15.7206 173.298 15.1114 176.467 15.0926C181.401 14.9902 186.33 15.1232 191.261 15.1386L191.207 15.6258Z" fill="white"/>
<path d="M249.639 17.7877C251.278 16.6777 252.535 15.6891 253.914 14.926C255.744 13.9114 257.738 13.3651 259.559 14.926C261.38 16.4869 261.38 18.5421 260.808 20.658C260.237 22.6708 259.099 24.4769 257.53 25.861C255.336 27.8729 252.995 29.7286 250.714 31.6451C250.159 32.1047 249.578 32.5123 248.676 33.2667C249.821 33.4401 250.48 33.5355 251.148 33.6483C252.758 33.8181 254.274 34.4883 255.484 35.5647C257.634 37.6112 257.998 40.3168 256.186 42.6668C255.293 43.8238 254.175 44.7883 252.899 45.5025C244.601 49.9684 236.371 54.5991 227.396 57.6429C226.936 57.799 226.477 57.9638 226 58.0765C224.265 58.4841 223.476 58.0765 222.601 56.5156C219.211 50.1578 216.574 43.4265 214.744 36.4579C213.942 33.7152 213.724 30.8352 214.102 28.003C214.231 26.9717 214.524 25.9676 214.969 25.0286C215.141 24.6053 215.408 24.2274 215.749 23.9243C216.091 23.6211 216.498 23.401 216.939 23.281C217.379 23.1609 217.842 23.1443 218.29 23.2323C218.738 23.3204 219.16 23.5107 219.522 23.7885C220.431 24.4651 221.3 25.1948 222.124 25.9738C222.236 24.9939 222.332 24.1961 222.41 23.3723C222.641 20.4625 223.362 17.6127 224.543 14.9434C224.966 13.9924 225.502 13.0957 226.139 12.2725C228.402 9.45416 231.931 9.60158 234.047 12.5586C234.29 12.8968 234.472 13.2697 234.689 13.6253C234.906 13.9808 235.036 14.1542 235.348 14.6398C235.747 13.7727 236.05 13.209 236.328 12.602C237.774 9.16303 239.867 6.03371 242.493 3.38396C243.491 2.4104 244.6 1.5576 245.797 0.843145C248.884 -0.891198 251.633 0.496277 251.824 4.05168C251.87 6.12774 251.698 8.20288 251.313 10.2433C250.983 12.2898 250.376 14.293 249.908 16.3135C249.812 16.7124 249.76 17.12 249.639 17.7877Z" fill="#FA8078"/>
<path d="M126.326 78.5518C126.49 85.4285 123.013 90.8483 117.376 92.4266C111.74 94.0048 106.641 92.8428 102.565 88.4896C98.6368 84.2491 97.709 79.2889 99.3826 73.8431C100.304 71.1071 102.17 68.7889 104.646 67.3046C105.921 66.4892 107.257 65.7759 108.644 65.1714C114.862 62.3704 123.004 66.4374 125.12 72.6377C125.455 73.5446 125.721 74.475 125.918 75.4213C126.161 76.6094 126.239 77.7887 126.326 78.5518Z" fill="#FA8078"/>
<path d="M299.347 35.7728C299.347 39.8658 299.242 43.5773 298.02 47.046C296.207 52.2491 292.73 55.5703 287.111 56.3248C284.545 56.6269 281.949 56.1271 279.679 54.8939C277.269 53.6414 275.17 51.8632 273.539 49.6909C269.316 44.3874 266.955 37.8422 266.819 31.0641C266.807 27.1057 266.995 23.1492 267.383 19.2098C267.582 16.7037 268.441 16.1487 270.99 15.9232C276.93 15.4029 282.853 14.7872 288.784 14.1889C290.779 13.9981 292.756 13.6686 294.698 14.6051C295.182 14.7908 295.612 15.0929 295.951 15.4847C296.29 15.8765 296.527 16.3458 296.641 16.8511C297.985 23.2508 299.52 29.6159 299.347 35.7728Z" fill="#FA8078"/>
<path d="M310.491 37.5714C304.473 34.3629 302.548 29.2812 305.41 24.3817C308.271 19.4822 314.307 18.3115 319.458 21.4767C326.135 17.0368 329.638 17.2102 335.466 22.3439C336.021 21.997 336.584 21.6154 337.2 21.2686C338.646 20.3606 340.277 19.7887 341.973 19.5951C343.668 19.4014 345.386 19.5911 346.999 20.1499C350.485 21.3379 352.237 24.1562 351.899 27.8504C351.728 30.2179 350.828 32.4742 349.321 34.3085C347.815 36.1427 345.776 37.4645 343.487 38.0917C343.244 38.1787 343.007 38.28 342.776 38.3952C343.063 39.9175 343.009 41.4842 342.619 42.9834C342.229 44.4825 341.513 45.8769 340.521 47.0669C339.442 48.522 337.921 49.5896 336.186 50.1107C332.179 51.2987 328.936 50.05 325.858 45.983C322.155 49.3302 318.053 49.9199 313.787 47.171C310.613 45.1938 309.806 42.5923 310.491 37.5714Z" fill="white"/>
<path d="M57.3248 106.757C51.4574 106.269 45.4907 103.139 41.3858 96.9249C38.3872 92.3827 39.2952 86.581 43.4306 82.7717C46.1901 80.1382 49.7356 78.4812 53.5251 78.054C55.4021 77.8402 57.279 77.5883 59.156 77.3745C61.9514 77.049 64.5824 75.8832 66.702 74.0309C67.9152 73.008 69.0902 71.9392 70.2957 70.9163C74.7135 67.2062 79.589 66.9619 84.7011 69.0613C88.6611 70.7102 91.1561 75.26 90.7364 79.6189C90.7022 80.0432 90.7022 80.4695 90.7364 80.8938C90.8348 82.2109 90.6079 83.5321 90.0757 84.7409C89.5435 85.9497 88.7223 87.0089 87.6844 87.8253C86.3389 88.9736 84.8907 89.9957 83.3582 90.8789C79.9102 92.8477 76.8029 95.3611 74.1565 98.3219C72.5152 100.124 70.7483 101.808 68.8689 103.36C65.9619 105.727 62.5818 106.834 57.3248 106.757Z" fill="white"/>
<path d="M12.5719 111.47C12.5754 111.255 12.5899 111.041 12.6154 110.827C12.9303 108.361 12.2682 105.869 10.77 103.882C5.81697 96.972 3.04884 89.2891 3.20553 80.7033C3.22319 77.2813 4.12243 73.9213 5.81697 70.9456C10.8744 62.1081 22.3561 62.0213 27.5789 70.8241C28.844 72.9949 29.651 75.4006 29.9504 77.8937C30.2498 80.3867 30.0352 82.9144 29.3199 85.3218C28.7123 87.6689 27.8085 89.9296 26.6301 92.0497C24.5087 95.8747 22.1661 99.5733 19.6141 103.127C17.4854 105.899 16.3568 109.307 16.4107 112.798C16.4107 113.909 16.4629 115.02 16.4629 116.131C16.4629 117.868 15.784 118.875 14.6088 118.901C13.4337 118.927 12.6763 118.033 12.5893 116.227C12.511 114.777 12.5719 113.319 12.5719 111.47Z" fill="#FA8078"/>
<path d="M141.947 105.137C140.716 104.981 139.467 104.895 138.253 104.652C137.582 104.576 136.958 104.271 136.484 103.79C136.011 103.308 135.717 102.679 135.651 102.007C135.313 99.7484 135.099 97.473 135.01 95.1909C135.01 92.0258 136.293 90.777 139.45 90.8031C142.302 90.9155 145.133 90.2692 147.653 88.93C149.931 87.7042 151.854 85.9122 153.238 83.7269C155.579 79.9634 157.782 76.1132 160.054 72.3063C160.661 71.3004 161.224 70.2598 161.918 69.3145C162.352 68.6302 163.016 68.1237 163.79 67.8866C164.565 67.6496 165.399 67.6978 166.141 68.0225C167.768 68.6257 169.323 69.405 170.781 70.3465C171.49 70.787 172.024 71.4604 172.291 72.2514C172.559 73.0424 172.543 73.9018 172.246 74.6823C171.584 76.799 170.73 78.851 169.697 80.8132C166.482 86.0163 163.129 91.1037 159.637 96.0755C157.534 98.9457 154.759 101.256 151.555 102.805C148.583 104.334 145.29 105.133 141.947 105.137V105.137Z" fill="#FA8078"/>
<path d="M251.159 71.4584C251.558 70.4265 251.905 69.3772 252.356 68.3713C252.574 67.9001 252.923 67.5016 253.361 67.2233C253.799 66.945 254.308 66.7986 254.827 66.8017C259.657 66.3421 264.47 65.8044 269.283 65.3015C270.046 65.2234 270.801 65.1367 271.564 65.1367C274.443 65.1367 275.9 66.0906 276.767 68.8742C277.173 70.1261 277.409 71.427 277.469 72.7418C277.603 77.7983 277.057 82.8498 275.847 87.7612C275.325 89.9894 274.296 92.0668 272.838 93.8314C271.294 95.8336 269.019 97.141 266.511 97.4662C264.004 97.7914 261.47 97.1079 259.467 95.5658C257.675 94.2542 256.194 92.5635 255.131 90.6142C254.784 90.0159 254.463 89.4089 254.073 88.7151C251.228 89.1227 248.341 89.4175 246.025 87.1282C244.4 85.4822 243.469 83.2752 243.424 80.9626C243.164 75.3607 245.774 72.1521 251.159 71.4584ZM252.399 84.995C252.122 82.1333 251.862 79.4537 251.593 76.7742C251.48 75.5861 250.673 75.0398 249.607 75.4994C248.936 75.8397 248.37 76.3551 247.968 76.991C247.491 77.8023 247.201 78.7096 247.118 79.6471C247.036 80.5846 247.163 81.5286 247.491 82.4108C248.254 84.9169 249.772 85.68 252.399 84.995Z" fill="#FA8078"/>
<path d="M311.853 81.6358C309.598 82.7891 307.569 84.0205 305.401 84.905C303.001 85.9746 300.309 86.1985 297.765 85.5401C295.221 84.8817 292.976 83.3799 291.396 81.2802C290.541 80.1937 289.913 78.9463 289.549 77.6121C288.873 75.0106 290.087 73.0941 292.775 72.5478C294.686 72.2232 296.615 72.0119 298.55 71.9148C304.768 71.3945 310.986 70.8048 317.212 70.4232C322.883 70.085 328.572 69.9896 334.252 69.7902L341.527 69.4954C341.874 69.4651 342.222 69.4651 342.568 69.4954C344.302 69.7035 344.953 70.6747 344.493 72.4004C343.745 75.4598 342.096 78.2241 339.758 80.335C335.38 84.3839 329.661 86.675 323.698 86.7694C319.293 86.8388 315.382 85.512 312.373 82.0607C312.212 81.9042 312.038 81.762 311.853 81.6358V81.6358Z" fill="#FA8078"/>
<path d="M375 70.7917C374.358 85.8805 364.333 96.434 349.713 98.4719C347.578 98.7249 345.417 98.6518 343.304 98.2551C340.023 97.7132 336.782 96.9542 333.601 95.9831C331.927 95.4628 330.453 94.2487 328.935 93.3816C328.479 93.0523 328.112 92.614 327.869 92.1068C327.649 91.8066 327.52 91.4493 327.498 91.0776C327.475 90.7059 327.561 90.3358 327.744 90.0117C327.927 89.6875 328.2 89.4231 328.53 89.2502C328.86 89.0773 329.232 89.0033 329.603 89.037C337.46 88.9243 344.345 86.0019 350.675 81.6747C354.318 79.1773 357.934 76.5758 361.35 73.8095C363.752 71.8497 365.834 69.4736 368.036 67.297C368.574 66.7594 369.033 66.135 369.562 65.5627C370.43 64.6955 371.297 63.9844 372.676 64.3833C374.054 64.7822 374.41 65.9009 374.644 67.0802C374.878 68.2596 374.896 69.5517 375 70.7917Z" fill="white"/>
<path d="M208.206 102.373C202.409 102.426 196.734 100.711 191.937 97.4561C189.456 95.7911 187.36 93.615 185.789 91.0737C184.03 88.2929 183.282 84.9914 183.671 81.7241C184.059 78.4567 185.56 75.4227 187.922 73.1319C190.65 70.4288 193.894 68.3025 197.461 66.8796C198.805 66.3246 200.141 65.7523 201.485 65.1886C202.869 64.6199 204.111 63.7543 205.124 62.653C206.137 61.5517 206.896 60.2415 207.347 58.8149C207.737 57.6876 208.023 56.4648 209.558 56.4648C211.093 56.4648 211.501 57.6615 211.77 58.8149C212.368 61.3557 214.007 63.0467 216.027 64.5035C218.048 65.9604 219.982 67.3045 221.889 68.8394C224.646 70.8477 226.941 73.4231 228.619 76.3925C231.983 82.7315 231.931 89.0185 227.691 94.9673C226.635 96.3379 225.347 97.5121 223.884 98.436C219.756 101.133 214.657 102.434 208.206 102.373Z" fill="#00BE88"/>
</svg>
