<svg width="375" height="137" viewBox="0 0 375 137" fill="none" xmlns="http://www.w3.org/2000/svg">
<path d="M-29 43.4327C-28.72 37.2727 -28.38 29.8527 -28 22.4327C-27.996 21.873 -27.9256 21.3157 -27.79 20.7727C-27.6971 20.2543 -27.4138 19.7894 -26.9956 19.4692C-26.5774 19.1491 -26.0547 18.997 -25.53 19.0427C-21.42 19.4427 -17.43 18.4527 -13.39 18.1227C-5.74 17.5227 1.88 16.7027 9.53 16.0427C14.32 15.6627 16.53 17.8127 16.62 22.8427C16.82 38.0027 9.62 55.7227 -10.02 62.2427C-14.3282 63.7359 -18.8003 64.7062 -23.34 65.1327C-26.49 65.3927 -27.88 64.4027 -28.12 61.2127C-28.54 55.7227 -28.68 50.2127 -29 43.4327Z" fill="#FA8078"/>
<path d="M59.3559 65.0055C52.3954 64.8307 45.5147 63.4783 39.0059 61.0055C31.1959 58.0055 25.6059 52.7255 23.0059 44.6155C21.5547 39.9937 21.6566 35.024 23.2959 30.4655C24.0933 28.0225 25.3854 25.77 27.0916 23.8483C28.7979 21.9267 30.8818 20.3771 33.2133 19.2963C35.5448 18.2154 38.0739 17.6265 40.643 17.5661C43.2122 17.5058 45.7662 17.9753 48.1459 18.9455C50.872 20.1066 53.8018 20.7142 56.7648 20.7331C59.7279 20.752 62.6651 20.1817 65.4059 19.0555C67.5617 18.1845 69.7652 17.4366 72.0059 16.8155C87.5959 12.5155 99.0959 26.0055 97.8559 38.8655C97.4823 43.868 95.2192 48.5408 91.5259 51.9355C85.1159 57.8455 72.0859 65.4155 59.3559 65.0055Z" fill="#00BE88"/>
<path d="M151.475 35.6853C151.325 38.5653 151.185 41.9953 150.965 45.4253C150.908 47.4778 150.287 49.475 149.171 51.1982C148.054 52.9215 146.485 54.3043 144.635 55.1953C144.153 55.4741 143.647 55.7117 143.125 55.9053C135.665 58.4253 128.125 60.3953 120.125 59.9053C117.335 59.7353 114.545 59.4953 111.775 59.1353C109.38 58.849 107.091 57.9841 105.105 56.6153C102.105 54.4953 102.305 51.7753 105.625 50.2253C106.495 49.8153 107.395 49.4853 108.275 49.1153C112.557 47.3124 116.441 44.6821 119.705 41.3753C124.144 36.883 128.161 31.9925 131.705 26.7653C133.467 23.8992 135.709 21.3586 138.335 19.2553C139.933 18.0497 141.698 17.0829 143.575 16.3853C144.188 16.1245 144.849 15.9934 145.515 16.0003C146.181 16.0071 146.839 16.1517 147.447 16.425C148.054 16.6984 148.599 17.0944 149.046 17.5884C149.493 18.0824 149.833 18.6635 150.045 19.2953C150.814 21.1344 151.277 23.0868 151.415 25.0753C151.635 28.4153 151.475 31.7753 151.475 35.6853Z" fill="#FA8078"/>
<path d="M191.794 17.9059C194.627 18.2228 197.48 18.3687 200.27 18.8539C206.823 20.0815 209.835 23.5596 210.139 30.1356C210.43 37.0104 210.012 43.897 208.891 50.686C208.079 55.7398 206.093 57.7932 200.891 58.0894C194.836 58.4882 188.747 58.4132 182.656 58.3626C176.565 58.3121 170.871 58.1329 164.989 57.9821C163.614 57.9887 162.239 57.897 160.877 57.7077C158.534 57.3097 157.653 56.2341 157.591 53.9145C157.408 47.3644 157.192 40.7857 157.111 34.2098C157.079 32.0494 157.225 29.89 157.549 27.7537C157.754 25.8808 158.478 24.1025 159.641 22.6198C160.803 21.137 162.357 20.0088 164.127 19.3626C167.523 18.0152 171.142 17.3127 174.796 17.291C180.486 17.173 186.17 17.3264 191.856 17.344L191.794 17.9059Z" fill="white"/>
<path d="M259.175 20.3986C261.065 19.1186 262.515 17.9786 264.105 17.0986C266.215 15.9286 268.515 15.2986 270.615 17.0986C272.715 18.8986 272.715 21.2686 272.055 23.7086C271.397 26.0297 270.085 28.1124 268.275 29.7086C265.745 32.0286 263.045 34.1686 260.415 36.3786C259.775 36.9086 259.105 37.3786 258.065 38.2486C259.385 38.4486 260.145 38.5586 260.915 38.6886C262.772 38.8844 264.521 39.6573 265.915 40.8986C268.395 43.2586 268.815 46.3786 266.725 49.0886C265.695 50.4228 264.406 51.535 262.935 52.3586C253.365 57.5086 243.875 62.8486 233.525 66.3586C232.995 66.5386 232.465 66.7286 231.915 66.8586C229.915 67.3286 229.005 66.8586 227.995 65.0586C224.086 57.727 221.046 49.9645 218.935 41.9286C218.011 38.7658 217.759 35.4446 218.195 32.1786C218.344 30.9893 218.682 29.8314 219.195 28.7486C219.393 28.2605 219.701 27.8247 220.095 27.4751C220.489 27.1255 220.958 26.8717 221.466 26.7333C221.974 26.5949 222.507 26.5757 223.024 26.6772C223.541 26.7787 224.027 26.9982 224.445 27.3186C225.494 28.0988 226.496 28.9402 227.445 29.8386C227.575 28.7086 227.685 27.7886 227.775 26.8386C228.042 23.4831 228.873 20.1967 230.235 17.1186C230.723 16.022 231.341 14.9879 232.075 14.0386C234.685 10.7886 238.755 10.9586 241.195 14.3686C241.475 14.7586 241.685 15.1886 241.935 15.5986C242.185 16.0086 242.335 16.2086 242.695 16.7686C243.155 15.7686 243.505 15.1186 243.825 14.4186C245.493 10.4528 247.907 6.84418 250.935 3.78855C252.086 2.66587 253.365 1.68245 254.745 0.858553C258.305 -1.14145 261.475 0.458553 261.695 4.55855C261.748 6.95261 261.55 9.3456 261.105 11.6986C260.725 14.0586 260.025 16.3686 259.485 18.6986C259.375 19.1586 259.315 19.6286 259.175 20.3986Z" fill="#FA8078"/>
<path d="M116.974 90.47C117.164 98.4 113.154 104.65 106.654 106.47C100.154 108.29 94.2738 106.95 89.5738 101.93C85.0438 97.04 83.9738 91.32 85.9038 85.04C86.9662 81.8849 89.1183 79.2116 91.9738 77.5C93.4431 76.5596 94.9846 75.7371 96.5838 75.04C103.754 71.81 113.144 76.5 115.584 83.65C115.969 84.6958 116.277 85.7687 116.504 86.86C116.784 88.23 116.874 89.59 116.974 90.47Z" fill="#FA8078"/>
<path d="M316.498 41.1382C316.498 45.8582 316.378 50.1382 314.968 54.1382C312.878 60.1382 308.868 63.9682 302.388 64.8382C299.429 65.1867 296.436 64.6103 293.818 63.1882C291.038 61.7438 288.619 59.6933 286.738 57.1882C281.868 51.0724 279.145 43.5246 278.988 35.7082C278.974 31.1435 279.191 26.581 279.638 22.0382C279.868 19.1482 280.858 18.5082 283.798 18.2482C290.648 17.6482 297.478 16.9382 304.318 16.2482C306.618 16.0282 308.898 15.6482 311.138 16.7282C311.696 16.9423 312.192 17.2907 312.583 17.7425C312.973 18.1943 313.246 18.7355 313.378 19.3182C314.928 26.6982 316.698 34.0382 316.498 41.1382Z" fill="#FA8078"/>
<path d="M329.349 43.2122C322.409 39.5122 320.189 33.6522 323.489 28.0022C326.789 22.3522 333.749 21.0022 339.689 24.6522C347.389 19.5322 351.429 19.7322 358.149 25.6522C358.789 25.2522 359.439 24.8122 360.149 24.4122C361.816 23.3652 363.697 22.7057 365.652 22.4824C367.608 22.2591 369.589 22.4778 371.449 23.1222C375.469 24.4922 377.489 27.7422 377.099 32.0022C376.903 34.7324 375.864 37.3343 374.127 39.4495C372.389 41.5647 370.039 43.089 367.399 43.8122C367.119 43.9125 366.845 44.0294 366.579 44.1622C366.909 45.9177 366.848 47.7244 366.398 49.4532C365.949 51.1819 365.123 52.79 363.979 54.1622C362.734 55.8402 360.98 57.0713 358.979 57.6722C354.359 59.0422 350.619 57.6022 347.069 52.9122C342.799 56.7722 338.069 57.4522 333.149 54.2822C329.489 52.0022 328.559 49.0022 329.349 43.2122Z" fill="white"/>
<path d="M37.405 122.996C30.6388 122.432 23.7583 118.823 19.0246 111.657C15.5667 106.419 16.6138 99.7289 21.3826 95.3361C24.5648 92.2993 28.6533 90.3885 33.0233 89.8958C35.1878 89.6493 37.3522 89.3588 39.5167 89.1123C42.7403 88.7369 45.7743 87.3925 48.2186 85.2565C49.6176 84.0769 50.9726 82.8444 52.3628 81.6648C57.4572 77.3864 63.0795 77.1047 68.9747 79.5256C73.5412 81.4271 76.4183 86.6738 75.9344 91.7004C75.895 92.1897 75.895 92.6813 75.9344 93.1706C76.0479 94.6895 75.7862 96.2131 75.1725 97.607C74.5587 99.0009 73.6117 100.222 72.4149 101.164C70.8633 102.488 69.1933 103.667 67.4261 104.685C63.45 106.956 59.8667 109.854 56.8149 113.268C54.9222 115.347 52.8846 117.288 50.7174 119.078C47.3651 121.807 43.4673 123.084 37.405 122.996Z" fill="white"/>
<path d="M-14.2044 128.43C-14.2003 128.182 -14.1836 127.935 -14.1542 127.689C-13.7911 124.845 -14.5546 121.972 -16.2823 119.68C-21.994 111.712 -25.1861 102.852 -25.0054 92.951C-24.9851 89.0049 -23.9481 85.1302 -21.994 81.6987C-16.1618 71.5075 -2.92151 71.4074 3.10138 81.5586C4.56026 84.0619 5.49087 86.8361 5.8361 89.711C6.18133 92.5859 5.93391 95.5008 5.109 98.2769C4.40837 100.984 3.36612 103.591 2.00722 106.035C-0.4391 110.446 -3.14058 114.711 -6.08352 118.809C-8.53824 122.006 -9.83977 125.936 -9.77756 129.962C-9.77756 131.243 -9.71733 132.524 -9.71733 133.806C-9.71733 135.808 -10.5003 136.969 -11.8555 136.999C-13.2106 137.029 -14.0839 135.998 -14.1843 133.916C-14.2746 132.244 -14.2044 130.562 -14.2044 128.43Z" fill="#FA8078"/>
<path d="M134.987 121.128C133.567 120.948 132.127 120.848 130.727 120.568C129.954 120.48 129.234 120.129 128.687 119.574C128.141 119.019 127.802 118.293 127.727 117.518C127.337 114.913 127.09 112.289 126.987 109.658C126.987 106.008 128.467 104.568 132.107 104.598C135.396 104.727 138.661 103.982 141.567 102.438C144.194 101.024 146.412 98.9577 148.007 96.4377C150.707 92.0977 153.247 87.6577 155.867 83.2677C156.567 82.1077 157.217 80.9077 158.017 79.8177C158.517 79.0285 159.283 78.4444 160.176 78.1711C161.07 77.8978 162.031 77.9533 162.887 78.3277C164.763 79.0233 166.557 79.922 168.237 81.0077C169.055 81.5157 169.671 82.2922 169.98 83.2044C170.288 84.1166 170.269 85.1076 169.927 86.0077C169.163 88.4486 168.179 90.8149 166.987 93.0777C163.281 99.0777 159.414 104.944 155.387 110.678C152.962 113.988 149.762 116.652 146.067 118.438C142.64 120.201 138.842 121.123 134.987 121.128Z" fill="#FA8078"/>
<path d="M260.928 82.29C261.388 81.1 261.788 79.89 262.308 78.73C262.559 78.1867 262.961 77.7271 263.467 77.4062C263.972 77.0853 264.559 76.9165 265.158 76.92C270.728 76.39 276.278 75.77 281.828 75.19C282.708 75.1 283.578 75 284.458 75C287.778 75 289.458 76.1 290.458 79.31C290.926 80.7537 291.199 82.2538 291.268 83.77C291.422 89.601 290.793 95.4263 289.398 101.09C288.796 103.659 287.608 106.055 285.928 108.09C284.147 110.399 281.523 111.906 278.632 112.282C275.74 112.657 272.818 111.868 270.508 110.09C268.441 108.578 266.734 106.628 265.508 104.38C265.108 103.69 264.738 102.99 264.288 102.19C261.008 102.66 257.678 103 255.008 100.36C253.134 98.4619 252.06 95.9168 252.008 93.25C251.708 86.79 254.718 83.09 260.928 82.29ZM262.358 97.9C262.038 94.6 261.738 91.51 261.428 88.42C261.298 87.05 260.368 86.42 259.138 86.95C258.364 87.3424 257.711 87.9367 257.248 88.67C256.698 89.6056 256.363 90.6519 256.268 91.733C256.173 92.814 256.32 93.9027 256.698 94.92C257.578 97.81 259.328 98.69 262.358 97.9Z" fill="#FA8078"/>
<path d="M330.919 94.0262C328.319 95.3562 325.979 96.7762 323.479 97.7962C320.712 99.0296 317.607 99.2878 314.674 98.5285C311.74 97.7693 309.151 96.0375 307.329 93.6162C306.343 92.3633 305.619 90.9247 305.199 89.3862C304.419 86.3862 305.819 84.1762 308.919 83.5462C311.123 83.1719 313.347 82.9281 315.579 82.8162C322.749 82.2162 329.919 81.5362 337.099 81.0962C343.639 80.7062 350.199 80.5962 356.749 80.3662L365.139 80.0262C365.539 79.9913 365.94 79.9913 366.339 80.0262C368.339 80.2662 369.089 81.3862 368.559 83.3762C367.697 86.9042 365.795 90.0919 363.099 92.5262C358.05 97.1952 351.456 99.8373 344.579 99.9462C339.499 100.026 334.989 98.4962 331.519 94.5162C331.334 94.3357 331.133 94.1718 330.919 94.0262Z" fill="#FA8078"/>
<path d="M403.74 81.5212C403 98.9212 391.44 111.091 374.58 113.441C372.118 113.733 369.626 113.649 367.19 113.191C363.406 112.566 359.668 111.691 356 110.571C354.07 109.971 352.37 108.571 350.62 107.571C350.094 107.192 349.671 106.686 349.39 106.101C349.136 105.755 348.987 105.343 348.962 104.914C348.936 104.486 349.035 104.059 349.246 103.685C349.458 103.311 349.772 103.006 350.152 102.807C350.533 102.608 350.962 102.522 351.39 102.561C360.45 102.431 368.39 99.0612 375.69 94.0712C379.89 91.1912 384.06 88.1912 388 85.0012C390.77 82.7412 393.17 80.0012 395.71 77.4912C396.33 76.8712 396.86 76.1512 397.47 75.4912C398.47 74.4912 399.47 73.6712 401.06 74.1312C402.65 74.5912 403.06 75.8812 403.33 77.2412C403.6 78.6012 403.62 80.0912 403.74 81.5212Z" fill="white"/>
<path d="M211.396 117.94C204.712 118.001 198.168 116.023 192.636 112.27C189.775 110.35 187.358 107.841 185.546 104.91C183.518 101.703 182.655 97.8961 183.103 94.1283C183.551 90.3604 185.282 86.8617 188.006 84.22C191.152 81.1029 194.893 78.6509 199.006 77.01C200.556 76.37 202.096 75.71 203.646 75.06C205.242 74.4042 206.675 73.406 207.843 72.136C209.011 70.866 209.886 69.3552 210.406 67.71C210.856 66.41 211.186 65 212.956 65C214.726 65 215.196 66.38 215.506 67.71C216.196 70.64 218.086 72.59 220.416 74.27C222.746 75.95 224.976 77.5 227.176 79.27C230.355 81.5859 233.001 84.5559 234.936 87.98C238.816 95.29 238.756 102.54 233.866 109.4C232.649 110.981 231.163 112.335 229.476 113.4C224.716 116.51 218.836 118.01 211.396 117.94Z" fill="#00BE88"/>
</svg>
