<svg width="361" height="96" viewBox="0 0 361 96" fill="none" xmlns="http://www.w3.org/2000/svg">
<path d="M0 28.8525C0.184113 24.8437 0.40768 20.015 0.657548 15.1862C0.660146 14.822 0.706499 14.4593 0.795633 14.1059C0.856692 13.7686 1.04301 13.466 1.31799 13.2577C1.59296 13.0494 1.93671 12.9503 2.28169 12.9801C4.98421 13.2404 7.60783 12.5961 10.2643 12.3814C15.2946 11.9909 20.3051 11.4573 25.3353 11.0278C28.485 10.7805 29.9382 12.1796 29.9973 15.453C30.1289 25.3188 25.3945 36.8505 12.4803 41.0935C9.64738 42.0653 6.7068 42.6967 3.72172 42.9743C1.65045 43.1435 0.736454 42.4992 0.578642 40.4232C0.302472 36.8505 0.210415 33.2647 0 28.8525Z" fill="#FA8078"/>
<path d="M70.5975 42.9896C66.0158 42.8755 61.4867 41.9926 57.2023 40.3785C52.0615 38.4202 48.3819 34.9735 46.6705 29.6795C45.7153 26.6625 45.7823 23.4184 46.8614 20.4427C47.3862 18.848 48.2367 17.3776 49.3599 16.1232C50.483 14.8688 51.8547 13.8573 53.3894 13.1517C54.9241 12.4462 56.5889 12.0617 58.28 12.0223C59.9711 11.9829 61.6522 12.2895 63.2186 12.9228C65.0131 13.6807 66.9416 14.0773 68.892 14.0896C70.8424 14.102 72.7758 13.7297 74.5799 12.9946C75.9989 12.426 77.4494 11.9378 78.9242 11.5324C89.1862 8.72542 96.756 17.5314 95.9397 25.926C95.6938 29.1915 94.2041 32.2418 91.7731 34.4578C87.5538 38.3157 78.9769 43.2572 70.5975 42.9896Z" fill="#00BE88"/>
<path d="M143.963 23.9801C143.864 25.8792 143.772 28.1409 143.627 30.4025C143.589 31.7559 143.18 33.0729 142.444 34.2091C141.708 35.3454 140.674 36.2572 139.454 36.8447C139.136 37.0286 138.803 37.1852 138.459 37.3129C133.541 38.9745 128.571 40.2735 123.297 39.9504C121.458 39.8383 119.619 39.6801 117.793 39.4427C116.214 39.2539 114.705 38.6836 113.396 37.781C111.418 36.3831 111.55 34.5896 113.739 33.5676C114.312 33.2972 114.906 33.0796 115.486 32.8357C118.308 31.6469 120.869 29.9125 123.02 27.732C125.946 24.7699 128.594 21.5452 130.931 18.0984C132.092 16.2086 133.57 14.5333 135.301 13.1465C136.355 12.3515 137.518 11.714 138.755 11.254C139.159 11.0821 139.595 10.9957 140.034 11.0002C140.473 11.0047 140.907 11.1 141.307 11.2803C141.708 11.4605 142.067 11.7217 142.362 12.0474C142.657 12.3731 142.881 12.7563 143.02 13.1728C143.527 14.3855 143.832 15.6729 143.923 16.9841C144.068 19.1864 143.963 21.402 143.963 23.9801Z" fill="#FA8078"/>
<path d="M185.707 11.8336C187.577 12.0428 189.46 12.1392 191.302 12.4594C195.628 13.2698 197.616 15.5656 197.816 19.9064C198.009 24.4445 197.733 28.9903 196.993 33.4717C196.457 36.8077 195.146 38.1631 191.712 38.3586C187.715 38.6218 183.696 38.5723 179.675 38.539C175.654 38.5056 171.896 38.3873 168.013 38.2878C167.105 38.2922 166.198 38.2316 165.299 38.1066C163.753 37.8439 163.171 37.1339 163.13 35.6028C163.009 31.279 162.866 26.9365 162.813 22.5958C162.792 21.1697 162.888 19.7443 163.102 18.3342C163.237 17.0979 163.715 15.924 164.483 14.9452C165.25 13.9665 166.276 13.2217 167.444 12.7952C169.686 11.9058 172.075 11.4421 174.487 11.4278C178.242 11.3498 181.994 11.4511 185.748 11.4628L185.707 11.8336Z" fill="white"/>
<path d="M243.228 13.3902C244.478 12.55 245.436 11.8017 246.487 11.224C247.882 10.456 249.403 10.0424 250.791 11.224C252.179 12.4056 252.179 13.9613 251.743 15.563C251.307 17.0867 250.44 18.4539 249.244 19.5016C247.571 21.0245 245.787 22.4293 244.048 23.88C243.625 24.2279 243.182 24.5364 242.494 25.1075C243.367 25.2388 243.869 25.311 244.378 25.3964C245.606 25.5249 246.762 26.0323 247.684 26.8471C249.323 28.3963 249.601 30.4443 248.219 32.2232C247.538 33.0991 246.686 33.8292 245.714 34.3698C239.387 37.7504 233.114 41.2557 226.272 43.5598C225.921 43.678 225.571 43.8027 225.207 43.888C223.885 44.1965 223.284 43.888 222.616 42.7064C220.032 37.8938 218.022 32.7983 216.627 27.5232C216.016 25.4471 215.849 23.2669 216.137 21.123C216.236 20.3423 216.459 19.5822 216.799 18.8714C216.929 18.551 217.133 18.265 217.393 18.0355C217.654 17.806 217.964 17.6394 218.3 17.5485C218.636 17.4577 218.988 17.4451 219.33 17.5117C219.671 17.5784 219.993 17.7225 220.269 17.9327C220.962 18.4449 221.625 18.9973 222.252 19.5869C222.338 18.8452 222.411 18.2413 222.471 17.6177C222.647 15.415 223.196 13.2578 224.097 11.2371C224.419 10.5173 224.828 9.83853 225.313 9.21534C227.039 7.08194 229.729 7.19353 231.342 9.43196C231.527 9.68797 231.666 9.97023 231.831 10.2394C231.997 10.5085 232.096 10.6398 232.334 11.0074C232.638 10.351 232.869 9.92428 233.081 9.46478C234.183 6.86156 235.779 4.49273 237.781 2.48692C238.542 1.74996 239.387 1.10441 240.3 0.56358C242.653 -0.749281 244.749 0.301008 244.894 2.99237C244.929 4.56391 244.798 6.13474 244.504 7.67929C244.253 9.22847 243.79 10.7448 243.433 12.2743C243.36 12.5763 243.321 12.8848 243.228 13.3902Z" fill="#FA8078"/>
<path d="M121.996 63.3948C122.126 68.8811 119.369 73.2052 114.899 74.4644C110.429 75.7236 106.386 74.7965 103.154 71.3234C100.039 67.9402 99.303 63.9828 100.63 59.638C101.361 57.4551 102.841 55.6057 104.804 54.4215C105.815 53.7709 106.875 53.2018 107.974 52.7195C112.905 50.4848 119.362 53.7296 121.04 58.6763C121.305 59.3999 121.516 60.1422 121.672 60.8972C121.865 61.845 121.927 62.7859 121.996 63.3948Z" fill="#FA8078"/>
<path d="M302.99 26.9242C302.99 29.9141 302.91 32.6254 301.97 35.1592C300.578 38.96 297.907 41.3862 293.59 41.9373C291.619 42.158 289.624 41.7929 287.88 40.8921C286.028 39.9771 284.416 38.6782 283.163 37.0913C279.919 33.2171 278.105 28.4358 278 23.4845C277.991 20.5929 278.136 17.7027 278.433 14.825C278.587 12.9943 279.246 12.5889 281.205 12.4242C285.768 12.0441 290.318 11.5943 294.875 11.1572C296.408 11.0179 297.927 10.7772 299.419 11.4613C299.79 11.5969 300.121 11.8176 300.381 12.1038C300.642 12.39 300.824 12.7329 300.911 13.102C301.944 17.777 303.123 22.4266 302.99 26.9242Z" fill="#FA8078"/>
<path d="M327.938 27.9408C323.283 25.4521 321.794 21.5104 324.007 17.71C326.221 13.9096 330.89 13.0015 334.874 15.4566C340.039 12.0127 342.749 12.1473 347.257 16.1293C347.686 15.8602 348.122 15.5643 348.598 15.2952C349.716 14.5909 350.978 14.1473 352.29 13.9971C353.602 13.8469 354.931 13.994 356.178 14.4275C358.875 15.349 360.23 17.5351 359.968 20.4005C359.836 22.2369 359.14 23.9871 357.974 25.4099C356.809 26.8326 355.232 27.8579 353.461 28.3444C353.274 28.4119 353.09 28.4905 352.911 28.5798C353.133 29.7606 353.092 30.9759 352.79 32.1387C352.489 33.3016 351.934 34.3832 351.167 35.3062C350.332 36.4349 349.156 37.263 347.813 37.6672C344.714 38.5887 342.206 37.6201 339.824 34.4654C336.96 37.0618 333.787 37.5192 330.487 35.387C328.032 33.8533 327.408 31.8354 327.938 27.9408Z" fill="white"/>
<path d="M56.1886 85.9971C51.4867 85.6089 46.7053 83.1225 43.4157 78.1861C41.0128 74.5778 41.7404 69.9688 45.0544 66.9427C47.2657 64.8506 50.1069 63.5343 53.1436 63.1949C54.6478 63.0251 56.1519 62.8249 57.656 62.6551C59.8961 62.3965 62.0045 61.4704 63.7031 59.9989C64.6753 59.1863 65.6169 58.3373 66.5829 57.5246C70.1231 54.5773 74.0302 54.3833 78.1268 56.051C81.3001 57.3609 83.2995 60.9753 82.9632 64.4381C82.9358 64.7751 82.9358 65.1138 82.9632 65.4508C83.0421 66.4972 82.8603 67.5468 82.4338 68.507C82.0073 69.4673 81.3492 70.3088 80.5175 70.9573C79.4392 71.8695 78.2788 72.6815 77.0507 73.3831C74.2876 74.9471 71.7975 76.9438 69.6768 79.2959C68.3616 80.7277 66.9456 82.0652 65.4396 83.2984C63.11 85.1784 60.4014 86.0577 56.1886 85.9971Z" fill="white"/>
<path d="M10.6704 90.0146C10.6733 89.8416 10.6852 89.6689 10.706 89.4972C10.9637 87.5108 10.4219 85.5042 9.19578 83.9037C5.14232 78.3383 2.87693 72.1505 3.00516 65.2357C3.01961 62.4796 3.75554 59.7734 5.14232 57.3769C9.28127 50.2592 18.6776 50.1893 22.9519 57.279C23.9873 59.0273 24.6477 60.9649 24.8927 62.9728C25.1377 64.9806 24.9621 67.0164 24.3767 68.9553C23.8795 70.8456 23.1398 72.6664 22.1754 74.3739C20.4393 77.4545 18.5221 80.4334 16.4336 83.2955C14.6915 85.5282 13.7679 88.2725 13.812 91.0843C13.812 91.9793 13.8548 92.8742 13.8548 93.7692C13.8548 95.1675 13.2991 95.9786 12.3374 95.9996C11.3757 96.0205 10.7559 95.3004 10.6847 93.8461C10.6206 92.6785 10.6704 91.5038 10.6704 90.0146Z" fill="#FA8078"/>
<path d="M144.554 85C143.568 84.8748 142.569 84.8052 141.597 84.6105C141.059 84.5493 140.559 84.3052 140.18 83.919C139.801 83.5328 139.566 83.028 139.514 82.4889C139.243 80.6772 139.071 78.8519 139 77.0214C139 74.4824 140.028 73.4807 142.555 73.5016C144.838 73.5918 147.104 73.0733 149.122 71.9991C150.946 71.0158 152.486 69.5784 153.594 67.8254C155.468 64.8065 157.232 61.718 159.051 58.6643C159.537 57.8574 159.988 57.0226 160.543 56.2644C160.89 55.7154 161.422 55.3091 162.042 55.119C162.662 54.9289 163.33 54.9675 163.924 55.228C165.227 55.7118 166.472 56.337 167.639 57.0922C168.207 57.4455 168.634 57.9857 168.848 58.6202C169.062 59.2548 169.05 59.9441 168.812 60.5702C168.282 62.2681 167.599 63.9142 166.771 65.4882C164.197 69.6618 161.513 73.7427 158.717 77.7309C157.033 80.0333 154.812 81.8867 152.247 83.1288C149.867 84.3552 147.23 84.9966 144.554 85V85Z" fill="#FA8078"/>
<path d="M236.142 58.0716C236.458 57.2437 236.733 56.4019 237.09 55.5949C237.262 55.2169 237.539 54.8972 237.886 54.674C238.233 54.4507 238.636 54.3333 239.048 54.3357C242.874 53.967 246.687 53.5357 250.499 53.1322C251.104 53.0696 251.702 53 252.306 53C254.587 53 255.741 53.7653 256.428 55.9984C256.75 57.0028 256.937 58.0464 256.984 59.1012C257.09 63.1578 256.658 67.2104 255.7 71.1506C255.286 72.9381 254.47 74.6048 253.316 76.0204C252.093 77.6267 250.29 78.6755 248.304 78.9364C246.318 79.1973 244.31 78.6489 242.723 77.4118C241.303 76.3596 240.131 75.0032 239.288 73.4394C239.013 72.9594 238.759 72.4724 238.45 71.9158C236.197 72.2428 233.909 72.4793 232.075 70.6427C230.788 69.3222 230.05 67.5516 230.014 65.6964C229.808 61.2022 231.876 58.6281 236.142 58.0716ZM237.124 68.9313C236.904 66.6355 236.698 64.4859 236.485 62.3362C236.396 61.3831 235.757 60.9448 234.912 61.3135C234.381 61.5865 233.932 62 233.614 62.5101C233.236 63.161 233.006 63.8889 232.941 64.641C232.875 65.3931 232.976 66.1505 233.236 66.8582C233.84 68.8687 235.043 69.4809 237.124 68.9313Z" fill="#FA8078"/>
<path d="M290.309 65.8434C288.473 66.7767 286.821 67.7733 285.056 68.4891C283.102 69.3547 280.91 69.5359 278.839 69.003C276.768 68.4702 274.94 67.2549 273.654 65.5556C272.957 64.6764 272.446 63.6668 272.15 62.5871C271.599 60.4817 272.588 58.9308 274.776 58.4887C276.332 58.226 277.902 58.0549 279.478 57.9763C284.541 57.5553 289.603 57.0781 294.672 56.7693C299.289 56.4956 303.921 56.4184 308.545 56.257L314.469 56.0184C314.751 55.9939 315.034 55.9939 315.316 56.0184C316.728 56.1868 317.258 56.9728 316.884 58.3693C316.275 60.8453 314.932 63.0824 313.029 64.7907C309.464 68.0674 304.808 69.9215 299.953 69.9979C296.366 70.0541 293.182 68.9803 290.732 66.1872C290.601 66.0606 290.46 65.9455 290.309 65.8434V65.8434Z" fill="#FA8078"/>
<path d="M361 57.1267C360.487 68.987 352.468 77.2823 340.773 78.8842C339.065 79.083 337.337 79.0256 335.647 78.7137C333.022 78.2878 330.429 77.6913 327.885 76.9279C326.546 76.5189 325.367 75.5646 324.153 74.883C323.788 74.6242 323.495 74.2797 323.3 73.881C323.124 73.6451 323.02 73.3642 323.003 73.072C322.985 72.7799 323.054 72.4889 323.2 72.2342C323.347 71.9794 323.565 71.7715 323.829 71.6356C324.092 71.4997 324.39 71.4416 324.687 71.4681C330.972 71.3795 336.479 69.0824 341.543 65.6811C344.456 63.718 347.349 61.6731 350.082 59.4987C352.003 57.9583 353.668 56.0906 355.43 54.3797C355.86 53.9571 356.228 53.4663 356.651 53.0165C357.344 52.3348 358.038 51.7759 359.141 52.0895C360.244 52.403 360.528 53.2823 360.716 54.2093C360.903 55.1363 360.917 56.1519 361 57.1267Z" fill="white"/>
<path d="M197.73 81.9984C193.087 82.0398 188.543 80.6949 184.701 78.1429C182.714 76.8374 181.035 75.131 179.777 73.1382C178.368 70.9577 177.769 68.3689 178.08 65.8068C178.391 63.2447 179.594 60.8656 181.485 59.0693C183.67 56.9497 186.268 55.2824 189.125 54.1666C190.201 53.7314 191.271 53.2826 192.347 52.8406C193.456 52.3947 194.451 51.716 195.262 50.8524C196.073 49.9888 196.681 48.9614 197.042 47.8428C197.355 46.9588 197.584 46 198.813 46C200.042 46 200.369 46.9384 200.584 47.8428C201.063 49.8351 202.376 51.1611 203.994 52.3035C205.612 53.4458 207.161 54.4998 208.689 55.7034C210.897 57.2782 212.734 59.2977 214.078 61.6261C216.773 66.5967 216.731 71.5266 213.335 76.1913C212.49 77.2661 211.458 78.1868 210.286 78.9113C206.98 81.026 202.897 82.046 197.73 81.9984Z" fill="#00BE88"/>
</svg>
