<svg width="56" height="38" viewBox="0 0 56 38" fill="none" xmlns="http://www.w3.org/2000/svg">
<path d="M7.36171 22.2122C0.421711 18.5122 -1.79829 12.6522 1.50171 7.00224C4.80171 1.35224 11.7617 0.00223613 17.7017 3.65224C25.4017 -1.46776 29.4417 -1.26776 36.1617 4.65224C36.8017 4.25224 37.4517 3.81224 38.1617 3.41224C39.8286 2.36516 41.7093 1.70566 43.665 1.48239C45.6208 1.25912 47.6017 1.47778 49.4617 2.12224C53.4817 3.49224 55.5017 6.74224 55.1117 11.0022C54.9152 13.7324 53.8768 16.3343 52.1395 18.4495C50.4022 20.5647 48.0516 22.089 45.4117 22.8122C45.1317 22.9125 44.8579 23.0294 44.5917 23.1622C44.922 24.9177 44.8602 26.7244 44.4107 28.4532C43.9613 30.1819 43.1352 31.79 41.9917 33.1622C40.7466 34.8402 38.9929 36.0713 36.9917 36.6722C32.3717 38.0422 28.6317 36.6022 25.0817 31.9122C20.8117 35.7722 16.0817 36.4522 11.1617 33.2822C7.50171 31.0022 6.57171 28.0022 7.36171 22.2122Z" fill="#00BE88"/>
</svg>
