<svg width="59" height="52" viewBox="0 0 59 52" fill="none" xmlns="http://www.w3.org/2000/svg">
<path d="M43.9981 13.5676C45.7081 12.7376 47.3781 11.8076 49.1381 11.0976C50.7528 10.431 52.4269 9.91874 54.1381 9.5676C54.8615 9.37161 55.629 9.41579 56.3251 9.69352C57.0212 9.97124 57.6083 10.4675 57.9981 11.1076C58.3861 11.6799 58.5809 12.3613 58.5539 13.0522C58.5269 13.7431 58.2796 14.4073 57.8481 14.9476C56.7241 16.5917 55.378 18.0724 53.8481 19.3476C50.2181 22.0876 46.3881 24.5676 42.6381 27.1476L40.3181 28.6976C41.7481 28.8376 42.6781 28.8776 43.5781 29.0076C45.0681 29.2376 46.4081 29.8076 46.9681 31.3276C47.2159 32.0562 47.2316 32.8437 47.0131 33.5816C46.7946 34.3194 46.3526 34.9714 45.7481 35.4476C43.2413 37.7439 40.1644 39.3255 36.8381 40.0276C35.5381 40.3476 34.2081 40.5376 32.5981 40.8376L33.7781 42.0276C35.6281 43.9176 35.5781 46.0276 33.3181 47.4676C31.5987 48.6313 29.6953 49.4968 27.6881 50.0276C20.9782 51.7089 13.9354 51.5151 7.3281 49.4676C5.00577 48.7681 3.02271 47.2372 1.7581 45.1676C1.35719 44.5561 1.06615 43.8792 0.898103 43.1676C-0.471132 36.6476 -0.272344 29.8957 1.4781 23.4676C1.84035 22.1925 2.35048 20.9642 2.9981 19.8076C4.4481 17.2076 5.8681 16.8076 8.6881 18.3676C9.1381 17.4776 9.5381 16.5376 10.0681 15.6876C10.8458 14.2826 11.7389 12.9447 12.7381 11.6876C14.7981 9.3076 16.4081 9.3976 18.5181 11.9876C18.9381 11.3776 19.3081 10.7976 19.7281 10.2576C21.7981 7.6476 23.7981 4.9476 25.9981 2.4176C26.8564 1.47458 27.9207 0.742257 29.1081 0.277599C29.5485 0.0631094 30.0383 -0.0298339 30.5267 0.00838069C31.0151 0.0465953 31.4844 0.21458 31.8861 0.494964C32.2878 0.775348 32.6073 1.15795 32.8116 1.60321C33.0159 2.04847 33.0976 2.54021 33.0481 3.0276C32.9829 4.39527 32.7063 5.7446 32.2281 7.0276C31.5081 9.0276 30.6081 11.0276 29.9981 13.2476L31.8581 11.5076C34.8686 8.50714 38.2812 5.93928 41.9981 3.8776C43.0371 3.28648 44.1651 2.86772 45.3381 2.6376C45.8503 2.51843 46.3855 2.5443 46.8838 2.71233C47.382 2.88035 47.8236 3.18387 48.159 3.58885C48.4944 3.99382 48.7104 4.48424 48.7826 5.00509C48.8549 5.52593 48.7806 6.05661 48.5681 6.5376C48.1041 7.72468 47.4672 8.83668 46.6781 9.8376C45.7881 11.0576 44.6781 12.1476 43.7381 13.2976L43.9981 13.5676Z" fill="white"/>
</svg>
