<svg width="55" height="53" viewBox="0 0 55 53" fill="none" xmlns="http://www.w3.org/2000/svg">
<path d="M28.4087 52.94C21.7244 53.0009 15.1803 51.023 9.64869 47.27C6.78778 45.35 4.37042 42.8406 2.55869 39.91C0.530289 36.7033 -0.332414 32.8961 0.115574 29.1283C0.563562 25.3604 2.29493 21.8617 5.01869 19.22C8.16443 16.1029 11.9054 13.6509 16.0187 12.01C17.5687 11.37 19.1087 10.71 20.6587 10.06C22.2547 9.40418 23.6872 8.40604 24.8553 7.13604C26.0233 5.86605 26.8984 4.35515 27.4187 2.71C27.8687 1.41 28.1987 0 29.9687 0C31.7387 0 32.2087 1.38 32.5187 2.71C33.2087 5.64 35.0987 7.59 37.4287 9.27C39.7587 10.95 41.9887 12.5 44.1887 14.27C47.3676 16.5859 50.0136 19.5559 51.9487 22.98C55.8287 30.29 55.7687 37.54 50.8787 44.4C49.6614 45.9806 48.1754 47.3346 46.4887 48.4C41.7287 51.51 35.8487 53.01 28.4087 52.94Z" fill="#024A75"/>
</svg>
