<svg width="55" height="68" viewBox="0 0 55 68" fill="none" xmlns="http://www.w3.org/2000/svg">
<path d="M41.188 20.3986C43.078 19.1186 44.528 17.9786 46.118 17.0986C48.228 15.9286 50.528 15.2986 52.628 17.0986C54.728 18.8986 54.728 21.2686 54.068 23.7086C53.4094 26.0297 52.0973 28.1124 50.288 29.7086C47.758 32.0286 45.058 34.1686 42.428 36.3786C41.788 36.9086 41.118 37.3786 40.078 38.2486C41.398 38.4486 42.158 38.5586 42.928 38.6886C44.7847 38.8844 46.5333 39.6573 47.928 40.8986C50.408 43.2586 50.828 46.3786 48.738 49.0886C47.7079 50.4228 46.4187 51.535 44.948 52.3586C35.378 57.5086 25.888 62.8486 15.538 66.3586C15.008 66.5386 14.478 66.7286 13.928 66.8586C11.928 67.3286 11.018 66.8586 10.008 65.0586C6.09914 57.727 3.05861 49.9645 0.947984 41.9286C0.0236556 38.7658 -0.228416 35.4446 0.207984 32.1786C0.356647 30.9893 0.694229 29.8314 1.20798 28.7486C1.40578 28.2605 1.71362 27.8247 2.1075 27.4751C2.50139 27.1255 2.97069 26.8717 3.47881 26.7333C3.98693 26.5949 4.52015 26.5757 5.03691 26.6772C5.55366 26.7787 6.03999 26.9982 6.45798 27.3186C7.50672 28.0988 8.50846 28.9402 9.45798 29.8386C9.58798 28.7086 9.69798 27.7886 9.78798 26.8386C10.0543 23.4831 10.886 20.1967 12.248 17.1186C12.7359 16.022 13.3536 14.9879 14.088 14.0386C16.698 10.7886 20.768 10.9586 23.208 14.3686C23.488 14.7586 23.698 15.1886 23.948 15.5986C24.198 16.0086 24.348 16.2086 24.708 16.7686C25.168 15.7686 25.518 15.1186 25.838 14.4186C27.5058 10.4528 29.9195 6.84418 32.948 3.78855C34.0987 2.66587 35.3775 1.68245 36.758 0.858553C40.318 -1.14145 43.488 0.458553 43.708 4.55855C43.7606 6.95261 43.5628 9.3456 43.118 11.6986C42.738 14.0586 42.038 16.3686 41.498 18.6986C41.388 19.1586 41.328 19.6286 41.188 20.3986Z" fill="#FA8078"/>
</svg>
