<svg width="63" height="24" viewBox="0 0 63 24" fill="none" xmlns="http://www.w3.org/2000/svg">
<path d="M19.6037 5H4.23374C3.44197 5.07028 2.64552 5.07028 1.85374 5C1.36003 4.96049 0.898537 4.7392 0.558621 4.37896C0.218705 4.01872 0.0245481 3.54517 0.0137439 3.05C-0.0482718 2.5236 0.101205 1.99411 0.429337 1.57785C0.757468 1.1616 1.23742 0.892614 1.76374 0.83C3.16566 0.567808 4.58762 0.427285 6.01374 0.41C13.8737 0.32 21.7037 0.3 29.5337 0.22C35.0137 0.17 40.5537 0 46.0637 0C49.8137 0 53.5637 0.08 57.3037 0.35C61.0437 0.62 62.5037 2.66 62.0437 6.35C61.9037 7.46045 61.6144 8.54692 61.1837 9.58C55.5737 22.8 42.3937 25.38 32.8337 21.4C30.8609 20.5291 28.9869 19.4496 27.2437 18.18C23.7018 15.757 21.2193 12.0726 20.3037 7.88C20.0937 7 19.8537 6 19.6037 5Z" fill="#024A75"/>
</svg>
