<svg width="41" height="47" viewBox="0 0 41 47" fill="none" xmlns="http://www.w3.org/2000/svg">
<path d="M40.2296 24.2858C40.0196 27.8958 39.9296 33.2858 39.3596 38.5658C38.8696 43.1758 36.9396 44.9458 32.3596 45.7858C30.7137 46.1219 29.0394 46.2994 27.3596 46.3158C21.7696 46.3158 16.1696 46.1758 10.5796 45.9458C6.72958 45.7858 5.69958 44.9458 4.79958 41.1658C3.51958 35.8058 2.26958 30.4358 1.18958 25.0258C0.801659 22.6633 0.564513 20.2785 0.479578 17.8858C0.279578 15.1058 0.149578 12.3158 0.019578 9.51584C-0.0341811 8.55914 0.0228644 7.59944 0.189578 6.65584C0.489578 4.96584 1.35958 4.14584 2.60958 4.13584C3.37466 4.13016 4.11598 4.40138 4.69675 4.89945C5.27753 5.39752 5.65858 6.08884 5.76958 6.84584C6.01958 8.84584 6.06958 10.8458 6.27958 12.8458C6.55958 15.5458 6.78958 18.2558 7.27958 20.9258C7.73066 23.3824 8.85194 25.6665 10.5196 27.5258C11.0926 28.1999 11.7674 28.7802 12.5196 29.2458C12.8225 29.4749 13.1767 29.6267 13.5515 29.6883C13.9262 29.7498 14.3104 29.7192 14.6707 29.5991C15.031 29.479 15.3566 29.273 15.6195 28.9989C15.8824 28.7248 16.0746 28.3908 16.1796 28.0258C16.4971 27.2061 16.7251 26.3545 16.8596 25.4858C17.6396 21.2758 17.2296 17.0458 16.9996 12.8158C16.9096 11.0558 16.6996 9.30584 16.6696 7.55584C16.6396 5.80584 17.2496 5.08584 18.6696 4.76584C18.9957 4.65799 19.3405 4.61877 19.6825 4.65063C20.0245 4.6825 20.3561 4.78476 20.6567 4.951C20.9572 5.11723 21.2201 5.34384 21.4289 5.61659C21.6376 5.88933 21.7876 6.20231 21.8696 6.53584C22.2252 7.58715 22.447 8.67908 22.5296 9.78584C22.8896 14.0858 23.0896 18.3958 23.5296 22.6858C23.75 24.2651 24.1875 25.8063 24.8296 27.2658C25.0072 27.9333 25.3947 28.5259 25.9349 28.9563C26.4751 29.3866 27.1393 29.6319 27.8296 29.6558C28.6001 29.7131 29.3686 29.5202 30.0208 29.1058C30.673 28.6915 31.1741 28.0777 31.4496 27.3558C32.3325 25.3115 32.8731 23.1357 33.0496 20.9158C33.1096 16.4558 32.6696 11.9858 32.4296 7.52584C32.3296 5.76584 32.1596 4.01584 32.1296 2.26584C32.0996 0.515842 33.0196 -0.144158 34.7096 0.0258417C35.3984 0.0485767 36.063 0.285101 36.6113 0.702607C37.1596 1.12011 37.5644 1.69791 37.7696 2.35584C38.4744 4.47009 38.9767 6.64654 39.2696 8.85584C39.7096 13.4258 39.8596 18.0258 40.2296 24.2858Z" fill="white"/>
</svg>
