<svg width="64" height="20" viewBox="0 0 64 20" fill="none" xmlns="http://www.w3.org/2000/svg">
<path d="M25.9321 14.0262C23.3321 15.3562 20.9921 16.7762 18.4921 17.7962C15.7244 19.0296 12.6201 19.2878 9.68666 18.5285C6.75318 17.7693 4.16396 16.0375 2.34214 13.6162C1.35567 12.3633 0.631305 10.9247 0.212145 9.38617C-0.567855 6.38617 0.832145 4.17617 3.93214 3.54617C6.13583 3.17189 8.35971 2.92813 10.5921 2.81617C17.7621 2.21617 24.9321 1.53617 32.1121 1.09617C38.6521 0.706175 45.2121 0.596175 51.7621 0.366175L60.1521 0.0261745C60.5514 -0.00872484 60.9529 -0.00872485 61.3521 0.0261745C63.3521 0.266175 64.1021 1.38617 63.5721 3.37617C62.7097 6.90422 60.8076 10.0919 58.1121 12.5262C53.0629 17.1952 46.4685 19.8373 39.5921 19.9462C34.5121 20.0262 30.0021 18.4962 26.5321 14.5162C26.3467 14.3357 26.146 14.1718 25.9321 14.0262Z" fill="white"/>
</svg>
