<svg width="44" height="44" viewBox="0 0 44 44" fill="none" xmlns="http://www.w3.org/2000/svg">
<path d="M8 43.1277C6.58 42.9477 5.14 42.8477 3.74 42.5677C2.96629 42.4797 2.24622 42.1288 1.70017 41.5737C1.15412 41.0185 0.815174 40.2928 0.74 39.5177C0.34937 36.9133 0.10233 34.2893 0 31.6577C0 28.0077 1.48 26.5677 5.12 26.5977C8.40891 26.7274 11.6733 25.982 14.58 24.4377C17.2065 23.0242 19.4244 20.9577 21.02 18.4377C23.72 14.0977 26.26 9.6577 28.88 5.2677C29.58 4.1077 30.23 2.9077 31.03 1.8177C31.5299 1.02852 32.2958 0.444398 33.1891 0.171084C34.0825 -0.102229 35.0441 -0.0466709 35.9 0.327701C37.7757 1.02334 39.5697 1.92202 41.25 3.0077C42.068 3.51565 42.6839 4.29224 42.9922 5.20443C43.3006 6.11662 43.2821 7.10763 42.94 8.0077C42.1762 10.4486 41.1921 12.8149 40 15.0777C36.2933 21.0777 32.4267 26.9444 28.4 32.6777C25.9746 35.9876 22.7745 38.6521 19.08 40.4377C15.6524 42.2008 11.8545 43.1228 8 43.1277Z" fill="#00BE88"/>
</svg>
