<svg width="50" height="33" viewBox="0 0 50 33" fill="none" xmlns="http://www.w3.org/2000/svg">
<path d="M24.5975 32.9893C20.0158 32.8716 15.4867 31.9611 11.2023 30.2966C6.06145 28.277 2.38189 24.7227 0.670466 19.2632C-0.284738 16.152 -0.217694 12.8064 0.861356 9.73782C1.38623 8.09325 2.23675 6.57689 3.35988 5.28329C4.48302 3.98968 5.85469 2.94657 7.38937 2.21897C8.92406 1.49138 10.5889 1.09491 12.28 1.05429C13.9711 1.01366 15.6522 1.32975 17.2186 1.98285C19.0131 2.76444 20.9416 3.17348 22.892 3.18619C24.8424 3.19891 26.7758 2.81504 28.5799 2.0569C29.9989 1.47056 31.4494 0.967112 32.9242 0.548991C43.1862 -2.34566 50.756 6.73546 49.9397 15.3925C49.6938 18.76 48.2041 21.9057 45.7731 24.1909C41.5538 28.1693 32.9769 33.2653 24.5975 32.9893Z" fill="#024A75"/>
</svg>
