<svg width="44" height="36" viewBox="0 0 44 36" fill="none" xmlns="http://www.w3.org/2000/svg">
<path d="M26.8243 0.46C29.1443 0.46 31.4643 0.32 33.7643 0.46C39.1743 0.86 41.9243 3.4 42.7643 8.69C43.6219 14.2226 43.9068 19.8289 43.6143 25.42C43.4143 29.58 41.9943 31.42 37.8143 32.13C32.9543 33 28.0243 33.49 23.0943 34C18.1643 34.51 13.5443 34.88 8.77431 35.29C7.66264 35.4198 6.54312 35.4699 5.42431 35.44C3.49431 35.33 2.68431 34.54 2.42431 32.67C1.68431 27.39 0.914305 22.09 0.254305 16.78C0.0325567 15.036 -0.0443729 13.2767 0.0243051 11.52C0.020618 9.98703 0.445678 8.48358 1.25147 7.17947C2.05726 5.87536 3.21167 4.82256 4.58431 4.14C7.20919 2.7433 10.0714 1.84801 13.0243 1.5C17.6143 0.89 22.2243 0.5 26.8243 0V0.46Z" fill="white"/>
</svg>
