<svg width="68" height="52" viewBox="0 0 68 52" fill="none" xmlns="http://www.w3.org/2000/svg">
<path d="M23.2054 51.113C15.5154 50.473 7.69545 46.373 2.31545 38.233C-1.61455 32.283 -0.424552 24.683 4.99545 19.693C8.61207 16.2433 13.2588 14.0727 18.2254 13.513C20.6854 13.233 23.1454 12.903 25.6054 12.623C29.2691 12.1966 32.7175 10.6694 35.4954 8.24303C37.0854 6.90303 38.6254 5.50303 40.2054 4.16303C45.9954 -0.696972 52.3854 -1.01697 59.0854 1.73303C64.2755 3.89303 67.5454 9.85303 66.9954 15.563C66.9506 16.1188 66.9506 16.6773 66.9954 17.233C67.1244 18.9585 66.827 20.6892 66.1295 22.2726C65.4319 23.856 64.3557 25.2436 62.9954 26.313C61.2319 27.8172 59.334 29.1562 57.3255 30.313C52.8064 32.8921 48.7339 36.1845 45.2654 40.063C43.1144 42.4241 40.7986 44.6296 38.3354 46.663C34.5254 49.763 30.0954 51.213 23.2054 51.113Z" fill="#FA8078"/>
</svg>
