<svg width="31" height="63" viewBox="0 0 31 63" fill="none" xmlns="http://www.w3.org/2000/svg">
<path d="M10.7672 54.3703C10.7713 54.1229 10.788 53.8759 10.8172 53.6303C11.1789 50.7893 10.4184 47.9193 8.69725 45.6303C3.00725 37.6703 -0.172751 28.8203 0.00724856 18.9303C0.0275327 14.9884 1.06058 11.1179 3.00725 7.69027C8.81725 -2.48973 22.0072 -2.58973 28.0072 7.55027C29.4606 10.0509 30.3877 12.822 30.7316 15.6938C31.0755 18.5655 30.829 21.4772 30.0072 24.2503C29.3093 26.9539 28.271 29.5581 26.9172 32.0003C24.4802 36.4063 21.789 40.6668 18.8572 44.7603C16.4119 47.9536 15.1153 51.8786 15.1772 55.9003C15.1772 57.1803 15.2372 58.4603 15.2372 59.7403C15.2372 61.7403 14.4572 62.9003 13.1072 62.9303C11.7572 62.9603 10.8872 61.9303 10.7872 59.8503C10.6972 58.1803 10.7672 56.5003 10.7672 54.3703Z" fill="#FA8078"/>
</svg>
