<svg width="52" height="63" viewBox="0 0 52 63" fill="none" xmlns="http://www.w3.org/2000/svg">
<path d="M25.9189 62.3186C21.5996 62.5747 17.2737 61.9417 13.2089 60.4586C9.65612 59.1884 6.4528 57.0986 3.85895 54.3586C2.12707 52.6175 0.912721 50.4297 0.35124 48.039C-0.210241 45.6482 -0.0967891 43.1486 0.67895 40.8186C1.73726 37.2777 3.67799 34.0638 6.31895 31.4786C8.06895 29.7186 9.86895 28.0186 11.6289 26.2786C12.3089 25.6086 12.9489 24.8886 13.6289 24.1986C16.3689 21.3986 17.4389 18.1986 16.0889 14.3486C15.77 13.2781 15.5326 12.1849 15.3789 11.0786C14.1189 4.28856 20.6789 -0.69144 26.0789 0.0785602C27.6445 0.265104 29.1304 0.872155 30.3787 1.83525C31.6271 2.79835 32.5913 4.08154 33.169 5.54856C34.0218 7.69714 34.616 9.93957 34.9389 12.2286C35.9389 19.2286 39.269 25.0086 43.729 30.2286C44.9189 31.6386 46.2389 32.9286 47.389 34.3586C53.8989 42.3586 52.179 52.8186 43.389 58.3586C39.389 60.9086 34.839 61.8286 30.1889 62.2586C28.799 62.4286 27.3489 62.3186 25.9189 62.3186Z" fill="white"/>
</svg>
