<svg width="40" height="38" viewBox="0 0 40 38" fill="none" xmlns="http://www.w3.org/2000/svg">
<path d="M8.9404 7.29C9.4004 6.1 9.8004 4.89 10.3204 3.73C10.5717 3.18668 10.9741 2.72714 11.4794 2.4062C11.9848 2.08527 12.5718 1.91649 13.1704 1.92C18.7404 1.39 24.2904 0.77 29.8404 0.19C30.7204 0.1 31.5904 0 32.4704 0C35.7904 0 37.4704 1.1 38.4704 4.31C38.939 5.75367 39.2114 7.25376 39.2804 8.77C39.4345 14.601 38.8056 20.4263 37.4104 26.09C36.8084 28.6595 35.6208 31.0551 33.9404 33.09C32.16 35.3989 29.5357 36.9065 26.6443 37.2815C23.7529 37.6565 20.8309 36.8683 18.5204 35.09C16.4541 33.5775 14.7469 31.6279 13.5204 29.38C13.1204 28.69 12.7504 27.99 12.3004 27.19C9.0204 27.66 5.6904 28 3.0204 25.36C1.14644 23.4619 0.0725845 20.9168 0.020403 18.25C-0.279597 11.79 2.7304 8.09 8.9404 7.29ZM10.3704 22.9C10.0504 19.6 9.7504 16.51 9.4404 13.42C9.3104 12.05 8.3804 11.42 7.1504 11.95C6.37684 12.3424 5.72379 12.9367 5.2604 13.67C4.71054 14.6056 4.3759 15.6519 4.28077 16.733C4.18563 17.814 4.3324 18.9027 4.7104 19.92C5.5904 22.81 7.3404 23.69 10.3704 22.9Z" fill="#00BE88"/>
</svg>
