<svg width="164" height="168" viewBox="0 0 164 168" fill="none" xmlns="http://www.w3.org/2000/svg">
<g clip-path="url(#clip0)">
<path d="M56.0536 99.4285L51.5112 96.0177C44.852 100.626 36.8119 102.74 29.1261 105.561C17.7791 109.743 11.8648 118.26 8.98493 129.355C6.10503 140.449 3.7248 151.398 1.10835 162.428C1.04026 162.733 0.90558 163.018 0.713957 163.265C0.522334 163.511 0.278521 163.712 0 163.853C0.118103 162.401 0.199867 160.932 0.372479 159.48C1.79302 147.873 4.42997 136.448 8.23997 125.39C11.5832 115.621 17.5792 107.702 27.9178 103.964C34.0319 101.751 40.1279 99.4285 46.0875 96.7797C50.2759 94.7505 54.3354 92.4663 58.2431 89.9399C58.6427 89.6244 58.9685 89.2255 59.1976 88.7711C59.4267 88.3167 59.5536 87.8178 59.5695 87.3093C59.4514 82.7101 59.2515 78.1019 58.7518 73.53C58.4306 71.835 57.7592 70.2254 56.7804 68.8039C54.7363 65.3931 53.0465 61.8916 53.092 57.7914C50.1212 57.2289 48.6404 55.3149 48.1225 52.6207C47.6774 50.2894 47.3685 47.9218 47.105 45.5633C46.7416 42.1888 47.3049 41.4086 50.2938 40.6194C50.0667 37.2449 49.8305 33.9067 49.6215 30.5685C49.2763 25.0078 50.1939 19.7918 53.6916 15.2289C58.3703 9.14212 63.3669 3.30021 70.9528 0.98704C75.8101 -0.62365 81.1058 -0.272 85.7066 1.96674C92.3295 5.15983 97.517 9.88596 102.441 15.1019C104.727 17.3942 106.03 20.4849 106.075 23.7197C106.075 28.9628 106.075 34.2151 106.075 39.8302C108.937 41.4993 108.682 47.2596 107.211 51.8225C106.229 54.8432 104.776 55.832 102.041 55.6596C101.451 60.3495 99.1522 64.6311 99.8518 69.7564C100.515 74.673 100.061 79.7348 99.9517 84.7512C99.8905 85.4769 100.016 86.2063 100.317 86.8699C100.617 87.5336 101.083 88.1095 101.669 88.543C103.958 90.4117 105.884 92.7974 108.337 94.3667C111.177 96.0321 114.163 97.4349 117.258 98.5577C124.145 101.279 131.049 104 137.999 106.577C146.266 109.643 150.954 115.984 154.425 123.676C159.067 133.954 161.765 144.776 163.873 155.779C164.029 157.024 163.964 158.286 163.682 159.508C163.228 157.884 162.774 156.251 162.301 154.645C159.512 145.692 156.614 136.766 153.943 127.776C150.554 116.401 142.505 109.969 131.74 106.078C123.772 103.202 115.941 99.9546 107.71 96.7343C107.056 97.4419 106.093 98.4307 105.185 99.4557C100.115 105.279 93.3743 107.711 86.1064 109.38C73.3876 112.264 60.6142 112.101 47.7682 110.813C44.9883 110.541 44.1979 111.357 44.5431 113.988C46.2352 126.805 46.9216 139.735 46.5963 152.659C46.4782 157.557 47.0051 162.483 47.2595 167.98C46.6962 166.411 46.0148 165.304 45.924 164.143C45.4516 158.51 45.0155 152.858 44.8156 147.207C44.5704 138.743 44.6339 130.271 44.4704 121.807C44.4068 118.778 44.1161 115.739 43.8526 112.736C43.6255 110.232 44.2615 109.334 46.8234 109.443C51.6747 109.652 56.5079 110.305 61.3592 110.26C68.2637 110.196 75.1591 109.679 81.8637 109.352V98.4669C87.6235 97.0246 92.2386 93.0242 96.6993 88.924C97.5852 88.0002 98.1105 86.7902 98.1801 85.5132C98.3255 81.168 98.1801 76.8047 98.1801 72.4505C98.1243 72.058 97.9948 71.6795 97.7986 71.3348L89.1861 81.7667L88.4593 81.3041C97.2717 73.9291 98.5072 63.1615 101.923 52.6298L102.832 54.7343C107.138 52.4937 108.573 43.5767 105.039 40.2203C104.004 42.352 103.031 44.3568 102.068 46.3615L101.405 46.2527C101.067 44.898 100.842 43.5174 100.733 42.1253C100.733 36.4013 100.56 30.6682 100.96 24.9806C101.324 19.8916 99.1976 15.4466 94.31 13.9136C90.9113 12.993 87.4453 12.3409 83.9442 11.9633C79.7924 11.3555 75.6133 10.9382 71.4434 10.4302C64.8569 9.63196 60.1055 12.9702 56.0718 17.533C55.2269 18.4855 55.0361 20.2998 55.0634 21.7058C55.236 29.3711 54.8998 36.9637 52.6831 44.892L49.5579 40.9369C49.1128 42.6242 48.4405 43.7672 48.6495 44.7741C49.1747 48.1455 49.9213 51.4788 50.8843 54.7525C51.275 56.0497 52.5105 57.4739 53.7915 55.6596C56.0355 69.6747 63.8666 79.8708 75.7678 87.5542C68.8451 85.8397 64.9205 80.5875 60.5143 75.4168C60.7505 78.1382 61.1048 80.7598 61.1775 83.4449C61.3489 85.4535 61.1862 87.4765 60.696 89.432C60.3598 90.4933 58.7518 91.1918 57.6526 91.9538C55.9719 93.1149 54.2276 94.2035 52.3561 95.419L55.99 99.4739L56.0536 99.4285ZM101.86 40.9188L102.986 41.1456C103.431 39.9663 104.176 38.8052 104.267 37.5987C104.549 33.6708 104.322 29.6976 104.812 25.806C105.394 21.2704 103.186 17.9594 100.697 14.73C96.0997 8.77926 89.8857 4.99654 83.1629 1.81253C80.7376 0.594932 77.9708 0.233611 75.3135 0.787471C65.947 2.71965 59.2152 8.70669 54.3638 16.2177C50.1939 22.6765 49.885 30.4959 51.4476 38.143C51.6293 39.0501 51.9291 39.9572 52.1835 40.8644L52.9739 40.7918C53.2191 34.9862 53.5825 29.1896 53.6916 23.384C53.7221 21.5151 54.1234 19.6707 54.8723 17.9576C55.6212 16.2445 56.7027 14.6966 58.0544 13.4034C59.4061 12.1103 61.0012 11.0975 62.7473 10.4237C64.4934 9.74985 66.356 9.42834 68.2273 9.47775C70.6076 9.55032 72.9878 9.74989 75.359 10.0039C81.0279 10.6026 86.7877 10.8294 92.3295 12.0359C97.5079 13.1698 101.414 16.3901 101.823 22.2592C102.023 25.0441 101.823 27.8562 101.823 30.6501L101.86 40.9188ZM100.043 88.0894C95.164 93.26 90.349 97.968 83.5808 99.5736V108.962C84.5528 108.854 85.1979 108.808 85.8338 108.69C94.0738 107.184 100.37 102.495 106.011 96.5983C107.301 95.2557 107.174 94.4302 106.011 93.378C104.058 91.6181 102.068 89.8946 100.052 88.1166L100.043 88.0894Z" fill="white"/>
<path d="M136.273 158.466L138.926 153.885C137.617 158.221 135.791 162.403 137.944 167.02C133.229 160.67 133.902 153.005 132.094 145.975L133.139 145.693L136.273 158.466Z" fill="white"/>
<path d="M23.7571 138.791C24.1165 139.979 24.3867 141.192 24.5657 142.42C24.8201 145.359 24.8291 148.316 25.1017 151.255C25.247 152.797 24.4112 154.775 26.637 155.627C26.737 155.627 26.8187 155.918 26.8096 156.063C26.5371 159.891 26.8096 163.828 24.6565 167.293C24.5203 167.502 24.1114 167.538 23.748 167.692C25.6377 157.968 23.6209 148.488 23.7571 138.791Z" fill="white"/>
<path d="M72.8338 108.094C73.1882 105.908 73.5152 103.894 73.8514 101.88C74.1148 100.284 73.9604 99.0681 72.0344 98.4966C70.7182 98.0079 69.5422 97.2043 68.6094 96.1562C70.5808 97.0089 72.5795 97.8072 74.4964 98.7597C74.7272 98.9352 74.9163 99.1597 75.0498 99.417C75.1833 99.6742 75.258 99.9578 75.2686 100.247C75.3231 102.379 75.2686 104.511 75.2141 106.597C75.1687 108.248 75.1323 108.239 72.8338 108.094Z" fill="white"/>
<path d="M51.8923 157.759C51.1033 156.863 50.4289 155.873 49.8846 154.811C49.7755 154.521 50.8657 153.786 51.4108 153.26C52.2248 153.955 52.9509 154.747 53.573 155.618C53.7093 155.854 52.6918 156.752 51.8923 157.759Z" fill="white"/>
<path d="M53.9916 117.192C53.0105 117.773 52.1202 118.49 51.9839 118.363C51.2309 117.722 50.629 116.923 50.2214 116.022C50.1124 115.759 51.0754 115.061 51.5478 114.553L53.9916 117.192Z" fill="white"/>
<path d="M104.748 154.82C107.474 154.022 107.601 155.845 107.9 157.542C105.384 158.095 104.83 157.614 104.748 154.82Z" fill="white"/>
<path d="M56.0078 99.475L64.057 104.99C60.8493 104.066 58.0362 102.112 56.0532 99.4297L56.0078 99.475Z" fill="white"/>
<path d="M108.301 115.423C108.528 114.135 105.912 113.327 107.892 111.794C108.101 111.64 109.291 112.193 109.346 112.529C109.419 113.512 109.389 114.5 109.255 115.477L108.301 115.423Z" fill="white"/>
</g>
<defs>
<clipPath id="clip0">
<rect width="164" height="168" fill="white"/>
</clipPath>
</defs>
</svg>
