<svg width="39" height="43" viewBox="0 0 39 43" fill="none" xmlns="http://www.w3.org/2000/svg">
<path d="M33.4477 0.981913C35.4621 4.39121 36.8285 7.96809 37.5468 11.7126C38.265 15.505 38.3353 19.2491 37.7576 22.9447C37.18 26.6403 35.9784 30.1675 34.1528 33.5264C32.3273 36.9332 29.9019 39.9796 26.8767 42.6657L22.9898 40.2152C22.27 39.7347 21.9583 39.1345 22.0546 38.4146C22.1029 37.7426 22.3191 37.2148 22.7033 36.831C23.952 35.2958 25.0329 33.4245 25.9459 31.2171C26.8109 29.0096 27.364 26.634 27.6051 24.0902C27.8463 21.5943 27.7274 19.0022 27.2487 16.3139C26.7699 13.6256 25.7871 11.033 24.3002 8.53602C23.6767 7.52762 23.5091 6.61551 23.7975 5.7997C24.0378 5.03185 24.6141 4.45622 25.5263 4.07281L33.4477 0.981913ZM11.5597 0.967806C13.5741 4.3771 14.9405 7.95399 15.6588 11.6985C16.377 15.4909 16.4473 19.235 15.8697 22.9306C15.292 26.6262 14.0904 30.1534 12.2648 33.5123C10.4393 36.9191 8.01388 39.9655 4.98866 42.6516L1.10177 40.2011C0.381993 39.7206 0.0702668 39.1204 0.166594 38.4005C0.2149 37.7285 0.431141 37.2006 0.815316 36.8169C2.06402 35.2817 3.14487 33.4104 4.05788 31.203C4.92289 28.9955 5.47597 26.6199 5.71713 24.076C5.95827 21.5802 5.83945 18.9881 5.36068 16.2998C4.8819 13.6115 3.89908 11.0189 2.41222 8.52191C1.78868 7.51351 1.6211 6.6014 1.90947 5.78559C2.14982 5.01774 2.72608 4.44211 3.63825 4.0587L11.5597 0.967806Z" fill="#024A75" fill-opacity="0.1"/>
</svg>
