<svg width="39" height="42" viewBox="0 0 39 42" fill="none" xmlns="http://www.w3.org/2000/svg">
<path d="M5.44313 41.934C3.42713 38.526 2.05913 34.95 1.33913 31.206C0.619125 27.414 0.547125 23.67 1.12313 19.974C1.69913 16.278 2.89913 12.75 4.72313 9.38998C6.54713 5.98198 8.97113 2.93398 11.9951 0.245981L15.8831 2.69398C16.6031 3.17398 16.9151 3.77398 16.8191 4.49398C16.7711 5.16598 16.5551 5.69398 16.1711 6.07798C14.9231 7.61398 13.8431 9.48598 12.9311 11.694C12.0671 13.902 11.5151 16.278 11.2751 18.822C11.0351 21.318 11.1551 23.91 11.6351 26.598C12.1151 29.286 13.0991 31.878 14.5871 34.374C15.2111 35.382 15.3791 36.294 15.0911 37.11C14.8511 37.878 14.2751 38.454 13.3631 38.838L5.44313 41.934ZM27.3311 41.934C25.3151 38.526 23.9471 34.95 23.2271 31.206C22.5071 27.414 22.4351 23.67 23.0111 19.974C23.5871 16.278 24.7871 12.75 26.6111 9.38998C28.4351 5.98198 30.8591 2.93398 33.8831 0.245981L37.7711 2.69398C38.4911 3.17398 38.8031 3.77398 38.7071 4.49398C38.6591 5.16598 38.4431 5.69398 38.0591 6.07798C36.8111 7.61398 35.7311 9.48598 34.8191 11.694C33.9551 13.902 33.4031 16.278 33.1631 18.822C32.9231 21.318 33.0431 23.91 33.5231 26.598C34.0031 29.286 34.9871 31.878 36.4751 34.374C37.0991 35.382 37.2671 36.294 36.9791 37.11C36.7391 37.878 36.1631 38.454 35.2511 38.838L27.3311 41.934Z" fill="#024A75" fill-opacity="0.1"/>
</svg>
