<svg width="32" height="32" viewBox="0 0 32 32" fill="none" xmlns="http://www.w3.org/2000/svg">
<path d="M0 16C0 7.16344 7.16344 0 16 0C24.8366 0 32 7.16344 32 16C32 24.8366 24.8366 32 16 32C7.16344 32 0 24.8366 0 16Z" fill="white"/>
<path d="M15.3371 12.2543C15.4414 11.8397 15.5427 11.4252 15.6486 11.0106C15.8391 10.2675 16.0916 9.55145 16.6163 8.96356C16.713 8.85502 16.8128 8.74799 16.9187 8.6485C17.4766 8.12844 17.9575 8.19628 18.2251 8.91532C18.3842 9.38195 18.4669 9.8711 18.4701 10.364C18.4973 11.3393 18.458 12.3161 18.4474 13.2929C18.4474 13.418 18.4474 13.5446 18.4474 13.7451C18.5729 13.6366 18.6394 13.5823 18.7029 13.5235C19.1233 13.1346 19.5406 12.7381 19.967 12.3538C20.0972 12.2419 20.2392 12.1444 20.3904 12.0628C21.0421 11.695 21.7043 11.9121 22.0204 12.5889C22.2022 12.9913 22.255 13.4398 22.1716 13.8732C22.0385 14.6269 21.8692 15.3807 21.7104 16.1344C21.5592 16.8459 21.3974 17.5544 21.2568 18.2674C21.1978 18.5689 21.2795 18.6246 21.5743 18.5071C21.8616 18.3722 22.157 18.2554 22.4589 18.1573C23.1741 17.9659 23.5929 18.3081 23.5354 19.0452C23.4625 19.774 23.2078 20.4731 22.7945 21.0787C22.2043 22.039 21.4256 22.8706 20.5053 23.5238C20.0093 23.8629 19.524 24.2157 19.0265 24.5518C18.3904 24.9638 17.6819 25.2523 16.9383 25.402C16.267 25.5527 15.6153 25.4231 14.9984 25.1714C13.5589 24.5835 12.3099 23.6926 11.1472 22.6781C10.336 22.0061 9.61032 21.2376 8.98644 20.3898C8.55763 19.8085 8.23984 19.1534 8.04896 18.4573C8.02155 18.3497 8.00534 18.2396 8.00058 18.1287C7.98697 17.7096 8.21378 17.4443 8.63262 17.4609C8.91475 17.4778 9.19215 17.5409 9.45366 17.6478C9.98742 17.8589 10.5121 18.1091 11.0323 18.3427C11.1063 18.3759 11.1835 18.403 11.3347 18.4618C11.2046 18.2191 11.12 18.0367 11.0141 17.8679C10.4531 16.9635 9.94811 16.0439 9.65326 15.0264C9.54045 14.6075 9.47652 14.1771 9.46273 13.7436C9.44005 13.3396 9.67442 13.2115 10.0267 13.4255C10.4153 13.6607 10.7828 13.9381 11.1517 14.1943C11.312 14.3028 11.4753 14.4054 11.6371 14.5094L11.7172 14.4747C11.693 14.2335 11.6764 13.9923 11.6461 13.7526C11.5116 12.6492 11.3241 11.5488 11.256 10.4363C11.2312 9.65042 11.2722 8.86383 11.3785 8.08473C11.4288 7.78995 11.5479 7.51109 11.7263 7.27072C11.9546 6.93456 12.3115 6.90743 12.5791 7.21193C12.8468 7.5125 13.0759 7.84519 13.261 8.20231C13.7146 9.10676 14.132 10.0263 14.5659 10.9383C14.7398 11.3016 14.9228 11.6603 15.1057 12.0191C15.1544 12.1047 15.2074 12.1877 15.2645 12.2678L15.3371 12.2543Z" fill="#FA8078"/>
<path d="M12.7936 11.0671C13.9382 12.9875 14.3328 15.2291 14.7729 17.3892C15.2401 19.6715 15.5758 22.0049 16.3363 24.2133C16.4028 24.4093 16.7158 24.3249 16.6478 24.1289C15.8721 21.8768 15.5334 19.4951 15.0571 17.1691C14.6186 15.0241 14.2089 12.8112 13.0733 10.9043C13.0516 10.8673 13.0161 10.8404 12.9746 10.8295C12.9331 10.8186 12.8889 10.8247 12.8518 10.8462C12.8147 10.8678 12.7877 10.9032 12.7768 10.9446C12.7659 10.9861 12.7719 11.0301 12.7936 11.0671Z" fill="white"/>
<path d="M12.6753 17.0694C13.4313 17.7629 14.1873 18.4593 15.078 18.9703C15.1146 18.9881 15.1566 18.9914 15.1956 18.9797C15.2346 18.9679 15.2677 18.9419 15.2883 18.9069C15.3089 18.8719 15.3155 18.8304 15.3068 18.7907C15.2981 18.7511 15.2747 18.7161 15.2413 18.6929C14.3733 18.194 13.6354 17.5171 12.9036 16.8418C12.7524 16.7016 12.5226 16.9292 12.6753 17.0694Z" fill="white"/>
<path d="M16.6875 14.318C16.6346 15.9249 15.9587 17.4127 15.1603 18.7815C15.1414 18.8183 15.1375 18.8609 15.1492 18.9005C15.1609 18.9402 15.1875 18.9738 15.2234 18.9945C15.2593 19.0152 15.3018 19.0214 15.3421 19.0117C15.3824 19.0021 15.4175 18.9774 15.4401 18.9427C16.2656 17.5243 16.9521 15.9822 17.0096 14.318C17.0171 14.1115 16.6935 14.1115 16.6875 14.318Z" fill="white"/>
<path d="M18.9329 18.2585C18.7621 19.077 18.3069 19.7946 17.7732 20.4277C17.228 21.0746 16.5925 21.6401 15.8861 22.107C15.7137 22.22 15.8755 22.4989 16.0494 22.3843C16.7993 21.8919 17.4719 21.2914 18.0453 20.6026C18.5942 19.9408 19.066 19.1946 19.2444 18.3414C19.2867 18.1394 18.9753 18.052 18.9329 18.2555V18.2585Z" fill="white"/>
</svg>
