<svg width="95" height="84" viewBox="0 0 95 84" fill="none" xmlns="http://www.w3.org/2000/svg">
<g clip-path="url(#clip0)">
<path d="M17.1673 73.682C17.1673 68.2325 17.1673 62.7772 17.1673 57.3161C17.238 56.1417 17.0355 54.967 16.5755 53.8822C16.1154 52.7974 15.4099 51.8314 14.5134 51.0586C11.7115 48.5885 9.07278 45.9429 6.61369 43.1381C1.76594 37.6333 0.881313 30.7456 0.129381 23.9016C-0.525242 17.7754 1.2617 12.5243 6.4633 8.74348C8.84295 7.00187 11.4968 5.69785 13.8676 4.0175C16.778 1.99583 20.06 1.39195 23.4835 1.12064C26.5974 0.875591 29.7201 0.805577 32.834 0.648044C37.5491 0.420497 42.273 -0.130868 46.9703 0.00040908C56.1351 0.350482 65.459 -0.577211 74.3761 2.16211C82.9658 4.78766 89.2908 10.5289 93.7228 18.213C95.3859 21.0923 95.3328 24.1379 94.0767 27.3236C91.1132 34.7977 85.8054 40.5914 80.7454 46.6126C78.808 48.9231 76.7468 51.1286 74.9422 53.5353C74.3335 54.4573 74.0248 55.5415 74.0576 56.6422C74.0576 61.8933 74.323 67.1444 74.3495 72.343C74.3393 74.879 74.1828 77.4124 73.8807 79.9308C73.6153 82.3201 72.4829 83.064 69.3071 83.1252C59.6913 83.309 50.0665 83.4228 40.4506 83.6241C37.6464 83.6766 34.8421 84.0267 32.0467 84.0004C27.9686 84.0004 23.8816 83.8079 19.8123 83.4841C17.6361 83.3003 17.1584 81.4361 17.0257 79.642C16.9107 77.6641 17.0257 75.6687 17.0257 73.682H17.1673ZM35.8771 49.0894L28.8709 50.5684L28.9682 50.9885L37.4429 49.9996L35.8329 49.1244C32.1839 44.7127 30.0025 39.293 29.5874 33.6074C29.2867 36.1017 28.8797 38.5522 29.3751 40.8102C30.1801 44.4422 31.2505 48.223 35.8771 49.0894ZM69.1656 50.4897C72.4653 50.0696 79.613 39.6899 78.4188 35.9704L69.1656 50.4897ZM41.981 33.2573H41.2645C40.6747 38.7301 40.0585 44.203 39.4156 49.6758C40.5214 49.6758 41.7953 49.6232 43.0691 49.6758C45.723 49.7895 45.723 49.8158 45.9442 48.8006H40.9637L41.981 33.2573ZM25.8808 50.761C25.4077 50.7689 24.9353 50.801 24.4654 50.8573C24.121 50.949 23.7839 51.0661 23.457 51.2073L23.6693 51.7937L27.2963 50.5422L21.1039 43.2082C21.3781 46.3851 23.7224 48.2667 25.8808 50.761ZM54.1889 37.4582C55.9834 33.1189 56.6525 28.4045 56.1351 23.7441L54.1889 37.4582ZM60.3105 41.134L61.0713 41.3878C62.1033 38.5872 63.1354 35.7895 64.1675 32.9948L63.2828 32.6885C62.2862 35.5182 61.2954 38.3334 60.3105 41.134Z" fill="white"/>
</g>
<defs>
<clipPath id="clip0">
<rect width="95" height="84" fill="white"/>
</clipPath>
</defs>
</svg>
