<svg width="134" height="76" viewBox="0 0 134 76" fill="none" xmlns="http://www.w3.org/2000/svg">
<path d="M100.207 12.7003C100.371 12.0478 100.531 11.3954 100.697 10.743C100.997 9.57331 101.394 8.44637 102.22 7.52108C102.373 7.35026 102.53 7.18181 102.696 7.02523C103.574 6.20671 104.331 6.31347 104.752 7.44516C105.003 8.1796 105.133 8.94945 105.138 9.72515C105.181 11.2602 105.119 12.7976 105.102 14.335C105.102 14.5319 105.102 14.7312 105.102 15.0467C105.3 14.8759 105.404 14.7905 105.504 14.6979C106.166 14.0858 106.823 13.4619 107.494 12.8569C107.699 12.6808 107.922 12.5273 108.16 12.399C109.186 11.8201 110.228 12.1617 110.726 13.227C111.012 13.8603 111.095 14.5662 110.964 15.2484C110.754 16.4346 110.488 17.6209 110.238 18.8071C110 19.927 109.745 21.0421 109.524 22.1643C109.431 22.6388 109.56 22.7265 110.024 22.5415C110.476 22.3293 110.941 22.1455 111.416 21.9911C112.541 21.6898 113.201 22.2283 113.11 23.3885C112.995 24.5356 112.595 25.6359 111.944 26.589C111.015 28.1004 109.79 29.4093 108.341 30.4372C107.561 30.971 106.797 31.5262 106.014 32.0553C105.012 32.7037 103.897 33.1577 102.727 33.3934C101.671 33.6306 100.645 33.4266 99.6738 33.0304C97.4083 32.1051 95.4425 30.703 93.6125 29.1062C92.3357 28.0486 91.1936 26.8391 90.2117 25.5048C89.5368 24.5898 89.0367 23.5587 88.7362 22.4632C88.6931 22.2939 88.6676 22.1205 88.6601 21.946C88.6387 21.2864 88.9956 20.8689 89.6548 20.895C90.0989 20.9215 90.5355 21.0209 90.9471 21.1892C91.7872 21.5213 92.613 21.9151 93.4316 22.2829C93.5482 22.3351 93.6696 22.3778 93.9076 22.4703C93.7029 22.0883 93.5696 21.8013 93.403 21.5355C92.5201 20.112 91.7253 18.6648 91.2612 17.0633C91.0837 16.4041 90.9831 15.7266 90.9614 15.0443C90.9257 14.4085 91.2945 14.2068 91.849 14.5437C92.4606 14.9138 93.0389 15.3504 93.6196 15.7537C93.8719 15.9245 94.1289 16.0859 94.3835 16.2496L94.5097 16.195C94.4716 15.8154 94.4454 15.4358 94.3978 15.0586C94.186 13.3219 93.8909 11.59 93.7838 9.83903C93.7448 8.60213 93.8093 7.36413 93.9766 6.13791C94.0557 5.67395 94.2432 5.23507 94.5239 4.85675C94.8833 4.32768 95.4449 4.28497 95.8662 4.76422C96.2876 5.23728 96.6481 5.7609 96.9394 6.32296C97.6534 7.74647 98.3102 9.19371 98.9932 10.6291C99.2669 11.2009 99.5549 11.7655 99.8428 12.3302C99.9194 12.4648 100.003 12.5955 100.093 12.7216L100.207 12.7003Z" fill="#FA8078"/>
<path d="M113.793 31.9275C113.793 31.8231 113.774 31.7187 113.767 31.6167C113.694 30.1528 113.646 28.6866 113.529 27.2275C113.358 24.9025 113.053 22.5869 113.251 20.2476C113.365 18.938 113.579 17.6521 114.146 16.4516C114.286 16.155 114.41 15.7564 114.838 15.8323C115.267 15.9083 115.24 16.3068 115.267 16.6224C115.362 17.709 115.419 18.8004 115.493 19.9439C115.645 18.7576 115.716 17.5714 115.969 16.4492C116.292 14.9521 116.718 13.4741 117.173 12.0102C117.367 11.4937 117.645 11.0127 117.996 10.5867C118.076 10.4956 118.177 10.4252 118.29 10.3814C118.403 10.3376 118.525 10.3218 118.646 10.3352C118.753 10.3923 118.844 10.4748 118.911 10.5754C118.978 10.6759 119.02 10.7915 119.031 10.9117C119.031 11.7445 118.965 12.5725 118.92 13.41C118.896 13.6125 118.896 13.8172 118.92 14.0197C119.091 13.2582 119.255 12.4942 119.436 11.7374C120.13 8.71547 121.442 5.86905 123.291 3.37662C123.51 3.06897 123.762 2.78648 124.043 2.53437C124.426 2.20934 124.857 2.37779 124.879 2.87602C124.904 3.34439 124.858 3.81384 124.743 4.26868C124.231 6.19517 123.674 8.11216 123.144 10.0339C122.995 10.5585 122.893 11.0952 122.839 11.6377C122.903 11.5262 122.975 11.4171 123.03 11.3008C123.758 9.79665 124.457 8.27824 125.212 6.79304C126.114 4.99468 127.116 3.23427 128.477 1.74433C128.916 1.28745 129.378 0.85349 129.862 0.444187C130.022 0.281372 130.216 0.155804 130.431 0.0764466C130.669 0.00764363 131.014 -0.0540418 131.176 0.0764466C131.262 0.171264 131.325 0.285208 131.359 0.408931C131.393 0.532654 131.397 0.662631 131.371 0.788202C131.219 1.40216 131.003 1.99854 130.726 2.56759C129.7 4.5866 128.624 6.57952 127.58 8.59141C127.104 9.48822 126.678 10.4016 126.235 11.3127C126.117 11.5513 126.037 11.8066 125.997 12.0695C126.08 12.0034 126.16 11.9329 126.235 11.8584C127.059 10.9283 127.858 9.97696 128.708 9.07066C129.398 8.33281 130.136 7.64715 130.876 6.94963C131.149 6.6934 131.483 6.44903 131.892 6.71238C132.158 6.8832 132.23 7.315 132.02 7.79425C131.842 8.25841 131.602 8.69653 131.306 9.09676C130.537 10.0331 129.735 10.9426 128.9 11.8252C127.991 12.7742 127.032 13.6994 126.102 14.639C125.896 14.846 125.734 15.0921 125.626 15.3626L126.102 15.1253C127.42 14.4705 128.736 13.8133 130.062 13.1704C130.293 13.0594 130.542 12.9896 130.797 12.964C130.874 12.9449 130.954 12.945 131.03 12.9644C131.106 12.9837 131.177 13.0217 131.235 13.0748C131.293 13.128 131.337 13.1947 131.363 13.2689C131.388 13.3431 131.395 13.4226 131.383 13.5001C131.344 13.8332 131.225 14.152 131.038 14.4302C130.601 15.0316 130.105 15.588 129.557 16.0909C127.865 17.55 126.069 18.8644 123.996 19.7589C123.574 19.9494 123.169 20.1739 122.784 20.4303C123.536 20.2191 124.281 19.9937 125.038 19.8087C125.329 19.747 125.627 19.7278 125.923 19.7517C126.687 19.7921 127.135 20.3828 126.861 21.0946C126.698 21.5487 126.417 21.9515 126.047 22.2619C125.385 22.7471 124.675 23.1644 123.929 23.5074C122.803 24.0341 121.637 24.473 120.495 24.9618C120.202 25.0911 119.937 25.2756 119.714 25.5051C119.874 25.4973 120.033 25.4814 120.19 25.4576C120.721 25.3556 121.249 25.2394 121.778 25.135C121.911 25.1077 122.046 25.0934 122.182 25.0923C122.587 25.0923 122.989 25.1302 123.184 25.5502C123.379 25.9701 123.113 26.2762 122.844 26.4992C122.28 26.995 121.725 27.536 121.073 27.8895C119.745 28.6012 118.37 29.2442 116.992 29.8681C116.169 30.2147 115.417 30.7093 114.774 31.3272C114.499 31.5744 114.208 31.8027 113.903 32.0105L113.793 31.9275Z" fill="#FA8078"/>
<path d="M114.046 32.3475C115.319 25.1042 122.868 20.7222 123.539 13.2487C123.568 12.9237 123.063 12.9261 123.032 13.2487C122.366 20.6296 114.82 25.0164 113.556 32.2123C113.501 32.5302 113.992 32.6678 114.046 32.3475Z" fill="white"/>
<path d="M96.2047 10.8315C98.0062 13.854 98.6273 17.382 99.3199 20.7818C100.055 24.3738 100.584 28.0464 101.781 31.5222C101.885 31.8306 102.378 31.6977 102.271 31.3893C101.05 27.8448 100.517 24.0962 99.7673 20.4354C99.0771 17.0593 98.4322 13.5765 96.645 10.5752C96.6109 10.517 96.555 10.4747 96.4896 10.4576C96.4242 10.4404 96.3547 10.4499 96.2963 10.4839C96.2379 10.5179 96.1955 10.5736 96.1783 10.6387C96.1611 10.7039 96.1706 10.7732 96.2047 10.8315Z" fill="white"/>
<path d="M96.0186 20.279C97.2085 21.3704 98.3984 22.4665 99.8001 23.2708C99.8578 23.2987 99.9239 23.304 99.9853 23.2855C100.047 23.267 100.099 23.2261 100.131 23.171C100.164 23.1159 100.174 23.0506 100.16 22.9882C100.147 22.9257 100.11 22.8707 100.057 22.8342C98.6911 22.0489 97.5298 20.9836 96.3779 19.9208C96.14 19.7001 95.7782 20.0584 96.0186 20.279Z" fill="white"/>
<path d="M102.332 15.9489C102.249 18.478 101.185 20.8196 99.9283 22.9739C99.8986 23.0318 99.8923 23.0989 99.9108 23.1613C99.9293 23.2237 99.9711 23.2766 100.028 23.3092C100.084 23.3418 100.151 23.3515 100.214 23.3363C100.278 23.3212 100.333 23.2823 100.369 23.2277C101.668 20.9952 102.748 18.5681 102.839 15.9489C102.851 15.6238 102.341 15.6238 102.332 15.9489Z" fill="white"/>
<path d="M105.867 22.15C105.598 23.4382 104.882 24.5676 104.042 25.564C103.184 26.5821 102.184 27.4722 101.072 28.207C100.801 28.3849 101.055 28.8239 101.329 28.6435C102.509 27.8685 103.568 26.9234 104.47 25.8392C105.334 24.7977 106.077 23.6233 106.357 22.2805C106.424 21.9625 105.934 21.8249 105.867 22.1452V22.15Z" fill="white"/>
<path d="M6.11415 69.4803C5.91167 69.1885 5.64045 68.9506 5.32428 68.7876C5.00811 68.6247 4.65665 68.5415 4.30074 68.5455C3.0561 68.5455 2.15891 69.5183 2.15891 70.8564C2.15891 72.1945 3.0561 73.1672 4.30074 73.1672C4.65431 73.1713 5.00352 73.0891 5.31794 72.9279C5.63236 72.7666 5.90244 72.5311 6.10463 72.2419L6.68055 72.7567C6.41535 73.1386 6.0589 73.4485 5.64339 73.6585C5.22788 73.8685 4.76643 73.972 4.30074 73.9596C2.49922 73.9596 1.26172 72.6523 1.26172 70.8635C1.26172 69.0746 2.54682 67.7792 4.30074 67.7792C4.77208 67.7676 5.23904 67.8719 5.66033 68.0829C6.08163 68.294 6.44428 68.6052 6.71624 68.9892L6.11415 69.4803Z" fill="white"/>
<path d="M8.72461 73.8307V69.75H9.58134V73.0715H11.2472V69.75H12.1063V73.8307H8.72461Z" fill="white"/>
<path d="M14.504 68.5759C14.5025 68.4724 14.532 68.3708 14.5887 68.284C14.6454 68.1973 14.7266 68.1293 14.8222 68.0887C14.9177 68.0481 15.0232 68.0367 15.1252 68.0561C15.2272 68.0754 15.3212 68.1245 15.3951 68.1972C15.4691 68.2699 15.5196 68.3629 15.5404 68.4644C15.5612 68.5658 15.5513 68.6711 15.5119 68.7669C15.4725 68.8627 15.4054 68.9446 15.3191 69.0023C15.2329 69.06 15.1314 69.0908 15.0275 69.0908C14.9589 69.0924 14.8907 69.0802 14.8269 69.055C14.7632 69.0298 14.7051 68.992 14.6563 68.944C14.6074 68.896 14.5688 68.8386 14.5426 68.7754C14.5164 68.7122 14.5033 68.6443 14.504 68.5759ZM14.5991 73.8311V69.7503H15.4559V73.8311H14.5991Z" fill="white"/>
<path d="M19.1071 71.3233L19.6306 71.5748C20.1304 71.812 20.5135 72.1228 20.5135 72.7468C20.5135 73.4585 19.9567 73.9591 19.0595 73.9591C18.2027 73.9591 17.7268 73.4585 17.584 72.9057L18.2432 72.5427C18.2794 72.7383 18.3833 72.9151 18.5369 73.0421C18.6904 73.1691 18.8838 73.2384 19.0833 73.2379C19.426 73.2379 19.6639 73.0647 19.6639 72.7397C19.6639 72.5024 19.5045 72.3601 19.1237 72.1845L18.6478 71.9639C18.148 71.7266 17.7577 71.449 17.7577 70.7776C17.7577 70.1441 18.3217 69.6222 19.0833 69.6222C19.3879 69.6059 19.6899 69.6859 19.9463 69.8508C20.2027 70.0156 20.4004 70.257 20.5111 70.5403L19.8995 70.8867C19.84 70.7238 19.7319 70.583 19.5899 70.4829C19.4479 70.3829 19.2786 70.3284 19.1047 70.3268C18.7882 70.3268 18.5645 70.5 18.5645 70.7681C18.5645 71.0362 18.7263 71.1477 19.1071 71.3233Z" fill="white"/>
<path d="M22.6445 68.576C22.6535 68.4433 22.7127 68.319 22.8101 68.2282C22.9075 68.1374 23.0359 68.0869 23.1693 68.0869C23.3026 68.0869 23.431 68.1374 23.5285 68.2282C23.6259 68.319 23.6851 68.4433 23.694 68.576C23.6851 68.7086 23.6259 68.833 23.5285 68.9238C23.431 69.0146 23.3026 69.0651 23.1693 69.0651C23.0359 69.0651 22.9075 69.0146 22.8101 68.9238C22.7127 68.833 22.6535 68.7086 22.6445 68.576ZM22.7397 73.8311V69.7504H23.5988V73.8311H22.7397Z" fill="white"/>
<path d="M29.5103 69.75V73.8307H28.6536V70.4926H26.9544V73.8307H26.0977V69.75H29.5103Z" fill="white"/>
<path d="M33.8991 73.959C33.3222 73.9609 32.7682 73.7343 32.3589 73.3289C31.9497 72.9236 31.7187 72.3728 31.7168 71.7977C31.7149 71.2225 31.9423 70.6702 32.3488 70.2622C32.7554 69.8542 33.3079 69.624 33.8848 69.6221C35.0747 69.6221 35.9005 70.5402 35.9005 71.7905C35.9002 71.8938 35.8923 71.9969 35.8767 72.099H32.6211C32.6576 72.4108 32.8117 72.697 33.0521 72.8997C33.2925 73.1024 33.6013 73.2063 33.9158 73.1903C34.1408 73.1997 34.3647 73.154 34.568 73.0572C34.7713 72.9604 34.9477 72.8155 35.0819 72.6352L35.5816 73.15C35.3887 73.4115 35.1345 73.622 34.8413 73.763C34.548 73.9041 34.2245 73.9714 33.8991 73.959ZM32.6211 71.4821H35.0581C35.0451 71.1788 34.9131 70.8927 34.6905 70.6854C34.4679 70.4782 34.1726 70.3664 33.8682 70.3742C33.5584 70.368 33.2578 70.4787 33.0266 70.6842C32.7953 70.8897 32.6505 71.1747 32.6211 71.4821ZM34.1204 67.7051H35.089L34.049 69.0384H33.2565L34.1204 67.7051Z" fill="white"/>
<path d="M43.6542 73.9596C43.0021 73.9596 42.4381 73.6821 42.2263 73.2692H42.2025C42.2222 73.4003 42.2302 73.5329 42.2263 73.6655V75.6512H41.3672V69.7508H42.162V69.9881C42.162 70.1707 42.162 70.2728 42.1454 70.3843H42.1692C42.3349 70.1383 42.5615 69.9391 42.8271 69.8061C43.0927 69.6731 43.3882 69.6107 43.6851 69.6251C44.875 69.6251 45.727 70.5266 45.727 71.7935C45.727 73.0605 44.8607 73.9596 43.6542 73.9596ZM42.2001 71.7817C42.2001 72.6049 42.757 73.191 43.5352 73.191C43.8924 73.1656 44.2268 73.0063 44.4709 72.745C44.715 72.4837 44.8507 72.1399 44.8507 71.7829C44.8507 71.4258 44.715 71.082 44.4709 70.8207C44.2268 70.5595 43.8924 70.4001 43.5352 70.3748C42.757 70.3748 42.2001 70.9584 42.2001 71.7817Z" fill="white"/>
<path d="M49.7563 69.6221C50.4869 69.6221 51.02 69.9685 51.2175 70.3813H51.2413C51.2413 70.2935 51.2247 70.1915 51.2247 69.9779V69.7407H52.01V73.8309H51.2247V73.5462C51.2247 73.3635 51.2247 73.2449 51.2413 73.1334H51.2175C51.0034 73.6079 50.4393 73.9662 49.7254 73.9662C48.4855 73.9662 47.6621 73.0551 47.6621 71.7977C47.6621 70.5402 48.5331 69.6221 49.7563 69.6221ZM51.1842 71.7811C51.1842 70.9578 50.6273 70.3742 49.8515 70.3742C49.487 70.3891 49.1423 70.544 48.8897 70.8064C48.637 71.0688 48.4959 71.4185 48.4959 71.7823C48.4959 72.146 48.637 72.4957 48.8897 72.7581C49.1423 73.0205 49.487 73.1754 49.8515 73.1903C50.6369 73.1903 51.1842 72.5972 51.1842 71.7811Z" fill="white"/>
<path d="M56.4185 69.75V70.5092H55.3785V73.8307H54.5146V69.75H56.4185Z" fill="white"/>
<path d="M65.0029 69.75V73.8307H64.1438V70.4926H62.4446V73.8307H61.5879V69.75H65.0029Z" fill="white"/>
<path d="M67.2071 71.7903C67.2061 71.36 67.3333 70.9392 67.5725 70.5811C67.8116 70.223 68.152 69.9437 68.5506 69.7786C68.9491 69.6136 69.3878 69.5701 69.8111 69.6538C70.2344 69.7375 70.6232 69.9446 70.9284 70.2488C71.2335 70.553 71.4413 70.9407 71.5252 71.3627C71.6092 71.7847 71.5656 72.2221 71.4 72.6194C71.2344 73.0167 70.9543 73.356 70.5951 73.5945C70.2359 73.8329 69.8138 73.9597 69.3822 73.9588C69.0942 73.9676 68.8073 73.9176 68.5394 73.8118C68.2715 73.706 68.0281 73.5465 67.8243 73.3434C67.6205 73.1402 67.4606 72.8976 67.3545 72.6305C67.2483 72.3634 67.1982 72.0774 67.2071 71.7903ZM70.6935 71.7903C70.6935 70.967 70.1533 70.3834 69.3822 70.3834C68.6112 70.3834 68.0733 70.967 68.0733 71.7903C68.0733 72.6135 68.6207 73.1996 69.3822 73.1996C70.1437 73.1996 70.6982 72.5969 70.6982 71.7808L70.6935 71.7903Z" fill="white"/>
<path d="M73.7705 73.8307V69.75H74.6272V73.0715H76.2931V69.75H77.1522V73.8307H73.7705Z" fill="white"/>
<path d="M80.7926 71.3234L81.3185 71.5749C81.8183 71.8121 82.1991 72.1229 82.1991 72.7469C82.1991 73.4586 81.6422 73.9592 80.745 73.9592C79.8883 73.9592 79.4123 73.4586 79.2695 72.9058L79.9287 72.5428C79.965 72.7384 80.0689 72.9152 80.2224 73.0422C80.3759 73.1692 80.5693 73.2385 80.7688 73.238C81.1115 73.238 81.3495 73.0648 81.3495 72.7398C81.3495 72.5025 81.19 72.3602 80.8093 72.1846L80.3333 71.9639C79.8335 71.7267 79.4456 71.4491 79.4456 70.7777C79.4456 70.1442 80.0097 69.6223 80.7712 69.6223C81.0759 69.6056 81.3781 69.6855 81.6346 69.8504C81.891 70.0153 82.0886 70.2568 82.1991 70.5404L81.5875 70.8868C81.5279 70.7239 81.4199 70.5831 81.2778 70.483C81.1358 70.383 80.9665 70.3285 80.7926 70.3269C80.4761 70.3269 80.2548 70.5001 80.2548 70.7682C80.2548 71.0363 80.4118 71.1478 80.7926 71.3234Z" fill="white"/>
<path d="M90.762 70.9672C90.6399 70.7795 90.4712 70.6263 90.2724 70.5224C90.0736 70.4185 89.8512 70.3674 89.6269 70.3741C88.8582 70.3741 88.3084 70.9577 88.3084 71.781C88.3084 72.6043 88.8582 73.1903 89.6269 73.1903C89.8581 73.1957 90.0867 73.1408 90.29 73.0309C90.4933 72.921 90.6642 72.76 90.7858 72.5639L91.2951 73.0788C91.1153 73.3545 90.868 73.5799 90.5765 73.7339C90.2851 73.8879 89.959 73.9654 89.6292 73.959C89.3436 73.959 89.0608 73.9029 88.7969 73.7939C88.533 73.6849 88.2932 73.5252 88.0912 73.3238C87.8892 73.1225 87.729 72.8834 87.6197 72.6203C87.5104 72.3572 87.4541 72.0753 87.4541 71.7905C87.4541 71.5057 87.5104 71.2237 87.6197 70.9606C87.729 70.6976 87.8892 70.4585 88.0912 70.2571C88.2932 70.0558 88.533 69.896 88.7969 69.7871C89.0608 69.6781 89.3436 69.622 89.6292 69.622C89.9534 69.6122 90.275 69.6821 90.5656 69.8257C90.8561 69.9693 91.1067 70.1821 91.2951 70.4453L90.762 70.9672Z" fill="white"/>
<path d="M93.3896 73.8307V67.8994H94.2583V69.75H96.8213V73.8307H95.9646V70.4926H94.2583V73.8307H93.3896Z" fill="white"/>
<path d="M101.198 73.959C100.621 73.9609 100.067 73.7343 99.6578 73.3289C99.2485 72.9236 99.0175 72.3728 99.0156 71.7977C99.0137 71.2226 99.2411 70.6702 99.6477 70.2622C100.054 69.8542 100.607 69.624 101.184 69.6221C102.374 69.6221 103.199 70.5402 103.199 71.7906C103.2 71.8939 103.192 71.997 103.176 72.099H99.9128C99.9493 72.4108 100.103 72.697 100.344 72.8997C100.584 73.1024 100.893 73.2063 101.207 73.1903C101.433 73.2001 101.657 73.1546 101.86 73.0578C102.063 72.961 102.24 72.8159 102.374 72.6352L102.873 73.15C102.681 73.4105 102.428 73.6204 102.136 73.7614C101.844 73.9023 101.522 73.9702 101.198 73.959ZM99.9128 71.4821H102.35C102.337 71.1788 102.205 70.8927 101.982 70.6854C101.76 70.4782 101.464 70.3664 101.16 70.3742C100.85 70.368 100.55 70.4787 100.318 70.6842C100.087 70.8897 99.9422 71.1747 99.9128 71.4821Z" fill="white"/>
<path d="M105.031 69.75H108.298L106.252 73.0715H108.179V73.8236H104.902L106.982 70.4855H105.031V69.75Z" fill="white"/>
<path d="M114.522 73.8312L113.094 69.748H114.015L115.071 73.0696H115.102L116.159 69.748H117.07L115.676 73.8312H114.522Z" fill="white"/>
<path d="M118.736 71.7903C118.735 71.36 118.863 70.9392 119.102 70.5811C119.341 70.223 119.681 69.9437 120.08 69.7786C120.478 69.6136 120.917 69.5701 121.34 69.6538C121.764 69.7375 122.153 69.9446 122.458 70.2488C122.763 70.553 122.971 70.9407 123.055 71.3627C123.138 71.7847 123.095 72.2221 122.929 72.6194C122.764 73.0167 122.484 73.356 122.124 73.5945C121.765 73.8329 121.343 73.9597 120.912 73.9588C120.623 73.9676 120.337 73.9176 120.069 73.8118C119.801 73.706 119.557 73.5465 119.354 73.3434C119.15 73.1402 118.99 72.8976 118.884 72.6305C118.778 72.3634 118.727 72.0774 118.736 71.7903ZM122.22 71.7903C122.22 70.967 121.683 70.3834 120.912 70.3834C120.14 70.3834 119.603 70.967 119.603 71.7903C119.603 72.6135 120.15 73.1996 120.912 73.1996C121.673 73.1996 122.22 72.5969 122.22 71.7808V71.7903Z" fill="white"/>
<path d="M125.301 73.8307V69.75H126.148V73.0715H127.814V69.75H128.673V73.8307H125.301Z" fill="white"/>
<path d="M132.336 71.3234L132.862 71.5749C133.361 71.8121 133.742 72.1229 133.742 72.7469C133.742 73.4586 133.185 73.9592 132.288 73.9592C131.431 73.9592 130.955 73.4586 130.812 72.9058L131.472 72.5428C131.508 72.7384 131.612 72.9152 131.765 73.0422C131.919 73.1692 132.112 73.2385 132.312 73.238C132.654 73.238 132.892 73.0648 132.892 72.7398C132.892 72.5025 132.733 72.3602 132.352 72.1846L131.876 71.9639C131.377 71.7267 130.989 71.4491 130.989 70.7777C130.989 70.1442 131.553 69.6223 132.314 69.6223C132.619 69.6056 132.921 69.6855 133.178 69.8504C133.434 70.0153 133.632 70.2568 133.742 70.5404L133.13 70.8868C133.071 70.7239 132.963 70.5831 132.821 70.483C132.679 70.383 132.509 70.3285 132.336 70.3269C132.019 70.3269 131.798 70.5001 131.798 70.7682C131.798 71.0363 131.943 71.1478 132.336 71.3234Z" fill="white"/>
<path d="M15.2722 51.3965C14.6518 54.1518 13.8094 56.4792 12.7448 58.3788C13.7523 59.3025 14.6288 59.7636 15.3745 59.762V63.3777C13.8562 63.3777 12.2887 62.6889 10.672 61.3112C9.12195 62.9356 7.46401 63.7478 5.69819 63.7478C3.65632 63.7478 2.09516 62.9079 1.01473 61.2282C0.331562 60.1398 -0.0205729 58.8773 0.000929061 57.5935C0.0239106 56.1498 0.354048 54.7273 0.969512 53.4202C1.07898 53.1862 1.44468 52.5535 2.0666 51.5222C2.41168 50.9718 2.75913 50.4404 3.1042 49.9303L2.29507 48.0916C1.92144 47.2351 1.65014 46.6301 1.51211 46.2624C1.26291 45.648 1.0686 45.0128 0.931435 44.3643C0.809889 43.7661 0.747714 43.1574 0.745809 42.547C0.735933 41.4452 0.99916 40.358 1.51211 39.3821C2.00627 38.3938 2.80537 37.5897 3.79197 37.0878C4.59647 36.658 5.49709 36.4385 6.40976 36.4496C7.43675 36.4415 8.44588 36.7175 9.32502 37.2468C10.2015 37.7679 10.9068 38.5321 11.355 39.4461C11.729 40.2074 11.9212 41.0446 11.9166 41.8922C11.9166 43.4486 11.3709 44.929 10.2793 46.3335L9.42973 47.4296C8.65709 48.4356 7.94315 49.3791 7.28791 50.2601C8.13251 52.0219 9.11608 53.714 10.2294 55.3206C10.8916 53.8075 11.3917 52.229 11.7215 50.6112L15.2722 51.3965ZM5.69819 60.1535C6.49146 60.1535 7.32757 59.6576 8.20651 58.6659C7.0029 57.0881 5.92852 55.4165 4.99377 53.667C4.75579 54.0798 4.49639 54.5092 4.24889 54.9481C3.86043 55.7777 3.64816 56.6783 3.62538 57.5935C3.59776 58.2137 3.76408 58.8272 4.10134 59.3492C4.27572 59.6088 4.51428 59.8192 4.79399 59.96C5.0737 60.1009 5.38513 60.1675 5.69819 60.1535ZM4.35122 42.5328C4.35122 43.3046 4.75182 44.6403 5.55302 46.5399L6.05041 45.9207L6.5692 45.2398L7.395 44.1437C8.00423 43.3529 8.30805 42.6095 8.30646 41.9135C8.32823 41.5076 8.25744 41.102 8.09942 40.7273C7.75514 39.8589 7.18875 39.4248 6.40024 39.4248C5.72437 39.4248 5.19129 39.7901 4.80576 40.5209C4.49046 41.144 4.33432 41.8351 4.35122 42.5328Z" fill="white"/>
<path d="M7.49647 8.02246C9.40032 8.02246 10.9202 8.62192 12.0562 9.82083C13.1049 10.9644 13.63 12.4243 13.6316 14.2005V17.9586C13.6451 18.7714 13.4932 19.5785 13.1852 20.3312C12.8773 21.084 12.4195 21.7667 11.8396 22.3382C11.2809 22.9238 10.6065 23.3876 9.85896 23.7004C9.11145 24.0132 8.30705 24.1681 7.49647 24.1556H5.23803V33.9066H1.32324V8.02246H7.49647ZM9.8382 14.2622C9.85195 13.9632 9.80509 13.6646 9.70041 13.3842C9.59573 13.1037 9.43539 12.8472 9.22897 12.6299C9.01468 12.421 8.75962 12.2582 8.4796 12.1517C8.19958 12.0452 7.90059 11.9972 7.60118 12.0107H5.23803V20.2931H7.60118C7.89672 20.2982 8.1901 20.2422 8.46287 20.1287C8.73565 20.0151 8.9819 19.8466 9.18613 19.6336C9.39706 19.4259 9.56359 19.1778 9.67566 18.9041C9.78773 18.6305 9.84302 18.3371 9.8382 18.0416V14.2622Z" fill="white"/>
<path d="M17.6289 33.9065V8.00098H28.7783V11.9275H21.5532V18.9929H26.8364V22.917H21.5532V29.9824H28.7855V33.9065H17.6289Z" fill="white"/>
<path d="M38.5272 8.02246C40.7102 8.02246 42.3127 8.62192 43.3344 9.82083C44.2308 10.8679 44.6798 12.3278 44.6814 14.2005V17.9586C44.6926 18.8383 44.5113 19.7099 44.15 20.5126C43.7888 21.3154 43.2562 22.0299 42.5895 22.6063L45.4905 33.9066H41.2544L38.8746 24.1556H36.2568V33.9066H32.3516V8.02246H38.5272ZM40.8689 14.2622C40.8689 12.7612 40.1232 12.0107 38.6319 12.0107H36.2687V20.2931H38.6319C38.9274 20.2982 39.2208 20.2422 39.4936 20.1287C39.7663 20.0151 40.0126 19.8466 40.2168 19.6336C40.4278 19.4259 40.5943 19.1778 40.7064 18.9041C40.8184 18.6305 40.8737 18.3371 40.8689 18.0416V14.2622Z" fill="white"/>
<path d="M61.3481 27.4625C61.375 29.2656 60.9054 30.8077 59.9392 32.0889C59.2683 32.9798 58.3215 33.6252 57.2453 33.9252C56.5388 34.1295 55.8056 34.2271 55.0701 34.2146C53.5344 34.2146 52.2651 33.8358 51.2624 33.0782C50.3889 32.4197 49.7004 31.5478 49.2634 30.5467C48.7514 29.3886 48.4601 28.1456 48.4043 26.8812L52.1358 26.6155C52.2945 28.1244 52.6911 29.2181 53.3257 29.8967C53.5213 30.133 53.7687 30.3213 54.0489 30.4472C54.3291 30.5731 54.6345 30.6331 54.9416 30.6227C55.7984 30.5942 56.4822 30.1735 56.993 29.3605C57.2548 28.9619 57.3881 28.3901 57.3881 27.6451C57.3881 26.5696 56.8978 25.5012 55.9173 24.4399L52.4381 21.1516C51.1387 19.8989 50.2201 18.7759 49.6823 17.7826C49.0972 16.6586 48.7958 15.4094 48.8041 14.1431C48.8041 11.7864 49.5974 10.0015 51.1839 8.78838C52.1644 8.05764 53.3805 7.69227 54.8322 7.69227C56.0913 7.65555 57.3348 7.97822 58.4161 8.6223C59.2075 9.12236 59.854 9.82002 60.2914 10.6461C60.7855 11.5737 61.0782 12.5947 61.1505 13.6425L57.4 14.3235C57.2905 13.2622 56.9867 12.4357 56.4885 11.8442C56.296 11.6259 56.0557 11.4546 55.7863 11.3436C55.5168 11.2325 55.2254 11.1846 54.9345 11.2036C54.5999 11.1935 54.2692 11.2771 53.9798 11.4448C53.6904 11.6126 53.454 11.8578 53.2972 12.1526C52.977 12.7329 52.8199 13.3887 52.8426 14.0506C52.8426 15.2337 53.3535 16.4382 54.3752 17.664C54.9023 18.2709 55.4855 18.8269 56.1173 19.3247C57.0279 20.0808 57.6284 20.6106 57.9188 20.9143C58.7915 21.7569 59.5442 22.7148 60.1558 23.7613C60.382 24.1548 60.5831 24.5621 60.7579 24.9808C61.1034 25.7657 61.3033 26.6065 61.3481 27.4625Z" fill="white"/>
<path d="M69.3918 33.9066H65.4746V8.02246H69.3918V33.9066Z" fill="white"/>
<path d="M84.441 33.9066H73.7676V8.02246H77.6847V30.0228H84.441V33.9066Z" fill="white"/>
<path d="M28.3709 37.7217C30.554 37.7217 32.1564 38.3211 33.1781 39.52C34.0761 40.5671 34.5251 42.027 34.5251 43.8997V47.6578C34.5368 48.5382 34.3554 49.4105 33.9937 50.2137C33.6319 51.0169 33.0986 51.7316 32.4309 52.3079L35.3319 63.6059H31.0982L28.7184 53.8572H26.1006V63.6059H22.1953V37.7217H28.3709ZM30.7127 43.9614C30.7127 42.4588 29.9662 41.7083 28.4733 41.7099H26.1125V49.9923H28.4733C28.7688 49.9974 29.0622 49.9414 29.3349 49.8279C29.6077 49.7144 29.854 49.5458 30.0582 49.3328C30.2694 49.1252 30.4363 48.8772 30.5488 48.6036C30.6613 48.33 30.717 48.0365 30.7127 47.7408V43.9614Z" fill="white"/>
<path d="M44.8054 37.4004C45.6221 37.3991 46.431 37.5586 47.1857 37.8696C47.9404 38.1806 48.6262 38.637 49.2036 39.2127C49.7811 39.7884 50.2389 40.472 50.5509 41.2244C50.8628 41.9769 51.0227 42.7833 51.0215 43.5974V57.7281C51.0215 58.5407 50.8609 59.3453 50.549 60.096C50.2371 60.8467 49.78 61.5288 49.2036 62.1034C48.6273 62.6779 47.9431 63.1337 47.1901 63.4447C46.4371 63.7556 45.63 63.9157 44.8149 63.9157C43.9999 63.9157 43.1928 63.7556 42.4398 63.4447C41.6868 63.1337 41.0026 62.6779 40.4263 62.1034C39.8499 61.5288 39.3928 60.8467 39.0808 60.096C38.7689 59.3453 38.6084 58.5407 38.6084 57.7281V43.5974C38.6071 41.9584 39.2577 40.3857 40.4175 39.2241C41.5774 38.0625 43.1519 37.4067 44.7959 37.4004H44.8054ZM46.9473 43.5144C46.9482 43.221 46.8909 42.9304 46.7787 42.6593C46.6664 42.3881 46.5015 42.1418 46.2933 41.9345C46.0851 41.7272 45.8379 41.563 45.5658 41.4514C45.2937 41.3398 45.0021 41.283 44.7078 41.2842C44.4118 41.2795 44.1178 41.3346 43.8438 41.4463C43.5697 41.5581 43.3212 41.7241 43.1134 41.9343C42.8993 42.1377 42.7297 42.3831 42.6155 42.655C42.5012 42.927 42.4447 43.2196 42.4494 43.5144V57.6854C42.4447 57.9802 42.5012 58.2728 42.6155 58.5448C42.7297 58.8167 42.8993 59.0621 43.1134 59.2655C43.3211 59.4761 43.5695 59.6424 43.8436 59.7546C44.1176 59.8667 44.4116 59.9223 44.7078 59.918C45.0021 59.9186 45.2936 59.8613 45.5656 59.7493C45.8376 59.6373 46.0847 59.4729 46.2927 59.2655C46.5008 59.058 46.6657 58.8117 46.7781 58.5405C46.8904 58.2694 46.9479 57.9788 46.9473 57.6854V43.5144Z" fill="white"/>
<path d="M58.9611 63.6153H55.0439V37.7217H60.665L64.3157 56.3293L67.8188 37.7217H73.2185V63.6153H69.3014V47.3375L65.903 63.6153H62.7545L58.9611 47.3778V63.6153Z" fill="white"/>
<path d="M82.1042 57.6674L81.1522 63.6153H77.0732L81.4878 37.7217H86.8804L91.2307 63.6059H87.1184L86.2022 57.658L82.1042 57.6674ZM84.1603 43.6696L82.711 53.8714H85.612L84.1603 43.6696Z" fill="white"/>
<path d="M101.281 37.7217C103.463 37.7217 105.065 38.3211 106.088 39.52C106.986 40.5671 107.435 42.027 107.435 43.8997V47.6578C107.447 48.5382 107.266 49.4105 106.904 50.2137C106.542 51.0169 106.009 51.7316 105.341 52.3079L108.242 63.6059H104.015L101.636 53.8572H99.0179V63.6059H95.1055V37.7217H101.281ZM103.623 43.9614C103.623 42.4588 102.876 41.7083 101.383 41.7099H99.0179V49.9923H101.379C101.674 49.9999 101.968 49.9464 102.241 49.8354C102.515 49.7243 102.762 49.5581 102.968 49.347C103.18 49.1395 103.346 48.8914 103.459 48.6178C103.571 48.3442 103.627 48.0507 103.623 47.7551V43.9614Z" fill="white"/>
<path d="M116.1 63.6153H112.183V37.7217H116.1V63.6153Z" fill="white"/>
<path d="M124.581 37.7217L129.779 55.1312V37.7217H133.694V63.6153H129.479L124.101 47.0291V63.6153H120.184V37.7217H124.581Z" fill="white"/>
</svg>
